<?xml version="1.0" standalone="no"?>
<!DOCTYPE svg PUBLIC "-//W3C//DTD SVG 20010904//EN"
 "http://www.w3.org/TR/2001/REC-SVG-20010904/DTD/svg10.dtd">
<svg version="1.0" xmlns="http://www.w3.org/2000/svg"
 width="200.000000pt" height="303.000000pt" viewBox="-10 -0 300.000000 303.000000"
 preserveAspectRatio="xMidYMid meet">
<metadata>
Created by potrace 1.10, written by Peter Selinger 2001-2011
</metadata>
<g transform="translate(0.000000,303.000000) scale(0.100000,-0.100000)"
fill="#000000" stroke="none">
<path d="M500 2749 c0 -5 8 -9 18 -10 14 0 14 -2 2 -7 -22 -10 -21 -96 1 -100
13 -2 16 8 18 60 1 57 0 64 -19 65 -11 1 -20 -2 -20 -8z"/>
<path d="M509 2608 c-1 -7 -3 -23 -4 -36 -1 -12 5 -27 14 -32 9 -5 11 -10 5
-10 -16 0 -24 -38 -14 -64 11 -30 -5 -56 -35 -56 -27 0 -28 -1 -19 -24 6 -15
8 -15 20 1 12 16 15 16 24 3 5 -8 8 -19 7 -24 -4 -12 -78 -34 -95 -28 -6 2
-12 -1 -12 -7 0 -8 -7 -7 -21 1 -18 11 -23 11 -27 -1 -4 -11 -6 -11 -13 0 -6
10 -9 8 -9 -8 0 -20 4 -21 38 -18 20 3 58 2 85 -1 l47 -6 0 -50 0 -49 -57 2
c-46 2 -59 0 -61 -13 -2 -11 5 -15 25 -14 15 1 36 -2 46 -7 12 -5 17 -3 17 8
0 8 9 15 20 15 18 0 20 7 20 59 0 55 -2 59 -26 65 -18 5 -24 10 -17 17 6 6
189 10 491 10 l482 0 0 24 c0 21 -5 25 -27 24 -17 -1 -21 -3 -10 -6 21 -6 22
-19 1 -27 -22 -8 -22 -8 -27 17 l-4 22 -2 -23 c0 -14 -6 -22 -13 -20 -9 3 -14
31 -15 84 -2 83 -22 120 -24 42 -1 -23 -2 -52 -3 -63 -1 -11 -3 -30 -4 -42 -2
-20 -8 -23 -42 -23 -39 0 -40 1 -40 35 0 32 -18 51 -22 23 0 -7 -2 -17 -3 -23
-2 -5 -3 -16 -4 -22 -1 -8 -16 -13 -41 -13 l-40 0 0 71 c0 52 -3 70 -12 66 -8
-2 -13 -21 -13 -45 0 -22 -4 -44 -8 -48 -4 -4 -7 -16 -7 -26 0 -14 -8 -18 -35
-18 -35 0 -35 0 -35 45 0 57 -16 58 -27 3 -8 -39 -11 -43 -38 -43 -30 0 -30 1
-33 63 -2 41 -7 62 -15 62 -8 0 -12 -13 -11 -37 1 -21 -1 -50 -3 -65 -5 -26
-9 -28 -50 -28 -40 0 -45 2 -40 20 3 11 1 20 -5 20 -6 0 -8 9 -5 19 3 11 -1
22 -8 25 -9 3 -15 -9 -20 -40 -6 -42 -8 -44 -40 -44 -32 0 -34 2 -41 45 -3 25
-10 45 -15 45 -4 0 -11 -20 -15 -45 l-6 -45 -49 0 c-42 0 -49 3 -49 20 0 11
-3 19 -7 19 -19 -3 -27 2 -16 9 7 5 16 29 19 55 6 43 5 47 -12 41 -18 -5 -18
-5 -1 6 23 15 25 120 2 120 -8 0 -16 -6 -16 -12z"/>
<path d="M1450 2581 c0 -11 8 -22 18 -24 16 -4 16 -5 0 -6 -20 -1 -25 -21 -5
-21 8 0 7 -4 -3 -10 -13 -9 -13 -11 0 -20 19 -12 27 9 25 60 -1 24 -6 36 -18
38 -11 2 -17 -3 -17 -17z"/>
<path d="M1209 2568 c0 -2 -1 -22 -3 -45 -2 -30 2 -43 11 -43 9 0 13 14 13 45
0 25 -4 45 -10 45 -5 0 -10 -1 -11 -2z"/>
<path d="M1905 2550 c-3 -6 -8 -31 -9 -55 -2 -40 0 -45 18 -45 17 0 18 2 6 10
-10 6 -11 10 -3 10 8 0 12 13 10 39 -3 43 -11 59 -22 41z"/>
<path d="M643 2500 c3 -69 27 -69 27 0 0 36 -4 50 -14 50 -10 0 -14 -13 -13
-50z"/>
<path d="M985 2500 c0 -33 4 -50 12 -50 9 0 13 16 13 50 0 34 -4 50 -13 50 -8
0 -12 -16 -12 -50z"/>
<path d="M2010 2506 c0 -19 -3 -41 -6 -50 -4 -11 -1 -16 11 -16 9 0 13 5 10
10 -3 6 -2 10 2 10 5 0 9 18 9 40 1 28 -3 40 -12 40 -9 0 -14 -12 -14 -34z"/>
<path d="M2475 2508 c-2 -7 -6 -32 -8 -55 -4 -36 -1 -43 13 -43 14 0 17 10 19
55 1 33 -3 55 -9 55 -6 0 -12 -6 -15 -12z"/>
<path d="M1688 2464 c-3 -41 5 -64 18 -51 3 3 7 26 10 51 4 36 2 46 -9 46 -11
0 -16 -14 -19 -46z"/>
<path d="M2229 2508 c-1 -2 -2 -33 -4 -69 -1 -37 -6 -72 -9 -78 -4 -6 -23 -11
-42 -11 l-34 0 0 60 c0 33 -4 60 -10 60 -5 0 -10 -13 -10 -29 0 -16 -3 -43 -6
-60 -6 -30 -9 -32 -43 -29 -28 2 -36 7 -37 23 -2 45 -5 55 -15 55 -7 0 -9 -10
-7 -25 3 -13 1 -22 -3 -19 -5 3 -9 -4 -9 -15 0 -18 -6 -21 -39 -21 -22 0 -43
5 -47 12 -4 7 -3 8 5 4 8 -6 11 3 8 30 -6 54 -25 55 -29 2 -3 -40 -5 -43 -35
-46 -29 -3 -33 0 -34 22 -2 45 -4 49 -16 53 -6 2 -14 -13 -18 -36 -6 -39 -9
-41 -41 -41 -30 0 -34 3 -34 25 0 15 -6 25 -14 25 -8 0 -17 -11 -20 -25 -5
-21 -12 -25 -44 -25 l-38 0 1 65 c2 49 -1 65 -11 65 -10 0 -14 -14 -15 -45 -1
-25 -3 -49 -4 -55 -1 -5 -3 -14 -4 -20 0 -5 -14 -10 -31 -10 -36 0 -42 26 -7
33 16 3 13 5 -10 6 -29 1 -33 -2 -33 -24 l0 -26 440 2 c323 0 444 -2 455 -11
7 -6 26 -10 42 -7 26 4 26 4 -5 6 -32 1 -33 3 -32 39 1 20 1 42 0 47 -1 6 -1
25 0 43 1 22 -3 32 -13 32 -11 0 -16 -14 -19 -54 -2 -40 0 -52 10 -49 8 4 10
0 6 -11 -3 -9 -10 -14 -14 -11 -5 3 -11 -1 -13 -7 -3 -8 -6 -6 -6 5 -1 20 -17
23 -24 5 -4 -10 -8 -10 -15 0 -7 11 -10 11 -15 -2 -4 -9 -13 -16 -22 -16 -16
0 -18 10 -15 103 1 35 -3 57 -9 57 -6 0 -11 -1 -12 -2z"/>
<path d="M1452 2440 c1 -27 6 -40 16 -40 8 0 12 6 9 14 -3 8 -3 17 1 20 14 15
8 46 -10 46 -14 0 -18 -7 -16 -40z"/>
<path d="M2660 2465 c7 -9 19 -14 26 -11 15 6 30 -12 19 -22 -4 -4 -50 -12
-103 -18 -54 -7 -79 -12 -56 -13 38 -1 41 -3 36 -26 -6 -34 -58 -36 -65 -2 -3
17 -5 16 -6 -8 l-1 -30 166 3 167 3 -6 38 c-7 57 23 98 38 51 4 -12 25 -38 48
-59 l41 -39 -34 -21 c-27 -17 -48 -21 -89 -19 -52 3 -56 1 -77 -29 -19 -28
-24 -31 -34 -18 -14 17 -40 20 -40 6 0 -6 5 -13 10 -16 17 -10 11 -24 -12 -30
-16 -4 -23 -14 -24 -31 -1 -14 -5 -28 -8 -31 -12 -13 -45 30 -51 67 -8 50 -26
65 -56 50 l-21 -12 23 -12 c14 -7 30 -30 41 -61 21 -59 21 -55 7 -55 -14 0
-38 -30 -39 -47 0 -21 18 -15 25 8 7 20 9 19 44 -15 20 -20 42 -36 47 -36 17
0 42 33 46 59 2 17 12 27 32 32 15 4 36 15 46 24 15 13 35 16 100 13 l82 -3
-6 44 c-3 24 -6 50 -6 57 0 8 -8 14 -17 14 -15 0 -15 1 -1 13 20 16 32 95 17
113 -6 8 -21 14 -33 14 -12 0 -34 16 -53 37 -25 31 -34 36 -44 26 -15 -15 -49
-17 -49 -3 0 6 -7 10 -15 10 -21 0 -19 -18 5 -32 29 -18 25 -23 -19 -23 -38 0
-39 1 -24 17 20 23 19 24 -41 33 -46 6 -49 5 -36 -10z m108 -81 c8 -15 11 -15
36 1 22 15 26 15 26 2 0 -26 -24 -34 -105 -35 l-80 0 50 23 c62 29 62 29 73 9z
m88 -135 c3 -5 0 -9 -6 -9 -6 0 -20 -16 -31 -35 -12 -19 -26 -35 -32 -35 -5 0
-27 -8 -48 -17 -30 -13 -39 -23 -41 -46 -4 -39 -18 -43 -47 -16 l-24 22 26 14
c14 7 28 21 31 31 3 9 21 26 40 36 18 10 43 30 54 46 16 21 27 26 47 23 14 -3
28 -9 31 -14z m97 -36 c4 -20 5 -39 3 -40 -2 -2 -34 -3 -72 -1 l-68 3 32 32
c28 28 47 37 88 42 6 0 14 -16 17 -36z"/>
<path d="M2472 2375 c3 -14 1 -25 -4 -25 -5 0 1 -14 13 -31 12 -17 24 -52 27
-77 l6 -47 7 35 c9 42 1 87 -16 94 -9 3 -11 17 -8 40 4 29 1 36 -12 36 -13 0
-16 -6 -13 -25z"/>
<path d="M1454 2369 c0 -12 7 -24 14 -27 9 -3 13 3 10 19 -4 29 -26 36 -24 8z"/>
<path d="M66 2325 c-4 -11 1 -15 19 -15 16 0 25 6 25 15 0 8 -9 15 -19 15 -10
0 -21 -7 -25 -15z"/>
<path d="M125 2331 c-3 -5 -1 -12 5 -16 17 -10 191 -14 184 -4 -3 5 -10 6 -16
3 -7 -4 -8 -2 -4 5 4 6 12 9 17 6 5 -4 9 -1 9 4 0 15 -37 14 -43 -1 -4 -10 -8
-9 -16 2 -10 13 -13 12 -28 -5 -11 -15 -14 -15 -10 -3 4 13 -1 16 -29 16 -23
0 -32 -4 -28 -11 4 -8 2 -7 -7 1 -16 14 -26 15 -34 3z"/>
<path d="M550 2250 l0 -60 50 0 50 0 0 60 0 60 -50 0 -50 0 0 -60z m90 0 l0
-50 -35 0 -35 0 0 50 0 50 35 0 35 0 0 -50z"/>
<path d="M664 2294 c3 -9 6 -36 6 -60 l0 -44 45 0 45 0 0 60 0 60 -51 0 c-43
0 -50 -3 -45 -16z m86 -44 l0 -50 -35 0 -35 0 0 50 0 50 35 0 35 0 0 -50z"/>
<path d="M770 2250 l0 -60 53 2 52 2 -47 3 -48 4 0 50 0 49 39 0 40 0 4 -47 3
-48 2 53 2 52 -50 0 -50 0 0 -60z"/>
<path d="M880 2250 l0 -60 55 0 55 0 0 36 c0 56 15 74 60 74 l40 0 0 -49 0
-50 -47 -4 -48 -3 53 -2 52 -2 0 60 0 60 -110 0 -110 0 0 -60z m98 -2 l3 -48
-45 0 -46 0 0 51 0 50 43 -3 42 -3 3 -47z"/>
<path d="M1110 2250 l0 -60 50 0 50 0 0 60 0 60 -50 0 -50 0 0 -60z m90 0 l0
-50 -40 0 -40 0 0 50 0 50 40 0 40 0 0 -50z"/>
<path d="M1220 2250 l0 -60 53 2 52 2 -47 3 -48 4 0 50 0 49 39 0 40 0 4 -47
3 -48 2 53 2 52 -50 0 -50 0 0 -60z"/>
<path d="M1330 2250 l0 -60 55 0 55 0 0 60 0 60 -55 0 -55 0 0 -60z m90 16 c0
-19 3 -41 6 -50 5 -13 -2 -16 -40 -16 l-46 0 0 50 0 50 40 0 c39 0 40 -1 40
-34z"/>
<path d="M1480 2250 l0 -60 50 0 50 0 0 60 0 60 -50 0 -50 0 0 -60z m90 0 l0
-50 -35 0 -35 0 0 50 0 50 35 0 35 0 0 -50z"/>
<path d="M1600 2250 l0 -60 50 0 50 0 0 60 0 60 -50 0 -50 0 0 -60z m88 -2 l3
-48 -40 0 -41 0 0 51 0 50 38 -3 c37 -3 37 -3 40 -50z"/>
<path d="M1712 2258 l2 -53 3 48 c4 46 5 47 38 47 33 0 34 -2 38 -42 l4 -43 1
48 2 47 -45 0 -45 0 2 -52z"/>
<path d="M1822 2273 c1 -37 1 -37 5 -5 4 29 7 32 38 32 31 0 34 -3 38 -32 4
-32 4 -32 5 5 l2 37 -45 0 -45 0 2 -37z"/>
<path d="M1922 2273 c1 -37 1 -37 5 -5 4 30 7 32 44 32 l39 0 0 -49 0 -50 -37
-4 -38 -4 43 -1 42 -2 0 60 0 60 -50 0 -50 0 2 -37z"/>
<path d="M2039 2306 c-2 -2 -2 -29 -1 -60 l4 -56 44 0 44 0 0 60 0 60 -43 0
c-24 0 -46 -2 -48 -4z m41 -16 c0 -14 27 -12 33 3 3 6 5 -13 5 -43 -1 -30 -3
-43 -5 -27 -5 31 -33 37 -33 6 0 -13 4 -18 12 -13 7 4 8 3 4 -4 -4 -7 -16 -12
-27 -12 -16 0 -19 7 -19 50 0 38 4 50 15 50 8 0 15 -4 15 -10z"/>
<path d="M2150 2250 l0 -60 50 0 50 0 0 60 0 60 -50 0 -50 0 0 -60z m90 0 l0
-50 -40 0 -40 0 0 50 0 50 40 0 40 0 0 -50z"/>
<path d="M2260 2250 l0 -60 49 0 49 0 5 58 c5 62 2 75 -14 52 -8 -11 -12 -12
-16 -2 -2 6 -20 12 -39 12 l-34 0 0 -60z m50 40 c0 -5 9 -10 20 -10 17 0 20
-7 20 -40 0 -40 0 -40 -40 -40 l-40 0 0 50 c0 43 3 50 20 50 11 0 20 -4 20
-10z"/>
<path d="M2418 2303 l42 -4 0 -50 0 -49 -39 0 c-38 0 -40 2 -39 30 1 17 -2 33
-5 37 -4 3 -7 -12 -7 -35 l0 -42 50 0 50 0 0 60 0 60 -47 -2 -48 -1 43 -4z"/>
<path d="M2480 1791 c0 -376 -3 -502 -12 -507 -7 -4 -14 -2 -16 6 -3 9 -9 5
-18 -11 l-13 -24 -1 24 c0 18 -3 21 -13 13 -20 -17 -47 10 -47 47 0 31 -1 31
-50 31 l-50 0 0 -60 0 -60 45 0 c24 0 56 5 70 12 21 10 28 9 35 -2 6 -10 12
-11 22 -3 7 6 23 9 36 8 l22 -2 0 514 c0 282 -2 513 -5 513 -3 0 -5 -225 -5
-499z m-130 -476 l0 -45 -40 0 -40 0 0 45 0 45 40 0 40 0 0 -45z"/>
<path d="M1802 2208 c-4 -3 -27 -8 -52 -11 -25 -2 1 -3 58 -3 56 0 102 3 102
6 0 15 -14 19 -27 8 -10 -8 -17 -8 -21 -2 -8 12 -49 13 -60 2z"/>
<path d="M2509 2178 c-3 -7 -2 -35 2 -63 l6 -50 1 48 c2 46 3 47 35 48 l32 2
-30 4 c-16 3 -33 9 -36 15 -4 6 -8 4 -10 -4z"/>
<path d="M488 2168 c7 -7 12 -31 12 -55 0 -40 -2 -43 -27 -44 -62 -2 -139 -1
-152 2 -8 2 -17 -4 -19 -13 -3 -16 5 -18 75 -18 l78 0 -1 -58 c0 -31 -3 -56
-7 -54 -10 3 -10 3 -34 8 -18 3 -23 -1 -23 -15 0 -16 6 -19 31 -18 l31 2 1
-59 2 -58 -42 6 c-34 4 -43 2 -43 -9 0 -10 11 -15 33 -16 86 -3 109 -9 77 -19
l-25 -8 28 -1 c35 -1 39 35 5 42 l-23 4 23 2 c20 1 22 6 22 61 0 53 -2 60 -20
60 -11 0 -20 5 -20 10 0 6 9 10 20 10 18 0 20 7 20 54 0 47 -3 55 -22 61 l-23
8 23 4 c20 4 22 10 22 64 0 49 -3 59 -17 59 -13 0 -14 -3 -5 -12z m2 -183 c0
-25 -4 -45 -10 -45 -5 0 -10 20 -10 45 0 25 5 45 10 45 6 0 10 -20 10 -45z m0
-135 c0 -27 -4 -50 -10 -50 -5 0 -10 23 -10 50 0 28 5 50 10 50 6 0 10 -22 10
-50z"/>
<path d="M550 2120 c0 -57 1 -60 25 -60 24 0 25 3 25 60 0 57 -1 60 -25 60
-24 0 -25 -3 -25 -60z m40 0 c0 -33 -4 -50 -12 -50 -9 0 -12 15 -11 47 2 58 1
53 13 53 6 0 10 -22 10 -50z"/>
<path d="M610 2120 c0 -53 2 -60 20 -60 18 0 20 7 20 60 0 53 -2 60 -20 60
-18 0 -20 -7 -20 -60z m30 0 c0 -27 -4 -50 -10 -50 -5 0 -10 23 -10 50 0 28 5
50 10 50 6 0 10 -22 10 -50z"/>
<path d="M670 2119 l0 -59 48 1 c26 1 39 3 30 6 -14 3 -18 15 -18 55 0 40 3
49 15 44 8 -3 15 -2 15 3 0 4 -20 8 -45 9 l-45 0 0 -59z m40 1 c0 -38 -4 -50
-15 -50 -11 0 -15 12 -15 50 0 38 4 50 15 50 11 0 15 -12 15 -50z"/>
<path d="M777 2173 c-4 -3 -7 -30 -7 -60 l0 -53 53 2 52 2 -47 3 -48 4 0 51 0
50 45 -4 c25 -2 45 0 45 4 0 10 -84 11 -93 1z"/>
<path d="M886 2173 c-3 -4 -6 -30 -6 -60 l0 -53 110 0 110 0 0 59 0 60 -104 0
c-57 0 -107 -3 -110 -6z m94 -53 l0 -50 -45 0 -45 0 0 50 0 50 45 0 45 0 0
-50z m110 0 l0 -50 -45 0 -45 0 0 50 0 50 45 0 45 0 0 -50z"/>
<path d="M1110 2120 l0 -60 50 0 50 0 0 60 0 60 -50 0 -50 0 0 -60z m90 0 l0
-50 -40 0 -40 0 0 50 0 50 40 0 40 0 0 -50z"/>
<path d="M1220 2120 l0 -60 53 2 52 2 -47 3 -48 4 0 51 0 50 45 -4 c25 -2 45
0 45 4 0 5 -22 8 -50 8 l-50 0 0 -60z"/>
<path d="M1337 2173 c-4 -3 -6 -25 -6 -47 l2 -41 6 40 c6 38 7 40 44 40 20 0
37 -3 37 -7 0 -5 0 -26 0 -49 l0 -41 -45 4 c-25 2 -45 0 -45 -4 0 -5 25 -8 55
-8 l55 0 0 60 0 60 -48 0 c-27 0 -52 -3 -55 -7z"/>
<path d="M1487 2173 c-4 -3 -7 -30 -7 -60 0 -50 1 -53 25 -53 24 0 25 3 25 60
0 52 -3 60 -18 60 -10 0 -22 -3 -25 -7z m33 -53 c0 -27 -4 -50 -10 -50 -5 0
-10 23 -10 50 0 28 5 50 10 50 6 0 10 -22 10 -50z"/>
<path d="M1540 2120 c0 -56 2 -60 23 -60 21 0 22 3 19 60 -3 51 -7 60 -23 60
-17 0 -19 -8 -19 -60z m30 0 c0 -27 -4 -50 -10 -50 -5 0 -10 23 -10 50 0 28 5
50 10 50 6 0 10 -22 10 -50z"/>
<path d="M1600 2120 l0 -60 45 0 45 0 0 60 0 60 -45 0 -45 0 0 -60z m80 0 l0
-50 -35 0 -35 0 0 50 0 50 35 0 35 0 0 -50z"/>
<path d="M1710 2120 l0 -60 45 0 45 0 0 60 0 60 -45 0 -45 0 0 -60z m80 0 l0
-50 -35 0 -35 0 0 50 0 50 35 0 35 0 0 -50z"/>
<path d="M1820 2120 l0 -60 45 0 45 0 0 60 0 60 -45 0 -45 0 0 -60z m80 0 l0
-50 -35 0 -35 0 0 50 0 50 35 0 35 0 0 -50z"/>
<path d="M1920 2120 l0 -60 50 0 50 0 0 60 0 60 -50 0 -50 0 0 -60z m90 0 l0
-50 -40 0 -40 0 0 50 0 50 40 0 40 0 0 -50z"/>
<path d="M2037 2173 c-4 -3 -7 -30 -7 -60 0 -52 1 -53 28 -52 22 1 23 2 5 6
-19 4 -22 10 -19 51 2 46 3 47 38 50 28 2 37 -1 41 -15 4 -14 5 -13 6 5 1 20
-4 22 -42 22 -24 0 -47 -3 -50 -7z"/>
<path d="M2150 2120 l0 -60 50 0 c46 0 50 2 49 23 -1 16 -2 18 -6 5 -3 -13
-15 -18 -44 -18 l-39 0 0 50 0 50 40 0 c36 0 40 -2 40 -26 0 -20 -4 -24 -19
-19 -11 3 -22 1 -26 -5 -6 -11 5 -13 43 -10 17 1 22 -4 22 -24 0 -24 3 -26 50
-26 50 0 50 0 50 33 0 24 3 28 10 17 8 -13 10 -12 10 3 0 9 -4 17 -10 17 -5 0
-10 11 -10 25 0 23 -3 25 -49 25 -49 0 -50 -1 -54 -32 l-4 -33 -1 33 c-2 32
-3 32 -52 32 l-50 0 0 -60z m200 30 c0 -11 -7 -20 -15 -20 -8 0 -15 -7 -15
-15 0 -8 7 -15 15 -15 8 0 15 -7 15 -15 0 -11 -11 -15 -39 -15 l-39 0 0 50 -1
50 40 0 c32 0 39 -3 39 -20z"/>
<path d="M2380 2172 c0 -4 18 -6 40 -4 l40 4 0 -51 0 -51 -34 0 c-19 0 -36 5
-38 12 -3 7 -7 6 -11 -5 -5 -15 1 -17 43 -17 l50 0 0 60 0 60 -45 0 c-25 0
-45 -3 -45 -8z"/>
<path d="M2089 2117 c-3 -20 -2 -42 2 -48 12 -20 17 5 10 46 l-7 40 -5 -38z"/>
<path d="M2513 2000 c0 -36 2 -50 4 -32 2 17 2 47 0 65 -2 17 -4 3 -4 -33z"/>
<path d="M550 1989 l0 -64 50 3 50 4 0 54 0 54 -34 0 c-19 0 -41 3 -50 6 -14
5 -16 -4 -16 -57z m90 -4 l0 -45 -39 0 -38 0 -1 45 -1 45 39 0 40 0 0 -45z"/>
<path d="M1487 2043 c-8 -7 -10 -107 -3 -114 2 -2 27 -2 55 -1 l51 4 0 53 c0
51 -1 53 -29 57 -17 2 -28 1 -25 -4 3 -4 12 -8 20 -8 10 0 14 -12 14 -45 0
-44 0 -45 -34 -45 -31 0 -34 2 -40 41 -4 26 -2 46 5 55 11 14 -1 20 -14 7z"/>
<path d="M670 1985 l0 -55 45 0 c25 0 45 4 45 10 0 5 -7 7 -15 4 -12 -5 -15 3
-15 39 0 35 4 47 18 50 9 3 -4 5 -30 6 l-48 1 0 -55z m40 0 c0 -33 -4 -45 -15
-45 -11 0 -15 12 -15 45 0 33 4 45 15 45 11 0 15 -12 15 -45z"/>
<path d="M770 1985 l0 -55 165 0 165 0 0 55 0 55 -165 0 -165 0 0 -55z m100 0
l0 -45 -45 0 -45 0 0 45 0 45 45 0 45 0 0 -45z m110 0 l0 -45 -45 0 -45 0 0
45 0 45 45 0 45 0 0 -45z m110 0 l0 -45 -45 0 -45 0 0 45 0 45 45 0 45 0 0
-45z"/>
<path d="M1112 1988 l-2 -58 50 0 50 0 0 55 0 55 -42 -2 -43 -1 38 -4 c37 -4
37 -5 37 -49 l0 -44 -39 0 -40 0 -4 53 -3 52 -2 -57z"/>
<path d="M1220 1985 l0 -55 53 2 52 2 -47 3 -48 4 0 44 0 44 48 4 47 3 -52 2
-53 2 0 -55z"/>
<path d="M1330 1986 l0 -54 51 -4 c28 -1 53 -1 55 1 2 2 4 28 4 58 l0 53 -55
0 -55 0 0 -54z m95 -1 l0 -45 -42 0 -43 0 0 45 0 45 43 0 43 0 -1 -45z"/>
<path d="M1600 1985 l0 -55 45 0 45 0 0 55 0 55 -45 0 -45 0 0 -55z m80 0 c0
-45 0 -45 -35 -45 -35 0 -35 0 -35 45 0 45 0 45 35 45 35 0 35 0 35 -45z"/>
<path d="M1710 1985 l0 -55 45 0 45 0 0 55 0 55 -45 0 -45 0 0 -55z m80 0 c0
-45 0 -45 -35 -45 -35 0 -35 0 -35 45 0 45 0 45 35 45 35 0 35 0 35 -45z"/>
<path d="M1815 1985 l0 -55 48 0 47 0 0 55 0 55 -47 0 -48 0 0 -55z m85 0 c0
-45 0 -45 -35 -45 -35 0 -35 0 -35 45 0 45 0 45 35 45 35 0 35 0 35 -45z"/>
<path d="M1920 1985 l0 -55 50 0 50 0 0 55 0 55 -50 0 -50 0 0 -55z m90 0 l0
-45 -40 0 -40 0 0 45 0 45 40 0 40 0 0 -45z"/>
<path d="M2030 1985 l0 -55 54 0 c51 0 54 1 48 23 -5 18 -7 19 -10 5 -2 -13
-13 -18 -37 -18 -32 0 -33 1 -37 45 l-3 44 50 4 50 3 -57 2 -58 2 0 -55z"/>
<path d="M2150 1985 l0 -55 50 0 50 0 0 55 0 55 -50 0 -50 0 0 -55z m90 0 l0
-45 -40 0 -40 0 0 45 0 45 40 0 40 0 0 -45z"/>
<path d="M2260 1985 l0 -55 50 0 50 0 0 55 0 55 -50 0 -50 0 0 -55z m90 0 l0
-45 -40 0 -40 0 0 45 0 45 40 0 40 0 0 -45z"/>
<path d="M2413 2033 l47 -4 0 -45 c0 -44 0 -44 -34 -44 -34 0 -35 1 -38 43
l-3 42 -5 -47 -5 -48 47 0 48 0 0 55 0 55 -52 -2 -53 -2 48 -3z"/>
<path d="M2946 1962 c-33 -52 -63 -63 -89 -31 -18 23 -19 23 -33 5 -7 -10 -24
-24 -36 -30 -17 -8 -24 -22 -26 -49 -4 -43 14 -49 44 -16 12 13 27 19 41 16
13 -2 29 3 38 13 9 10 31 21 49 24 31 6 34 10 40 53 3 25 4 48 2 51 -3 2 -16
-14 -30 -36z"/>
<path d="M210 1923 c0 -15 8 -20 40 -21 30 -2 40 1 40 13 0 9 -9 15 -24 15
-13 0 -31 3 -40 6 -11 4 -16 0 -16 -13z"/>
<path d="M305 1922 c-3 -7 -5 -14 -5 -15 0 -1 18 -3 40 -4 28 -2 40 1 40 11 0
19 -68 26 -75 8z"/>
<path d="M550 1850 l0 -60 50 0 50 0 0 60 0 60 -50 0 -50 0 0 -60z m90 0 l0
-50 -40 0 -40 0 0 50 0 50 40 0 40 0 0 -50z"/>
<path d="M672 1858 l2 -53 3 48 4 48 42 -3 41 -3 1 -45 0 -45 -50 -6 c-32 -4
-2 -6 83 -7 l132 -2 0 60 0 60 -130 0 -130 0 2 -52z m198 -8 l0 -50 -45 0 -45
0 0 50 0 50 45 0 45 0 0 -50z m50 0 c0 -38 -4 -50 -15 -50 -11 0 -15 12 -15
50 0 38 4 50 15 50 11 0 15 -12 15 -50z"/>
<path d="M940 1850 l0 -60 80 0 80 0 0 60 0 60 -80 0 -80 0 0 -60z m40 0 c0
-38 -4 -50 -15 -50 -11 0 -15 12 -15 50 0 38 4 50 15 50 11 0 15 -12 15 -50z
m110 0 l0 -50 -45 0 -45 0 0 50 0 50 45 0 45 0 0 -50z"/>
<path d="M1110 1850 l0 -60 50 0 50 0 0 60 0 60 -50 0 -50 0 0 -60z m90 0 l0
-50 -40 0 -40 0 0 50 0 50 40 0 40 0 0 -50z"/>
<path d="M1220 1850 l0 -59 110 0 110 0 0 59 0 60 -110 0 -110 0 0 -60z m101
30 c5 -77 3 -80 -46 -80 l-45 0 0 50 0 50 45 0 c38 0 45 -3 46 -20z m109 -30
l0 -50 -45 0 -45 0 0 50 0 50 45 0 45 0 0 -50z"/>
<path d="M1480 1850 l0 -60 55 0 c55 0 55 0 53 29 -1 16 -6 27 -10 24 -5 -2
-6 -13 -3 -24 6 -17 1 -19 -34 -19 l-41 0 0 50 0 50 39 0 c22 0 42 -5 44 -12
3 -8 6 -6 6 5 1 14 -8 17 -54 17 l-55 0 0 -60z"/>
<path d="M1600 1850 l0 -60 50 0 50 0 0 60 0 60 -50 0 -50 0 0 -60z m90 0 l0
-50 -40 0 -40 0 0 50 0 50 40 0 40 0 0 -50z"/>
<path d="M1711 1883 c2 -24 2 -25 6 -5 4 18 11 22 39 22 l34 0 0 -51 0 -51
-40 4 c-22 2 -40 0 -40 -4 0 -5 20 -8 45 -8 l45 0 0 60 0 60 -45 0 c-43 0 -45
-1 -44 -27z"/>
<path d="M1814 1903 c4 -4 25 -6 46 -4 l40 3 0 -51 0 -51 -34 0 c-34 0 -35 1
-38 43 l-3 42 -5 -47 -5 -48 47 0 48 0 0 60 0 60 -52 0 c-28 0 -48 -3 -44 -7z"/>
<path d="M1920 1850 l0 -60 50 0 50 0 0 60 0 60 -50 0 -50 0 0 -60z m90 0 l0
-50 -40 0 -40 0 0 50 0 50 40 0 40 0 0 -50z"/>
<path d="M2030 1850 l0 -60 54 0 c30 0 58 5 61 10 4 6 11 8 16 5 5 -3 6 1 3 9
-5 14 -8 14 -21 1 -8 -8 -32 -15 -54 -15 l-39 0 0 50 0 50 41 0 42 0 -6 -35
c-3 -19 -2 -35 4 -35 5 0 9 18 9 40 l0 40 -55 0 -55 0 0 -60z"/>
<path d="M2151 1878 c2 -31 2 -31 6 -5 4 24 8 27 44 27 l39 0 0 -50 c0 -43 -3
-50 -20 -50 -14 0 -20 7 -20 22 0 16 -3 19 -11 11 -19 -19 -2 -43 31 -43 l30
0 0 60 0 60 -50 0 -50 0 1 -32z"/>
<path d="M2260 1850 l0 -60 50 0 50 0 0 60 0 60 -50 0 -50 0 0 -60z m90 0 l0
-50 -40 0 -40 0 0 50 0 50 40 0 40 0 0 -50z"/>
<path d="M2380 1850 l0 -60 45 0 45 0 0 60 0 60 -45 0 -45 0 0 -60z m80 0 l0
-50 -35 0 -35 0 0 50 0 50 35 0 35 0 0 -50z"/>
<path d="M2810 1751 c-164 -97 -165 -98 -199 -85 -18 8 -35 14 -37 14 -2 0 -4
-94 -4 -208 l0 -209 -38 -41 c-25 -27 -34 -43 -26 -46 7 -3 15 3 17 12 3 9 5
-5 5 -33 0 -43 -2 -46 -8 -20 -9 34 -10 33 -15 -13 -1 -19 -8 -39 -14 -45 -17
-17 -13 -31 4 -17 8 7 15 19 15 26 0 28 19 13 24 -18 17 -112 17 -108 -14
-108 -27 0 -29 3 -33 43 l-4 42 -1 -47 -2 -46 51 -4 c29 -1 59 2 68 9 15 10
17 7 19 -23 2 -19 7 -58 12 -86 6 -28 10 -76 10 -107 1 -31 8 -74 16 -96 8
-22 16 -45 17 -51 2 -6 10 -19 20 -28 9 -9 22 -36 29 -59 7 -23 32 -69 56
-102 40 -55 82 -126 82 -140 0 -3 -16 -5 -35 -5 -30 0 -35 -3 -35 -22 0 -13
-3 -33 -6 -45 -5 -19 -2 -23 15 -23 12 0 20 4 17 9 -3 5 -3 23 0 41 6 26 11
31 33 28 20 -2 32 -15 54 -59 15 -30 29 -77 31 -105 3 -27 5 -52 5 -56 1 -5 9
-8 19 -8 16 0 17 45 17 800 0 575 -3 800 -11 800 -34 0 -78 -32 -147 -107 -43
-47 -76 -87 -73 -91 3 -3 15 7 27 21 11 15 27 27 35 27 8 0 13 4 9 9 -3 6 3
15 14 20 10 6 33 25 50 42 17 17 39 29 48 27 17 -3 18 -25 18 -288 l0 -285
-68 0 c-41 0 -67 -4 -67 -11 0 -12 5 -12 85 -14 l55 -1 -3 -377 c-2 -336 -4
-377 -18 -380 -11 -2 -21 12 -34 45 -21 57 -66 140 -92 168 -30 33 -50 69 -57
103 -4 17 -15 36 -23 41 -9 4 -17 17 -18 27 -5 44 -18 84 -28 84 -8 0 -7 4 0
11 8 8 8 20 3 34 -5 13 -12 51 -16 84 -3 34 -11 61 -16 61 -5 0 -6 5 -2 12 9
15 5 102 -5 106 -3 1 -5 34 -3 72 2 39 1 78 -4 88 -4 9 -6 22 -5 27 2 6 5 24
7 40 10 81 16 101 39 131 14 18 25 37 25 43 0 6 5 11 10 11 6 0 10 6 10 14 0
8 6 21 13 28 6 7 34 40 61 73 l49 60 -59 -57 -60 -58 -67 0 -67 0 0 65 0 65
139 0 c77 0 142 4 145 9 4 5 -55 7 -139 3 l-145 -5 0 27 c0 29 3 31 31 15 23
-12 48 1 229 115 58 36 111 66 118 66 6 0 12 7 12 15 0 8 -1 15 -2 14 -2 0
-77 -44 -168 -98z m-97 -312 c-16 -16 -123 -17 -123 -1 0 8 20 12 67 12 49 0
64 -3 56 -11z m-23 -25 c0 -3 -8 -18 -19 -32 -48 -68 -60 -128 -65 -319 -1
-51 -4 -94 -7 -97 -2 -2 -13 2 -23 10 -14 10 -22 31 -26 68 -5 47 -3 56 15 67
11 7 24 12 28 11 14 -4 2 21 -13 26 -7 3 -10 0 -6 -6 3 -6 2 -13 -4 -17 -6 -4
-10 6 -10 24 0 17 5 31 11 31 6 0 3 7 -6 16 -19 19 -15 35 11 49 16 9 19 19
16 78 -2 42 2 74 9 83 11 13 89 20 89 8z"/>
<path d="M2905 1778 c-84 -50 -153 -126 -138 -150 2 -5 29 19 59 51 48 52 60
60 97 63 38 3 42 6 48 36 8 40 0 40 -66 0z"/>
<path d="M2513 1740 c0 -36 2 -50 4 -32 2 17 2 47 0 65 -2 17 -4 3 -4 -33z"/>
<path d="M550 1720 l0 -60 50 0 c48 0 50 1 49 28 -2 23 -2 24 -6 5 -4 -19 -11
-23 -44 -23 -39 0 -44 5 -33 34 4 11 19 16 45 16 37 0 39 2 39 30 0 29 -1 30
-50 30 l-50 0 0 -60z m90 30 c0 -17 -7 -20 -40 -20 -27 0 -40 4 -40 13 0 21
11 27 47 27 26 0 33 -4 33 -20z"/>
<path d="M670 1719 l0 -59 48 2 47 1 -42 4 -43 4 0 48 0 48 38 -2 c20 -1 40
-3 45 -4 4 0 7 -23 7 -51 l0 -50 165 0 166 0 -3 58 -3 57 -212 2 -213 1 0 -59z
m198 -1 l3 -48 -45 0 -46 0 0 51 0 50 43 -3 42 -3 3 -47z m112 2 l0 -50 -45 0
-45 0 0 50 0 50 45 0 45 0 0 -50z m110 0 l0 -50 -45 0 -45 0 0 50 0 50 45 0
45 0 0 -50z"/>
<path d="M1110 1720 l0 -60 50 0 50 0 0 60 0 60 -50 0 -50 0 0 -60z m90 0 l0
-50 -40 0 -40 0 0 50 0 50 40 0 40 0 0 -50z"/>
<path d="M1220 1719 l0 -59 55 0 c37 0 55 4 56 13 0 6 1 29 1 49 1 42 12 49
62 41 35 -5 36 -7 36 -49 l0 -43 -47 -4 -48 -3 53 -2 52 -2 0 59 0 60 -110 0
-110 0 0 -60z m98 -1 l3 -48 -45 0 -46 0 0 51 0 50 43 -3 42 -3 3 -47z"/>
<path d="M1487 1774 c-4 -4 -7 -32 -7 -61 l0 -54 53 3 52 3 0 55 0 55 -45 3
c-25 2 -49 0 -53 -4z m88 -54 c0 -45 0 -45 -37 -48 l-38 -3 0 45 c0 47 8 56
50 53 23 -2 25 -6 25 -47z"/>
<path d="M1600 1721 l0 -61 50 0 51 0 -3 58 -3 57 -47 3 -48 3 0 -60z m90 -3
l0 -48 -40 0 -40 0 0 49 0 49 40 -1 40 -1 0 -48z"/>
<path d="M1710 1772 c0 -4 18 -6 40 -4 l40 4 0 -51 0 -51 -34 0 c-34 0 -35 1
-39 43 l-4 42 -1 -47 -2 -48 45 0 45 0 0 60 0 60 -45 0 c-25 0 -45 -3 -45 -8z"/>
<path d="M1819 1778 c-1 -2 -3 -29 -5 -60 l-4 -58 50 0 50 0 0 60 0 60 -45 0
c-25 0 -45 -1 -46 -2z m81 -58 l0 -50 -39 0 -39 0 4 48 c2 26 3 48 4 50 0 1
16 2 35 2 l35 0 0 -50z"/>
<path d="M1920 1720 l0 -60 50 0 50 0 0 60 0 60 -50 0 -50 0 0 -60z m90 0 l0
-50 -40 0 -40 0 0 50 0 50 40 0 40 0 0 -50z"/>
<path d="M2037 1774 c-4 -4 -7 -31 -7 -61 l0 -53 55 0 56 0 -3 58 -3 57 -45 3
c-25 2 -49 0 -53 -4z m89 -56 l2 -48 -44 0 -44 0 0 43 c0 53 5 59 49 55 35 -3
35 -4 37 -50z"/>
<path d="M2150 1720 l0 -60 50 0 50 0 0 60 0 60 -50 0 -50 0 0 -60z m90 0 l0
-50 -40 0 -40 0 0 50 0 50 40 0 40 0 0 -50z"/>
<path d="M2267 1773 c-4 -3 -7 -30 -7 -60 l0 -53 50 0 50 0 0 60 0 60 -43 0
c-24 0 -47 -3 -50 -7z m83 -55 l0 -48 -40 0 -40 0 0 49 0 50 40 -2 40 -1 0
-48z"/>
<path d="M2380 1720 l0 -60 45 0 45 0 0 60 0 60 -45 0 -45 0 0 -60z m68 40 c8
0 12 -16 12 -45 0 -45 0 -45 -35 -45 l-35 0 0 51 c0 48 1 51 23 45 12 -3 28
-6 35 -6z"/>
<path d="M475 1720 c24 -6 26 -8 8 -9 -13 0 -23 -7 -23 -16 0 -9 10 -15 23
-16 18 -1 17 -2 -7 -9 -16 -5 -56 -8 -88 -5 -44 3 -58 0 -58 -10 0 -8 8 -14
18 -14 9 0 38 -1 65 -2 l47 -1 0 -52 0 -53 -51 -2 c-29 -1 -56 -4 -60 -7 -5
-3 -9 0 -9 5 0 6 -5 11 -11 11 -6 0 -9 -7 -7 -17 2 -13 17 -16 79 -17 l75 -1
-4 78 c-4 72 -3 77 16 77 16 0 20 7 20 35 0 33 -2 35 -31 34 l-32 -1 30 -8z"/>
<path d="M2513 1610 c0 -36 2 -50 4 -32 2 17 2 47 0 65 -2 17 -4 3 -4 -33z"/>
<path d="M486 1643 c-3 -3 -6 -30 -6 -60 0 -40 4 -53 15 -53 11 0 15 13 15 54
0 51 -9 74 -24 59z"/>
<path d="M550 1590 l0 -60 50 0 50 0 0 60 0 60 -50 0 -50 0 0 -60z m90 0 l0
-50 -40 0 -40 0 0 43 c0 52 4 57 47 57 33 0 33 0 33 -50z"/>
<path d="M670 1589 l0 -59 215 0 215 0 0 59 0 59 -215 0 -215 0 0 -59z m83 44
c3 -5 7 -26 9 -48 l3 -40 -42 -3 -43 -3 0 50 0 51 34 0 c19 0 37 -3 39 -7z
m115 -45 l3 -48 -45 0 -46 0 0 51 0 50 43 -3 42 -3 3 -47z m112 2 l0 -50 -45
0 -45 0 0 50 0 50 45 0 45 0 0 -50z m110 0 l0 -50 -45 0 -45 0 0 50 0 50 45 0
45 0 0 -50z"/>
<path d="M1110 1590 l0 -60 50 0 50 0 0 60 0 60 -50 0 -50 0 0 -60z m90 0 l0
-50 -40 0 -40 0 0 50 0 50 40 0 40 0 0 -50z"/>
<path d="M1220 1590 l0 -60 53 2 52 2 -47 3 -48 4 0 51 0 50 45 -4 c25 -2 45
0 45 4 0 5 -22 8 -50 8 l-50 0 0 -60z"/>
<path d="M1337 1643 c-4 -3 -7 -30 -7 -60 l0 -53 55 0 55 0 0 60 0 60 -48 0
c-27 0 -52 -3 -55 -7z m91 -55 l3 -48 -45 0 -46 0 0 51 0 50 43 -3 42 -3 3
-47z"/>
<path d="M1480 1591 l0 -61 55 0 56 0 -3 58 -3 57 -52 3 -53 3 0 -60z m98 -3
l3 -48 -40 0 -41 0 0 43 c0 52 5 59 45 55 28 -3 30 -6 33 -50z"/>
<path d="M1600 1591 l0 -61 50 0 51 0 -3 58 -3 57 -47 3 -48 3 0 -60z m90 -1
l0 -50 -40 0 -40 0 0 50 0 50 40 0 40 0 0 -50z"/>
<path d="M1712 1608 l1 -43 4 38 c3 28 9 37 23 37 40 0 50 -11 50 -55 l0 -44
-42 -4 -43 -4 48 -1 47 -2 0 60 0 60 -45 0 -45 0 2 -42z"/>
<path d="M1817 1643 c-4 -3 -7 -30 -7 -60 l0 -53 50 0 50 0 0 60 0 60 -43 0
c-24 0 -47 -3 -50 -7z m83 -53 l0 -50 -40 0 -40 0 0 43 c0 52 4 57 47 57 33 0
33 0 33 -50z"/>
<path d="M1920 1590 l0 -60 50 0 50 0 0 60 0 60 -50 0 -50 0 0 -60z m90 0 l0
-50 -40 0 -40 0 0 50 0 50 40 0 40 0 0 -50z"/>
<path d="M2037 1643 c-4 -3 -7 -30 -7 -60 0 -52 1 -53 28 -52 24 2 24 2 4 6
-21 4 -23 9 -20 51 3 46 3 47 41 50 35 3 37 2 37 -27 0 -16 5 -33 12 -37 8 -5
9 -2 5 10 -4 10 -7 29 -7 42 0 22 -4 24 -43 24 -24 0 -47 -3 -50 -7z"/>
<path d="M2150 1590 l0 -60 50 0 50 0 0 60 0 60 -50 0 -50 0 0 -60z m90 0 l0
-50 -40 0 -40 0 0 50 0 50 40 0 40 0 0 -50z"/>
<path d="M2260 1590 l0 -60 50 0 50 0 0 60 0 60 -50 0 -50 0 0 -60z m90 0 l0
-50 -40 0 -40 0 0 50 0 50 40 0 40 0 0 -50z"/>
<path d="M2376 1641 c-3 -5 15 -6 39 -3 45 5 45 5 45 -27 0 -19 -4 -30 -10
-26 -5 3 -10 0 -10 -8 0 -7 7 -14 15 -14 11 0 15 12 15 44 l0 43 -44 0 c-25 0
-47 -4 -50 -9z"/>
<path d="M2415 1540 l-50 -7 53 -1 c29 -1 52 2 52 8 0 6 -1 9 -2 8 -2 0 -25
-4 -53 -8z"/>
<path d="M2513 1480 c0 -36 2 -50 4 -32 2 17 2 47 0 65 -2 17 -4 3 -4 -33z"/>
<path d="M490 1460 c0 -33 -1 -60 -2 -60 -68 -10 -118 -10 -118 -1 0 6 -4 11
-10 11 -5 0 -10 -9 -10 -20 0 -19 20 -26 59 -20 8 1 29 -1 48 -5 32 -6 33 -8
33 -50 0 -57 -18 -59 -23 -2 -3 40 -4 39 -5 -11 -2 -45 -5 -54 -24 -61 -13 -5
-25 -6 -28 -2 -3 3 -13 7 -22 9 -12 2 -18 -4 -18 -17 0 -15 6 -19 30 -19 17 1
30 6 30 12 0 6 4 5 9 -3 11 -17 34 -4 27 15 -4 10 2 14 20 14 24 0 25 2 22 63
-2 39 -7 62 -15 62 -6 0 -15 3 -19 8 -4 4 2 7 14 7 20 0 22 5 22 65 0 37 -4
65 -10 65 -6 0 -10 -27 -10 -60z"/>
<path d="M550 1455 l0 -65 50 0 50 0 0 65 c0 51 -3 65 -15 65 -8 0 -15 -4 -15
-10 0 -5 5 -10 10 -10 6 0 10 -22 10 -50 l0 -50 -38 0 -38 0 -1 50 c0 46 2 50
23 50 13 0 24 5 24 10 0 6 -13 10 -30 10 l-30 0 0 -65z"/>
<path d="M670 1454 l0 -64 110 0 110 0 0 61 0 60 43 -3 42 -3 3 -52 3 -52 -43
-4 c-24 -2 3 -4 60 -5 l103 -2 -3 63 -3 62 -40 1 -40 1 38 -4 37 -4 0 -55 0
-54 -46 0 -46 0 4 58 3 58 -167 2 -168 1 0 -65z m88 -1 l3 -53 -40 0 -41 0 0
56 0 55 38 -3 37 -3 3 -52z m110 0 l3 -53 -45 0 -46 0 0 56 0 55 43 -3 42 -3
3 -52z"/>
<path d="M1112 1453 l2 -68 3 63 4 62 39 0 39 0 4 -62 3 -63 2 68 2 67 -50 0
-50 0 2 -67z"/>
<path d="M1226 1513 c-3 -4 -6 -33 -6 -65 l0 -58 56 0 c48 0 55 2 50 16 -4 9
-2 22 3 28 5 6 11 25 13 41 3 26 7 30 33 31 17 1 35 -1 41 -3 15 -5 10 -66 -5
-71 -6 -2 -11 -9 -11 -15 0 -5 3 -7 7 -4 3 4 11 0 17 -8 8 -12 12 0 14 49 l3
65 -105 0 c-57 0 -107 -3 -110 -6z m93 -12 c10 -6 11 -13 2 -29 -6 -11 -11
-32 -11 -46 0 -24 -4 -26 -40 -26 l-40 0 0 55 0 55 38 0 c20 0 43 -4 51 -9z"/>
<path d="M1487 1514 c-10 -11 -9 -56 2 -50 5 3 11 -4 14 -15 3 -12 10 -18 16
-14 16 9 13 35 -4 35 -8 0 -15 7 -15 15 0 11 11 15 39 15 l40 0 -2 -55 c-2
-30 1 -55 6 -55 4 0 7 28 5 63 l-3 62 -45 3 c-25 2 -49 0 -53 -4z"/>
<path d="M1600 1456 l0 -66 100 0 100 0 0 65 0 65 -37 -2 c-37 -1 -37 -1 -5
-5 32 -4 32 -5 32 -59 l0 -54 -46 0 -47 0 6 43 c2 23 8 49 11 57 5 13 -5 16
-54 18 l-60 3 0 -65z m90 -1 l0 -55 -40 0 -40 0 0 55 0 55 40 0 40 0 0 -55z"/>
<path d="M1819 1518 c0 -2 -3 -31 -6 -65 l-5 -63 51 0 51 0 0 65 c0 65 0 65
-27 64 -24 -2 -25 -2 -5 -6 20 -4 22 -10 22 -59 l0 -54 -40 0 c-39 0 -40 1
-40 34 0 24 5 35 17 38 15 3 15 4 0 19 -9 9 -13 19 -10 23 4 3 3 6 0 6 -4 0
-7 -1 -8 -2z"/>
<path d="M1924 1506 c-3 -8 -4 -25 -1 -38 3 -18 5 -16 6 8 1 30 3 32 41 32
l40 1 0 -56 0 -55 -45 4 c-25 2 -45 0 -45 -4 0 -5 23 -8 50 -8 l50 0 0 65 0
65 -45 0 c-30 0 -47 -5 -51 -14z"/>
<path d="M2037 1513 c-4 -3 -7 -33 -7 -65 l0 -58 50 0 50 0 0 65 0 65 -43 0
c-24 0 -47 -3 -50 -7z m83 -60 l0 -53 -40 0 -40 0 0 48 c0 27 3 52 7 55 3 4
21 6 40 4 33 -2 33 -2 33 -54z"/>
<path d="M2150 1456 l0 -66 50 0 51 0 -3 63 -3 62 -47 3 -48 3 0 -65z m90 -1
l0 -55 -40 0 -40 0 0 55 0 55 40 0 40 0 0 -55z"/>
<path d="M2260 1455 c0 -36 3 -65 8 -65 4 0 6 26 4 59 l-4 59 46 -2 c25 -1 46
2 46 6 0 5 -22 8 -50 8 l-50 0 0 -65z"/>
<path d="M2377 1513 c-4 -3 -7 -33 -7 -65 l0 -58 50 0 50 0 0 65 0 65 -43 0
c-24 0 -47 -3 -50 -7z m83 -59 l0 -54 -40 0 -40 0 0 48 c0 27 3 51 6 54 3 3
21 6 40 6 l34 0 0 -54z"/>
<path d="M2513 1355 c0 -33 2 -45 4 -27 2 18 2 45 0 60 -2 15 -4 0 -4 -33z"/>
<path d="M550 1315 l0 -65 50 0 50 0 0 60 c0 33 -3 60 -7 60 -5 0 -6 -22 -5
-50 l4 -50 -35 0 c-38 0 -47 12 -47 61 0 26 3 29 32 29 38 0 34 5 -9 13 l-33
7 0 -65z"/>
<path d="M1398 1373 l-58 -4 0 -149 0 -150 115 0 115 0 0 150 0 150 -37 0
c-21 0 -47 2 -58 3 -11 2 -46 2 -77 0z m149 -68 c1 -22 5 -45 7 -50 2 -6 -2
-19 -10 -30 -11 -15 -14 -16 -14 -3 0 11 -7 14 -25 10 -14 -2 -25 -11 -25 -18
0 -17 30 -19 31 -1 0 10 2 10 6 0 2 -7 13 -13 23 -13 16 0 18 -6 14 -37 -9
-65 -7 -63 -98 -63 -78 0 -84 1 -90 23 -12 47 -7 77 14 77 11 0 20 6 20 13 0
8 4 7 10 -3 8 -13 10 -12 10 4 0 14 -6 17 -28 14 -32 -5 -34 0 -25 75 l5 48
86 -3 85 -3 4 -40z"/>
<path d="M1390 1289 c0 -11 5 -17 10 -14 6 4 8 11 5 16 -4 5 4 7 17 5 13 -3
25 -5 28 -5 3 -1 -1 -5 -8 -10 -10 -6 -7 -10 12 -13 18 -4 26 -1 26 8 0 8 5
14 11 14 5 0 7 -4 4 -10 -3 -5 1 -10 10 -10 9 0 15 6 13 13 -6 15 -48 22 -48
7 0 -7 -6 -5 -16 4 -23 24 -64 21 -64 -5z"/>
<path d="M1974 1372 c4 -7 14 -12 22 -12 10 0 14 -12 14 -45 l0 -45 -39 0
c-37 0 -40 2 -44 33 -3 28 -4 26 -5 -10 l-2 -43 50 0 50 0 0 60 c0 33 -4 60
-9 60 -5 0 -17 3 -27 7 -12 4 -15 3 -10 -5z"/>
<path d="M2153 1313 c-3 -61 -2 -63 21 -63 27 0 59 26 51 41 -10 16 -25 10
-25 -10 0 -14 -5 -18 -20 -14 -22 6 -26 34 -8 62 9 15 9 22 -3 33 -12 12 -14
6 -16 -49z"/>
<path d="M2184 1372 c4 -7 19 -12 33 -12 24 0 25 -2 21 -55 -1 -30 0 -55 5
-55 4 0 7 27 7 60 0 52 -2 60 -19 60 -11 0 -27 3 -37 7 -12 4 -15 3 -10 -5z"/>
<path d="M668 1314 c-1 -31 -1 -58 1 -60 10 -10 158 -3 169 8 15 15 16 38 2
38 -5 0 -10 -9 -10 -21 0 -15 -4 -19 -16 -15 -9 3 -20 6 -25 6 -5 0 -9 23 -9
50 l0 50 -54 0 -54 0 -4 -56z m92 1 l0 -45 -40 0 -40 0 0 45 0 45 40 0 40 0 0
-45z"/>
<path d="M867 1363 c9 -3 10 -10 3 -24 -7 -11 -7 -19 -1 -19 11 0 3 -39 -12
-57 -13 -17 74 -18 91 -1 15 15 16 38 2 38 -5 0 -10 -9 -10 -21 0 -15 -4 -19
-16 -15 -9 3 -20 6 -25 6 -5 0 -9 23 -9 50 0 41 -3 50 -17 49 -11 0 -13 -3 -6
-6z"/>
<path d="M978 1325 c3 -26 -1 -52 -8 -60 -11 -13 -7 -15 26 -15 35 1 37 2 22
14 -13 9 -18 27 -18 60 0 30 -4 46 -13 46 -8 0 -11 -14 -9 -45z"/>
<path d="M1092 1326 c-1 -33 -8 -53 -19 -62 -16 -11 -7 -13 60 -14 l77 0 -2
63 -2 62 -3 -55 -4 -55 -39 3 -40 4 -2 52 -1 51 -7 -50 -6 -50 -5 50 -5 50 -2
-49z"/>
<path d="M1222 1313 c-2 -64 8 -79 36 -51 15 15 16 38 2 38 -5 0 -10 -9 -10
-20 0 -11 -4 -20 -10 -20 -5 0 -11 26 -13 58 l-3 57 -2 -62z"/>
<path d="M1600 1310 l0 -60 93 0 c50 0 87 4 81 8 -7 4 -14 16 -17 27 -4 18 -5
18 -6 -2 0 -13 -7 -23 -15 -23 -9 0 -12 7 -9 20 3 11 1 20 -5 20 -6 0 -12 -8
-15 -17 -2 -10 -4 3 -4 30 l1 47 42 0 c39 0 43 -2 47 -27 4 -26 4 -26 6 5 l1
32 -55 0 -55 0 0 -50 0 -50 -40 0 -40 0 0 44 c0 44 0 45 38 49 l37 4 -42 1
-43 2 0 -60z"/>
<path d="M1810 1310 l0 -60 50 0 50 0 0 60 0 60 -50 0 -50 0 0 -60z m90 5 l0
-45 -40 0 -40 0 0 45 0 45 40 0 40 0 0 -45z"/>
<path d="M2030 1309 l0 -60 51 3 51 3 4 58 c4 42 1 57 -8 57 -9 0 -12 -15 -10
-53 l4 -53 -42 4 -42 4 4 49 c1 27 0 49 -4 49 -5 0 -8 -27 -8 -61z"/>
<path d="M2453 1354 c-5 -13 -7 -13 -14 -2 -7 10 -9 9 -9 -4 0 -10 6 -18 14
-18 8 0 17 -6 19 -12 3 -7 4 2 4 19 -2 37 -5 40 -14 17z"/>
<path d="M195 1232 c-8 -21 -7 -22 24 -22 23 0 28 4 24 18 -5 21 -40 24 -48 4z"/>
<path d="M260 1230 c0 -11 6 -20 14 -20 18 0 27 13 18 25 -13 18 -32 15 -32
-5z"/>
<path d="M310 1230 c0 -13 7 -20 20 -20 13 0 20 7 20 20 0 13 -7 20 -20 20
-13 0 -20 -7 -20 -20z"/>
<path d="M460 1148 l5 -53 3 48 c4 66 22 59 22 -9 l0 -56 -65 4 c-40 2 -65 0
-65 -7 0 -5 -5 -3 -11 5 -8 13 -10 12 -7 -4 2 -15 12 -20 48 -21 25 -1 48 3
52 9 5 8 8 7 8 -1 0 -7 9 -13 20 -13 12 0 20 -7 20 -16 0 -10 -6 -14 -15 -11
-8 4 -17 2 -20 -3 -4 -6 7 -10 24 -10 26 0 31 4 31 24 0 18 -7 26 -22 29 l-23
4 23 2 c20 1 22 6 22 66 0 64 0 65 -27 65 -28 0 -28 -1 -23 -52z"/>
<path d="M550 1070 l0 -130 50 0 50 0 0 130 0 130 -50 0 -50 0 0 -130z m80
114 c-12 -4 -15 -14 -12 -39 2 -19 7 -35 11 -35 4 0 7 -9 8 -20 1 -11 -2 -18
-7 -15 -4 3 -10 -2 -14 -10 -3 -9 0 -15 9 -15 8 0 15 -8 15 -17 0 -15 -2 -16
-10 -3 -8 12 -10 9 -10 -12 0 -14 -3 -33 -6 -41 -3 -10 2 -17 13 -20 10 -3 1
-5 -19 -6 -34 -1 -38 2 -38 24 0 14 6 25 13 25 9 0 13 20 13 70 0 39 -3 70 -7
70 -12 0 -17 -48 -9 -89 5 -31 4 -38 -7 -34 -14 6 -17 70 -7 136 6 35 8 37 43
36 20 -1 29 -3 21 -5z"/>
<path d="M668 1135 l4 -65 44 0 c24 0 44 3 44 8 0 4 -18 6 -40 4 l-40 -4 0 56
0 56 35 0 c35 0 35 0 37 -47 l1 -48 7 50 7 50 1 -62 2 -63 50 0 c28 0 50 3 50
8 0 4 -20 6 -45 4 l-45 -4 0 56 0 56 40 0 40 0 2 -47 1 -48 6 45 5 45 5 -55 6
-55 44 -3 c24 -2 48 1 52 5 5 5 11 28 14 52 7 58 10 61 56 61 l39 0 0 -54 0
-55 -47 -4 -48 -3 52 -2 52 -2 4 53 3 52 2 -52 2 -53 50 0 50 0 0 65 c0 63 -1
65 -25 65 -16 0 -25 -6 -25 -15 0 -8 5 -15 10 -15 6 0 10 5 10 10 0 6 5 10 10
10 11 0 14 -33 3 -43 -3 -4 -12 -2 -19 4 -11 9 -15 7 -20 -5 -9 -23 1 -30 25
-16 19 10 21 8 21 -20 0 -28 -2 -30 -41 -30 l-40 0 1 48 c3 73 2 80 -10 62 -6
-10 -10 -11 -10 -2 0 8 -21 12 -71 12 -56 0 -69 -3 -62 -12 5 -7 10 -34 11
-60 l2 -48 -45 0 -45 0 0 55 c0 51 2 55 24 55 16 0 23 -5 22 -16 0 -9 5 -19
12 -21 6 -3 12 2 12 9 0 32 -23 38 -160 38 l-135 0 3 -65z"/>
<path d="M1220 1135 l0 -65 50 0 c28 0 50 3 50 8 0 4 -20 6 -45 4 l-45 -4 0
55 0 56 48 4 47 3 -52 2 -53 2 0 -65z"/>
<path d="M1644 1140 c1 -59 2 -60 29 -60 23 0 27 4 27 30 0 17 -4 30 -9 30 -4
0 -6 -11 -3 -25 3 -18 0 -25 -12 -25 -24 0 -21 56 3 69 22 12 31 -2 31 -50 0
-28 2 -29 45 -29 l45 0 0 60 c0 33 -4 60 -9 60 -12 0 -21 -39 -10 -46 5 -3 9
-18 9 -35 0 -27 -3 -29 -35 -29 -34 0 -35 1 -35 40 0 22 -1 43 -2 48 -1 4 6 8
15 10 11 2 15 -1 11 -11 -3 -8 -1 -18 4 -21 5 -3 9 5 8 17 -1 16 -8 23 -28 25
-16 2 -28 -1 -28 -7 0 -6 -9 -15 -21 -21 -17 -10 -20 -9 -17 6 2 9 -2 19 -8
21 -7 2 -10 -18 -10 -57z"/>
<path d="M1818 1140 l4 -60 44 0 44 0 0 60 0 60 -47 0 -48 0 3 -60z m82 0 l0
-50 -35 0 -35 0 0 50 0 50 35 0 35 0 0 -50z"/>
<path d="M1920 1140 l0 -60 50 0 50 0 0 40 c0 29 4 40 15 40 9 0 12 6 9 15 -4
8 -10 12 -15 9 -5 -3 -9 0 -9 5 0 6 -21 11 -50 11 l-50 0 0 -60z m90 0 l0 -50
-40 0 -40 0 0 50 0 50 40 0 40 0 0 -50z"/>
<path d="M2112 1188 c-15 -15 -16 -38 -2 -38 6 0 10 -13 10 -30 0 -28 -3 -30
-35 -30 -31 0 -35 3 -35 27 0 31 -5 28 -14 -9 -6 -28 -6 -28 45 -28 l52 0 -7
55 c-3 31 -2 55 3 55 13 0 21 -26 21 -71 l0 -39 50 0 50 0 0 60 0 60 -63 0
c-36 0 -68 -5 -75 -12z m128 -48 l0 -50 -40 0 -40 0 0 50 0 50 40 0 40 0 0
-50z"/>
<path d="M2260 1140 l0 -60 50 0 50 0 -2 63 -2 62 -3 -57 -4 -58 -39 0 -40 0
0 50 c0 43 3 50 20 50 11 0 20 -7 20 -15 0 -15 12 -20 23 -9 14 15 -8 34 -39
34 l-34 0 0 -60z"/>
<path d="M2450 1191 c0 -6 9 -28 20 -48 19 -37 20 -37 20 -10 0 15 -4 27 -10
27 -5 0 -10 6 -10 14 0 8 -4 18 -10 21 -5 3 -10 1 -10 -4z"/>
<path d="M2410 1145 c-10 -12 -16 -13 -26 -4 -11 9 -14 8 -14 -4 0 -9 10 -17
23 -19 14 -2 21 -9 21 -21 -1 -12 6 -17 27 -17 26 0 29 4 29 30 0 20 -5 30
-15 30 -8 0 -15 -7 -15 -15 0 -8 5 -15 10 -15 6 0 10 -4 10 -10 0 -5 -7 -10
-15 -10 -16 0 -31 43 -20 59 9 16 -1 13 -15 -4z"/>
<path d="M1619 1118 l-1 -33 -8 30 -8 30 -1 -32 c-1 -23 4 -33 14 -33 10 0 15
11 15 35 0 44 -10 46 -11 3z"/>
<path d="M155 1072 c-3 -7 -5 -14 -5 -15 0 -2 18 -2 40 -2 50 0 54 21 5 27
-23 3 -36 -1 -40 -10z"/>
<path d="M240 1074 c0 -8 6 -14 13 -15 6 0 27 -2 45 -3 22 -3 32 1 32 10 0 8
-11 14 -27 15 -16 0 -36 2 -45 4 -10 2 -18 -3 -18 -11z"/>
<path d="M708 1053 l42 -4 0 -51 0 -50 -40 4 c-22 2 -40 0 -40 -4 0 -5 20 -8
45 -8 l45 0 0 60 0 60 -47 -2 -48 -1 43 -4z"/>
<path d="M770 1000 l0 -60 53 2 52 2 -47 3 -48 4 0 51 0 50 45 -4 c25 -2 45 0
45 4 0 5 -22 8 -50 8 l-50 0 0 -60z"/>
<path d="M880 1000 l0 -60 110 0 110 0 0 60 0 60 -110 0 -110 0 0 -60z m100 0
l0 -50 -45 0 -45 0 0 50 0 50 45 0 45 0 0 -50z m110 0 l0 -50 -45 0 -45 0 0
50 0 50 45 0 45 0 0 -50z"/>
<path d="M1110 1000 l0 -60 50 0 50 0 0 60 0 60 -50 0 -50 0 0 -60z m90 0 l0
-50 -40 0 -40 0 0 50 0 50 40 0 40 0 0 -50z"/>
<path d="M1220 1035 c0 -24 3 -25 53 -23 l52 2 -47 3 c-35 3 -48 8 -48 20 0
12 10 14 45 11 25 -2 45 0 45 4 0 5 -22 8 -50 8 -47 0 -50 -2 -50 -25z"/>
<path d="M1336 1051 c-4 -5 2 -7 13 -4 13 3 20 -2 24 -18 5 -18 9 -20 21 -10
11 9 15 9 19 -1 3 -7 6 -2 6 11 1 13 4 22 7 19 3 -4 2 -27 -1 -52 -7 -45 -8
-46 -46 -46 -36 0 -38 1 -42 38 l-4 37 1 -40 1 -40 53 -3 52 -3 0 60 c0 64
-11 76 -36 44 -13 -17 -15 -17 -25 0 -11 18 -34 23 -43 8z"/>
<path d="M1600 1000 l0 -60 45 0 45 0 0 60 0 60 -45 0 -45 0 0 -60z m80 0 l0
-50 -35 0 -35 0 0 50 0 50 35 0 35 0 0 -50z"/>
<path d="M1710 1000 l0 -60 45 0 45 0 0 60 0 60 -45 0 -45 0 0 -60z m80 0 l0
-50 -35 0 -35 0 0 50 0 50 35 0 35 0 0 -50z"/>
<path d="M1814 1000 l1 -60 48 0 47 0 0 60 0 60 -48 0 -48 0 0 -60z m86 0 l0
-50 -35 0 -35 0 0 50 0 50 35 0 35 0 0 -50z"/>
<path d="M1920 1000 l0 -60 50 0 50 0 0 60 0 60 -50 0 -50 0 0 -60z m90 0 l0
-50 -40 0 -40 0 0 50 0 50 40 0 40 0 0 -50z"/>
<path d="M2030 1000 l0 -60 50 0 50 0 0 60 0 60 -50 0 -50 0 0 -60z m90 0 l0
-50 -40 0 -40 0 0 43 c0 52 4 57 47 57 33 0 33 0 33 -50z"/>
<path d="M2150 1000 l0 -60 50 0 50 0 0 60 0 60 -50 0 -50 0 0 -60z m90 0 l0
-50 -40 0 -40 0 0 50 0 50 40 0 40 0 0 -50z"/>
<path d="M2260 1000 l0 -60 50 0 50 0 0 60 0 60 -50 0 -50 0 0 -60z m90 0 l0
-50 -40 0 -40 0 0 50 0 50 40 0 40 0 0 -50z"/>
<path d="M2371 1000 l2 -60 48 0 49 0 0 60 0 60 -50 0 -51 0 2 -60z m89 0 l0
-50 -35 0 -35 0 0 50 0 50 35 0 35 0 0 -50z"/>
<path d="M1580 985 c0 -34 -1 -35 -40 -35 -38 0 -40 2 -40 30 0 17 -4 30 -10
30 -5 0 -10 -16 -10 -35 l0 -35 55 0 55 0 0 40 c0 22 -2 40 -5 40 -3 0 -5 -16
-5 -35z"/>
<path d="M458 978 c5 -19 7 -20 10 -5 2 9 8 17 13 17 14 0 11 -40 -3 -41 -98
-8 -143 -7 -154 2 -11 9 -15 7 -20 -5 -4 -9 -5 -19 -2 -21 2 -2 45 -5 96 -6
l92 -1 0 -48 c0 -48 0 -48 -37 -52 -21 -3 -54 -1 -75 2 -32 6 -38 5 -38 -10 0
-20 41 -32 62 -19 7 5 16 3 20 -4 5 -7 8 -8 8 -1 0 6 13 9 30 6 29 -4 30 -7
30 -53 0 -47 -1 -48 -32 -53 -57 -8 -208 -4 -208 6 0 5 -5 6 -10 3 -14 -9 -12
-31 3 -33 6 0 58 -1 115 -2 l102 -2 0 -58 0 -57 -40 3 c-30 3 -40 0 -40 -11 0
-11 11 -15 40 -15 l40 0 0 -56 c0 -46 -3 -55 -15 -50 -8 3 -15 2 -15 -2 0 -5
-26 -5 -57 -2 -37 5 -61 3 -65 -4 -11 -17 -2 -19 63 -17 33 1 75 -1 92 -4 31
-6 32 -8 32 -55 l0 -49 -40 -6 c-22 -3 -50 -4 -62 -1 -15 3 -23 0 -23 -9 0
-18 17 -22 79 -18 51 3 53 2 47 -19 -3 -13 -6 -35 -6 -50 0 -44 -18 -32 -23
15 -3 35 -4 32 -5 -18 -2 -46 -5 -56 -14 -47 -17 17 -26 15 -38 -8 -10 -19 -9
-21 17 -18 27 3 28 1 31 -50 3 -48 5 -52 28 -52 22 0 24 4 24 50 0 43 -3 50
-20 50 -11 0 -20 7 -20 15 0 8 9 15 20 15 18 0 20 7 20 64 0 59 -2 65 -22 69
l-23 4 23 2 c20 1 22 6 22 67 0 61 -1 65 -20 59 -11 -4 -20 -2 -20 4 0 6 9 11
20 11 18 0 20 7 20 55 0 48 -2 55 -20 55 -18 0 -20 7 -20 65 0 51 3 65 15 65
11 0 15 -12 15 -50 0 -29 -5 -50 -11 -50 -5 0 -7 -5 -4 -10 14 -23 25 4 25 61
0 52 -2 59 -20 59 -11 0 -20 5 -20 10 0 6 9 10 20 10 18 0 20 7 20 59 0 48 -3
60 -17 64 -17 4 -17 5 0 6 14 1 17 11 17 60 0 54 -2 60 -22 64 l-23 4 23 2
c18 1 22 7 22 31 0 26 -3 30 -29 30 -25 0 -28 -3 -23 -22z m42 -513 c0 -33 -4
-45 -15 -45 -11 0 -15 12 -15 45 0 33 4 45 15 45 11 0 15 -12 15 -45z m-5
-417 c0 -17 -6 -33 -12 -35 -9 -3 -13 7 -13 31 0 23 5 36 13 36 8 0 13 -12 12
-32z"/>
<path d="M2740 985 c0 -10 10 -15 30 -15 35 0 40 15 8 24 -34 9 -38 8 -38 -9z"/>
<path d="M1220 965 c0 -23 3 -25 50 -25 47 0 50 2 50 25 0 23 -3 25 -50 25
-47 0 -50 -2 -50 -25z m90 0 c0 -11 -11 -15 -40 -15 -29 0 -40 4 -40 15 0 11
11 15 40 15 29 0 40 -4 40 -15z"/>
<path d="M550 870 l0 -60 50 0 50 0 0 60 0 60 -50 0 -50 0 0 -60z m90 0 l0
-50 -40 0 -40 0 0 50 0 50 40 0 40 0 0 -50z"/>
<path d="M667 923 c-4 -3 -7 -30 -7 -60 l0 -53 50 0 50 0 0 60 0 60 -43 0
c-24 0 -47 -3 -50 -7z m83 -53 l0 -50 -40 0 -40 0 0 43 c0 52 4 57 47 57 l33
0 0 -50z"/>
<path d="M770 870 l0 -60 53 2 52 2 -47 3 -48 4 0 51 0 50 45 -4 c25 -2 45 0
45 4 0 5 -22 8 -50 8 l-50 0 0 -60z"/>
<path d="M880 870 l0 -60 110 0 110 0 0 60 0 59 -110 0 -110 0 0 -59z m98 -2
l3 -48 -45 0 -46 0 0 51 0 50 43 -3 42 -3 3 -47z m112 2 l0 -50 -45 0 -45 0 0
50 0 50 45 0 45 0 0 -50z"/>
<path d="M1110 870 l0 -60 50 0 50 0 0 60 0 60 -50 0 -50 0 0 -60z m90 0 l0
-50 -40 0 -40 0 0 50 0 50 40 0 40 0 0 -50z"/>
<path d="M1220 870 l0 -60 50 0 50 0 0 60 0 60 -50 0 -50 0 0 -60z m90 0 l0
-50 -40 0 -40 0 0 50 0 50 40 0 40 0 0 -50z"/>
<path d="M1330 870 l0 -60 55 0 55 0 0 43 c0 31 -3 38 -10 27 -5 -8 -10 -25
-10 -37 0 -20 -5 -23 -40 -23 l-40 0 0 49 0 49 38 0 c20 0 43 -5 50 -10 9 -8
12 -6 12 6 0 13 -11 16 -55 16 l-55 0 0 -60z"/>
<path d="M1481 805 l0 -125 24 0 c24 0 25 3 25 60 0 50 -3 60 -17 62 -10 0 2
4 27 8 l45 7 -42 1 -43 2 0 50 0 50 35 0 c34 0 35 -1 36 -42 l2 -43 6 40 c4
22 5 43 3 48 -2 4 -25 7 -52 7 l-49 0 0 -125z m39 -65 c0 -69 -24 -69 -26 0
-1 37 2 50 12 50 10 0 14 -14 14 -50z"/>
<path d="M1600 870 l0 -60 45 0 45 0 0 60 0 60 -45 0 -45 0 0 -60z m80 0 l0
-50 -35 0 -35 0 0 50 0 50 35 0 35 0 0 -50z"/>
<path d="M1710 870 l0 -60 45 0 45 0 0 60 0 60 -45 0 -45 0 0 -60z m80 0 l0
-50 -35 0 -35 0 0 50 0 50 35 0 35 0 0 -50z"/>
<path d="M1818 923 c-2 -5 -1 -26 3 -48 l6 -40 2 42 c1 40 2 41 36 41 l35 0 0
-48 0 -49 -42 -4 -43 -4 48 -1 47 -2 0 60 0 60 -44 0 c-25 0 -46 -3 -48 -7z"/>
<path d="M1920 870 l0 -60 50 0 50 0 0 60 0 60 -50 0 -50 0 0 -60z m90 0 l0
-50 -40 0 -40 0 0 50 0 50 40 0 40 0 0 -50z"/>
<path d="M2037 923 c-11 -10 -8 -83 3 -83 6 0 10 19 10 41 l0 42 45 -5 c24 -3
42 -2 39 3 -6 10 -87 12 -97 2z"/>
<path d="M2150 871 l0 -61 50 0 51 0 -3 58 -3 57 -47 3 -48 3 0 -60z m88 -3
l3 -48 -40 0 -41 0 0 51 0 50 38 -3 c37 -3 37 -3 40 -50z"/>
<path d="M2261 805 l0 -125 49 0 50 0 0 59 c0 48 -3 60 -17 64 -17 4 -17 5 0
6 14 1 17 11 17 61 l0 60 -50 0 -49 0 0 -125z m89 63 l0 -48 -40 0 -40 0 0 48
0 48 40 -1 40 0 0 -47z m-22 -74 c19 -6 22 -13 22 -55 l0 -49 -40 0 c-39 0
-40 1 -40 35 0 25 4 35 16 35 8 0 12 5 9 10 -4 6 -11 8 -16 5 -10 -7 -12 8 -2
18 8 8 21 9 51 1z"/>
<path d="M2379 928 c-1 -2 -3 -27 -5 -55 -4 -50 -3 -53 18 -52 13 0 36 -3 51
-7 l28 -7 -3 59 -3 59 -42 3 c-24 2 -43 2 -44 0z m81 -58 c0 -37 -4 -50 -15
-50 -9 0 -12 6 -8 17 5 13 3 15 -13 9 -32 -12 -36 -12 -39 7 -2 9 1 17 6 17 6
0 6 8 -1 19 -9 18 -6 20 27 24 21 2 39 4 41 5 1 1 2 -20 2 -48z"/>
<path d="M2480 870 l0 -60 51 0 51 0 -6 30 c-3 17 -9 44 -12 60 -5 27 -9 30
-45 30 l-39 0 0 -60z m73 33 c4 -3 3 -11 -3 -18 -8 -9 -8 -15 0 -20 5 -3 10
-15 10 -26 0 -15 -7 -19 -35 -19 l-35 0 0 50 c0 50 0 50 28 44 15 -4 31 -9 35
-11z"/>
<path d="M2036 798 c-3 -13 -6 -44 -6 -70 l0 -48 55 0 c30 0 55 3 55 8 0 4
-21 7 -46 7 l-46 0 -2 48 -1 47 45 2 45 1 -45 6 -45 5 45 6 45 7 -46 1 c-41 2
-47 -1 -53 -20z"/>
<path d="M550 740 l0 -60 50 0 50 0 0 60 0 60 -50 0 -50 0 0 -60z m90 0 l0
-50 -41 0 -41 0 3 43 c3 55 4 57 45 57 l34 0 0 -50z"/>
<path d="M671 777 c1 -17 2 -18 6 -4 7 25 69 23 83 -3 6 -10 10 -23 9 -27 -1
-4 -1 -20 0 -35 l1 -28 108 2 c59 1 86 3 60 5 l-48 4 0 50 0 50 43 -3 c39 -3
42 -5 45 -33 6 -74 8 -75 67 -75 l55 0 0 59 0 59 -215 0 c-214 0 -215 0 -214
-21z m199 -37 l0 -50 -45 0 -45 0 0 50 0 50 45 0 45 0 0 -50z m220 0 l0 -50
-45 0 -45 0 0 50 0 50 45 0 45 0 0 -50z"/>
<path d="M1110 740 l0 -60 50 0 50 0 0 60 0 60 -50 0 -50 0 0 -60z m90 0 l0
-50 -40 0 -40 0 0 50 0 50 40 0 40 0 0 -50z"/>
<path d="M1220 739 l0 -59 53 2 52 2 -47 3 -48 4 0 50 0 49 45 0 c39 0 45 -3
47 -22 1 -13 3 -32 4 -43 1 -11 2 -26 3 -32 1 -9 19 -13 56 -13 l55 0 0 59 0
60 -110 0 -110 0 0 -60z m208 -1 l3 -48 -45 0 -46 0 0 51 0 50 43 -3 42 -3 3
-47z"/>
<path d="M1540 740 c0 -57 1 -60 25 -60 14 0 25 4 25 9 0 5 -9 7 -20 4 -18 -5
-20 0 -20 45 0 40 4 52 18 55 13 4 11 5 -5 6 -21 1 -23 -3 -23 -59z"/>
<path d="M1600 740 l0 -60 50 0 50 0 0 60 0 60 -50 0 -50 0 0 -60z m90 0 l0
-50 -40 0 -40 0 0 50 0 50 40 0 40 0 0 -50z"/>
<path d="M1748 793 l42 -4 0 -50 0 -49 -34 0 c-34 0 -35 1 -39 48 l-3 47 -2
-52 -2 -53 45 0 45 0 0 60 0 60 -47 -2 -48 -1 43 -4z"/>
<path d="M1858 793 l42 -4 0 -49 0 -49 -42 -4 -43 -4 48 -1 47 -2 0 60 0 60
-47 -2 -48 -1 43 -4z"/>
<path d="M1920 740 l0 -60 50 0 50 0 0 60 0 60 -50 0 -50 0 0 -60z m90 0 l0
-50 -40 0 -40 0 0 50 0 50 40 0 40 0 0 -50z"/>
<path d="M2150 740 l0 -60 50 0 50 0 0 60 0 60 -50 0 -50 0 0 -60z m90 0 l0
-50 -40 0 -40 0 0 50 0 50 40 0 40 0 0 -50z"/>
<path d="M2380 740 l0 -60 45 0 45 0 0 60 0 60 -45 0 -45 0 0 -60z m80 0 l0
-50 -35 0 -35 0 0 50 0 50 35 0 35 0 0 -50z"/>
<path d="M2480 741 l0 -61 51 0 51 0 -32 40 c-40 51 -64 66 -27 18 15 -20 27
-39 27 -42 0 -3 -14 -6 -31 -6 l-32 0 5 50 c3 28 1 53 -3 56 -5 3 -9 -22 -9
-55z"/>
<path d="M2510 792 c0 -4 16 -23 35 -42 l35 -34 0 42 c0 41 -1 42 -35 42 -19
0 -35 -4 -35 -8z"/>
<path d="M550 605 l0 -65 50 0 50 0 0 65 0 65 -50 0 -50 0 0 -65z m90 0 l0
-55 -40 0 -40 0 0 48 c0 58 3 62 47 62 l33 0 0 -55z"/>
<path d="M670 605 l0 -65 215 0 216 0 -3 63 -3 62 -160 0 -160 0 -3 -57 -3
-58 -44 0 -45 0 0 54 0 55 43 4 42 4 -47 1 -48 2 0 -65z m200 0 l0 -55 -45 0
-45 0 0 55 0 55 45 0 45 0 0 -55z m110 0 l0 -55 -45 0 -45 0 0 55 0 55 45 0
45 0 0 -55z m110 0 l0 -55 -45 0 -45 0 0 55 0 55 45 0 45 0 0 -55z"/>
<path d="M1110 605 l0 -65 50 0 50 0 0 65 0 65 -50 0 -50 0 0 -65z m90 0 l0
-55 -40 0 -40 0 0 55 0 55 40 0 40 0 0 -55z"/>
<path d="M1220 604 l0 -64 110 0 110 0 0 64 0 65 -110 0 -110 0 0 -65z m102 5
c1 -28 1 -53 -1 -55 -2 -2 -24 -4 -48 -4 l-43 0 0 55 0 55 44 0 44 0 4 -51z
m106 -6 l3 -53 -44 0 c-43 0 -45 1 -51 35 -10 53 7 77 52 73 l37 -3 3 -52z"/>
<path d="M1487 663 c-4 -3 -7 -33 -7 -65 l0 -59 53 3 52 3 3 54 c2 30 -1 58
-5 62 -5 5 -8 -17 -8 -49 l0 -57 -37 -3 -38 -3 0 50 c0 28 5 52 10 52 6 1 14
2 19 3 25 3 21 16 -6 16 -16 0 -33 -3 -36 -7z"/>
<path d="M1778 663 c7 -3 12 -25 12 -59 l0 -54 -35 0 -34 0 -4 58 -3 57 -2
-62 -2 -63 45 0 45 0 0 65 c0 56 -3 65 -17 64 -11 0 -13 -3 -5 -6z"/>
<path d="M1816 662 c-6 -10 -2 -39 7 -48 4 -4 7 5 7 19 0 24 4 27 35 27 l35 0
0 -56 0 -55 -37 3 c-34 3 -38 6 -36 28 2 23 2 23 -6 5 -18 -39 -13 -45 39 -45
l50 0 0 65 0 65 -44 0 c-25 0 -47 -4 -50 -8z"/>
<path d="M1975 662 c28 -7 30 -10 33 -60 l3 -52 -40 0 -40 0 -4 58 -3 57 -2
-62 -2 -63 50 0 51 0 -3 63 -3 62 -35 2 c-34 1 -34 1 -5 -5z"/>
<path d="M2034 655 c-3 -8 -4 -20 -1 -27 4 -8 8 -5 12 9 6 18 13 21 51 18 24
-1 41 1 38 6 -9 16 -94 11 -100 -6z"/>
<path d="M2150 606 l0 -66 50 0 51 0 -3 63 -3 62 -47 3 -48 3 0 -65z m90 -1
l0 -55 -40 0 -40 0 0 55 0 55 40 0 40 0 0 -55z"/>
<path d="M2382 608 l-2 -68 45 0 45 0 0 59 c0 33 -3 62 -7 64 -5 2 -21 0 -38
-4 l-30 -8 33 3 32 3 0 -54 0 -53 -35 0 -34 0 -4 63 -3 62 -2 -67z"/>
<path d="M2533 662 l-53 -3 0 -60 0 -59 49 0 50 0 3 53 3 52 28 -42 c15 -24
27 -45 27 -47 0 -3 -12 -7 -27 -9 -23 -3 -20 -4 10 -6 l37 -1 -24 48 c-38 73
-44 77 -103 74z m37 -62 l0 -50 -40 0 -40 0 0 50 0 50 40 0 40 0 0 -50z"/>
<path d="M1600 600 l0 -60 50 0 50 0 0 60 0 60 -50 0 -50 0 0 -60z m90 0 l0
-50 -40 0 -40 0 0 50 0 50 40 0 40 0 0 -50z"/>
<path d="M2260 600 l0 -60 50 0 50 0 0 60 0 60 -50 0 -50 0 0 -60z m90 0 l0
-50 -40 0 -40 0 0 50 0 50 40 0 40 0 0 -50z"/>
<path d="M2127 633 c-4 -3 -7 -24 -7 -45 0 -37 -1 -38 -35 -38 -24 0 -35 5
-35 14 0 8 -4 18 -10 21 -6 4 -10 -5 -10 -19 0 -25 3 -26 53 -26 l53 0 2 50
c2 50 1 55 -11 43z"/>
<path d="M1378 523 l-48 -4 0 -55 0 -54 55 0 55 0 0 60 c0 33 -3 59 -7 58 -5
-1 -29 -3 -55 -5z m52 -58 l0 -45 -45 0 -45 0 0 45 0 45 45 0 45 0 0 -45z"/>
<path d="M550 465 l0 -55 50 0 50 0 0 55 0 55 -50 0 -50 0 0 -55z m90 0 l0
-45 -39 0 -38 0 -1 45 -1 45 39 0 40 0 0 -45z"/>
<path d="M670 465 l0 -55 58 0 57 0 -3 50 -4 50 47 0 47 0 -4 -50 -3 -50 110
2 c61 1 90 3 67 5 l-44 4 4 50 3 49 -125 0 -125 0 3 -50 4 -50 -41 0 -41 0 0
44 c0 43 1 45 33 49 31 4 31 4 -5 5 l-38 2 0 -55z m310 0 l0 -45 -45 0 -45 0
0 45 0 45 45 0 45 0 0 -45z"/>
<path d="M1093 465 c0 -33 2 -45 4 -27 2 18 2 45 0 60 -2 15 -4 0 -4 -33z"/>
<path d="M1112 463 l2 -58 3 53 4 52 40 0 41 0 -4 -50 c-1 -28 0 -50 5 -50 4
0 7 25 7 55 l0 55 -50 0 -50 0 2 -57z"/>
<path d="M1220 465 l0 -55 53 2 52 2 -47 3 -48 4 0 44 0 44 48 4 47 3 -52 2
-53 2 0 -55z"/>
<path d="M1480 467 c0 -30 2 -56 4 -58 2 -2 27 -2 55 -1 l51 4 0 54 0 54 -55
0 -55 0 0 -53z m99 -2 l2 -45 -41 0 -40 0 0 45 0 45 38 0 38 0 3 -45z"/>
<path d="M1600 465 c0 -54 1 -55 28 -54 23 2 24 2 5 6 -20 4 -23 11 -23 49 l0
44 39 0 40 0 4 -52 3 -53 2 53 2 52 45 0 44 0 4 -57 3 -58 2 63 2 62 -100 0
-100 0 0 -55z"/>
<path d="M1810 465 l0 -55 38 2 c36 1 36 1 5 5 -32 4 -33 6 -33 49 l0 44 41 0
41 0 -4 -50 c-1 -28 0 -50 5 -50 4 0 7 25 7 55 l0 55 -50 0 -50 0 0 -55z"/>
<path d="M1922 463 l2 -58 3 53 4 52 40 0 41 0 -4 -54 c-1 -30 0 -52 5 -49 4
2 7 29 7 59 l0 54 -50 0 -50 0 2 -57z"/>
<path d="M2030 466 c0 -30 4 -57 8 -60 5 -3 7 19 4 49 l-4 55 40 0 41 0 4 -57
3 -58 2 63 2 62 -50 0 -50 0 0 -54z"/>
<path d="M2150 465 l0 -55 50 0 50 0 0 55 0 55 -50 0 -50 0 0 -55z m90 0 l0
-45 -40 0 -40 0 0 45 0 45 40 0 40 0 0 -45z"/>
<path d="M2262 463 l2 -58 3 53 4 52 39 0 39 0 4 -52 3 -53 2 58 2 57 -50 0
-50 0 2 -57z"/>
<path d="M2370 512 c0 -4 20 -6 44 -4 l45 4 4 -54 3 -53 2 58 2 57 -50 0 c-27
0 -50 -3 -50 -8z"/>
<path d="M2480 459 l0 -60 48 3 47 3 3 58 3 57 -51 0 -50 0 0 -61z m90 1 l0
-50 -40 0 -40 0 0 50 0 50 40 0 40 0 0 -50z"/>
<path d="M2592 458 l2 -63 3 58 4 58 32 -3 c28 -3 32 -8 39 -43 7 -33 6 -42
-9 -53 -17 -13 -17 -14 2 -10 15 2 21 12 23 40 5 57 -11 78 -58 78 l-40 0 2
-62z"/>
<path d="M2700 438 c0 -15 5 -30 11 -33 19 -12 21 2 5 32 l-15 28 -1 -27z"/>
<path d="M550 330 l0 -60 50 0 50 0 0 60 0 60 -50 0 -50 0 0 -60z m90 7 c0
-24 -2 -46 -5 -48 -2 -3 -19 -3 -37 -1 -31 3 -33 6 -35 48 l-1 44 39 0 39 0 0
-43z"/>
<path d="M670 330 l0 -60 33 0 c68 0 77 8 77 61 l0 49 46 0 45 0 -3 -47 c-3
-47 -4 -48 -35 -48 -18 -1 -35 -4 -39 -8 -9 -9 42 -9 74 -1 19 6 22 13 22 55
l0 49 46 0 45 0 -3 -47 c-3 -47 -4 -48 -35 -45 -17 2 -34 -2 -37 -7 -4 -7 28
-9 91 -8 l98 2 3 28 c3 27 2 27 -52 27 -31 0 -56 3 -56 8 0 4 25 5 55 4 53 -4
55 -3 55 22 l0 26 -215 0 -215 0 0 -60z m88 3 l-3 -48 -37 0 -38 0 0 47 0 48
41 0 40 0 -3 -47z m332 32 c0 -11 -12 -15 -45 -15 -33 0 -45 4 -45 15 0 11 12
15 45 15 33 0 45 -4 45 -15z m0 -66 c0 -18 -5 -20 -42 -17 -31 2 -44 8 -46 21
-3 14 4 17 42 17 40 0 46 -3 46 -21z"/>
<path d="M1110 330 l0 -60 50 0 50 0 0 60 0 60 -50 0 -50 0 0 -60z m90 2 l0
-47 -40 0 -40 0 0 47 0 48 40 0 40 0 0 -48z"/>
<path d="M1222 333 l3 -58 48 -3 c26 -2 47 1 47 5 0 4 -19 8 -42 8 l-43 0 -3
47 -3 47 48 4 48 3 -53 2 -53 2 3 -57z"/>
<path d="M1330 336 c0 -60 6 -66 71 -66 l39 0 0 60 0 60 -55 0 -55 0 0 -54z
m100 -1 c0 -40 -3 -45 -22 -47 -65 -4 -63 -6 -66 45 l-3 47 45 0 46 0 0 -45z"/>
<path d="M1480 335 l0 -55 55 0 55 0 0 55 0 55 -55 0 -55 0 0 -55z m100 0 l0
-45 -40 0 -40 0 0 45 0 45 40 0 40 0 0 -45z"/>
<path d="M1600 335 l0 -55 100 0 100 0 0 55 0 54 -100 0 -100 0 0 -54z m90 0
l0 -45 -40 0 -40 0 0 45 0 45 40 0 40 0 0 -45z m100 0 l0 -45 -40 0 c-42 0
-42 1 -42 60 0 11 0 22 1 25 1 3 19 5 41 5 l40 0 0 -45z"/>
<path d="M1810 335 l0 -55 50 0 50 0 0 55 0 55 -50 0 -50 0 0 -55z m90 0 l0
-45 -40 0 -40 0 0 45 0 45 40 0 40 0 0 -45z"/>
<path d="M1920 335 l0 -55 50 0 50 0 0 55 0 55 -50 0 -50 0 0 -55z m90 0 l0
-45 -40 0 -40 0 0 45 0 45 40 0 40 0 0 -45z"/>
<path d="M2030 335 l0 -55 50 0 50 0 0 55 0 55 -50 0 -50 0 0 -55z m90 0 l0
-45 -40 0 -40 0 0 45 0 45 40 0 40 0 0 -45z"/>
<path d="M2150 335 l0 -55 50 0 50 0 0 55 0 55 -50 0 -50 0 0 -55z m90 0 l0
-45 -40 0 -40 0 0 45 0 45 40 0 40 0 0 -45z"/>
<path d="M2260 335 l0 -55 50 0 50 0 0 55 0 55 -50 0 -50 0 0 -55z m90 0 l0
-45 -40 0 -40 0 0 45 0 45 40 0 40 0 0 -45z"/>
<path d="M2370 335 l0 -55 50 0 50 0 0 55 0 55 -50 0 -50 0 0 -55z m90 0 l0
-45 -40 0 -40 0 0 45 0 45 40 0 40 0 0 -45z"/>
<path d="M2481 260 c0 -128 0 -130 22 -130 12 0 29 5 37 10 11 7 7 10 -17 10
-33 0 -33 0 -33 50 l0 50 40 0 c31 0 38 -3 34 -15 -4 -9 0 -15 10 -15 9 0 15
6 14 13 -2 8 13 13 43 15 l45 3 0 -51 0 -50 -43 0 c-41 0 -43 1 -43 30 0 28
-19 44 -21 18 -4 -45 -3 -54 6 -60 6 -5 5 -8 -2 -8 -7 0 -13 -4 -13 -10 0 -5
7 -10 15 -10 8 0 15 7 15 15 0 21 78 21 86 0 8 -19 24 -19 24 0 0 11 12 15 45
15 38 0 45 -3 45 -20 0 -19 -7 -20 -100 -20 l-100 0 0 -40 0 -40 48 0 c42 0
48 3 49 21 2 17 -1 19 -10 10 -6 -6 -26 -11 -44 -11 -28 0 -33 4 -33 23 0 18
5 22 33 21 66 -2 67 -3 67 -34 0 -28 2 -30 38 -28 36 1 36 1 5 5 -29 4 -33 8
-33 34 0 27 3 29 39 29 39 0 39 0 36 -35 -2 -19 1 -35 6 -35 5 0 9 6 9 13 0 8
4 7 11 -3 8 -12 10 -12 8 5 -4 55 -2 57 55 53 30 -1 52 0 49 5 -2 4 -29 7 -59
7 -47 0 -55 3 -52 18 2 13 15 18 51 20 49 3 54 7 36 32 -9 13 -10 13 -6 -2 5
-14 -5 -16 -88 -16 -103 0 -106 2 -97 70 3 22 10 28 36 31 17 2 -20 5 -82 5
-74 1 -111 6 -107 12 4 6 11 8 16 5 5 -4 9 -1 9 4 0 6 -20 11 -45 11 l-45 0 0
45 0 45 39 0 c39 0 40 -1 44 -37 l4 -38 1 43 2 42 -50 0 -49 0 0 -130z"/>
<path d="M2590 335 c0 -37 4 -55 13 -56 42 -5 87 -3 87 3 0 4 -20 8 -45 8
l-45 0 0 45 0 45 39 0 c39 0 40 -1 44 -37 l4 -38 1 43 2 42 -50 0 -50 0 0 -55z"/>
<path d="M2702 333 l3 -58 43 -6 c24 -3 45 -2 48 2 2 4 -8 33 -23 63 -21 44
-32 56 -51 56 -22 0 -23 -3 -20 -57z m56 8 c12 -21 22 -41 22 -45 0 -3 -16 -6
-35 -6 -35 0 -35 0 -35 45 0 57 18 59 48 6z"/>
<path d="M310 272 c0 -12 8 -18 25 -20 29 -2 32 6 8 24 -24 18 -33 17 -33 -4z"/>
<path d="M550 200 l0 -60 53 0 52 0 -3 60 -4 60 -49 0 -49 0 0 -60z m90 0 l0
-50 -35 0 -35 0 0 50 0 50 35 0 35 0 0 -50z"/>
<path d="M670 200 l0 -60 215 0 215 0 0 30 c0 30 -1 30 -55 30 -54 0 -55 0
-55 30 l0 30 -160 0 -160 0 0 -60z m90 0 l0 -50 -40 0 -40 0 0 50 0 50 40 0
40 0 0 -50z m110 0 l0 -50 -45 0 -45 0 0 50 0 50 45 0 45 0 0 -50z m110 0 l0
-50 -45 0 -45 0 0 50 0 50 45 0 45 0 0 -50z m110 -30 c0 -17 -7 -20 -45 -20
-38 0 -45 3 -45 20 0 17 7 20 45 20 38 0 45 -3 45 -20z"/>
<path d="M1043 253 c32 -3 47 -9 47 -18 0 -9 -15 -15 -47 -18 l-48 -3 53 -2
c49 -2 52 -1 52 23 0 24 -3 25 -52 23 l-53 -2 48 -3z"/>
<path d="M1110 235 c0 -23 3 -25 50 -25 47 0 50 2 50 25 0 23 -3 25 -50 25
-47 0 -50 -2 -50 -25z m90 0 c0 -11 -11 -15 -40 -15 -29 0 -40 4 -40 15 0 11
11 15 40 15 29 0 40 -4 40 -15z"/>
<path d="M1220 200 l0 -60 110 0 110 0 0 60 0 60 -110 0 -110 0 0 -60z m100 0
l0 -50 -45 0 -45 0 0 50 0 50 45 0 45 0 0 -50z m108 18 c0 -60 -6 -68 -49 -68
l-39 0 0 50 0 50 44 0 c44 0 45 -1 44 -32z"/>
<path d="M1480 201 c0 -33 3 -62 8 -64 4 -2 27 -2 52 0 l45 5 -3 59 -4 59 -49
0 -49 0 0 -59z m90 -1 l0 -50 -35 0 c-33 0 -35 2 -35 34 0 19 -3 41 -6 50 -5
13 2 16 35 16 l41 0 0 -50z"/>
<path d="M1600 200 l0 -60 33 0 c17 0 62 -3 100 -7 l67 -6 0 67 0 66 -100 0
-100 0 0 -60z m90 0 l0 -50 -40 0 -40 0 0 50 0 50 40 0 40 0 0 -50z m100 0 l0
-50 -40 0 c-42 0 -42 0 -42 60 0 17 1 32 1 35 1 3 19 5 41 5 l40 0 0 -50z"/>
<path d="M1812 198 c2 -52 6 -63 22 -66 19 -4 36 13 36 36 0 6 -4 12 -10 12
-5 0 -10 -7 -10 -15 0 -8 -7 -15 -15 -15 -11 0 -15 12 -15 50 l0 50 41 0 42 0
-7 -60 c-5 -40 -3 -60 4 -60 6 0 10 26 10 65 l0 65 -50 0 -51 0 3 -62z"/>
<path d="M1920 200 c0 -65 -4 -62 70 -63 24 -1 25 2 28 61 l3 62 -51 0 -50 0
0 -60z m90 0 l0 -50 -40 0 -40 0 0 50 0 50 40 0 40 0 0 -50z"/>
<path d="M2032 198 l3 -63 48 0 c26 0 47 3 47 8 0 4 0 32 0 62 l0 55 -50 0
-51 0 3 -62z m88 2 l0 -50 -40 0 -40 0 0 50 0 50 40 0 40 0 0 -50z"/>
<path d="M2150 198 l0 -63 38 1 c63 1 62 0 62 64 l0 60 -50 0 -50 0 0 -62z
m90 2 l0 -50 -40 0 -40 0 0 50 0 50 40 0 40 0 0 -50z"/>
<path d="M2260 200 l0 -60 50 0 50 0 0 60 0 60 -50 0 -50 0 0 -60z m90 0 l0
-50 -40 0 -40 0 0 50 0 50 40 0 40 0 0 -50z"/>
<path d="M2370 200 l0 -60 50 0 50 0 0 60 0 60 -50 0 -50 0 0 -60z m90 0 l0
-50 -40 0 -40 0 0 50 0 50 40 0 40 0 0 -50z"/>
<path d="M1110 170 c0 -29 1 -30 50 -30 49 0 50 1 50 30 0 29 -1 30 -50 30
-49 0 -50 -1 -50 -30z m90 0 c0 -17 -7 -20 -40 -20 -33 0 -40 3 -40 20 0 17 7
20 40 20 33 0 40 -3 40 -20z"/>
<path d="M36 123 c-3 -8 -6 -16 -6 -17 0 -1 13 -3 30 -4 22 -2 28 1 24 12 -8
20 -42 27 -48 9z"/>
<path d="M100 123 c0 -17 8 -20 68 -20 37 -1 73 4 81 10 12 9 13 9 7 0 -5 -9
0 -12 18 -11 29 3 36 28 9 29 -10 0 -28 2 -40 5 -17 3 -23 -1 -23 -14 0 -12
-2 -14 -8 -4 -12 18 -62 26 -62 10 0 -9 -3 -8 -10 2 -8 12 -10 12 -10 1 0 -11
-3 -11 -15 -1 -12 10 -15 9 -15 -7z"/>
<path d="M323 133 c-13 -5 -19 -33 -7 -33 3 0 15 5 26 11 15 8 19 8 13 -1 -5
-8 0 -11 16 -8 35 5 30 32 -6 34 -16 0 -36 -1 -42 -3z"/>
<path d="M530 60 l0 -40 60 0 60 0 0 40 0 40 -60 0 -60 0 0 -40z m110 -5 c0
-23 -3 -25 -50 -25 -47 0 -50 2 -50 25 0 23 3 25 50 25 47 0 50 -2 50 -25z"/>
<path d="M669 98 c0 -2 -1 -20 -3 -40 l-3 -38 384 0 383 0 0 40 0 40 -215 0
-215 0 0 -36 c0 -22 -4 -33 -11 -29 -5 4 -9 19 -7 33 3 26 1 27 -49 30 l-52 3
-4 -38 -4 -38 -1 38 -2 37 -49 0 -50 0 -4 -37 -4 -38 -1 38 -2 37 -45 0 c-25
0 -45 -1 -46 -2z m81 -40 c0 -25 -3 -28 -35 -28 -32 0 -35 3 -35 28 0 24 3 27
35 27 32 0 35 -3 35 -27z m110 0 c0 -26 -3 -28 -40 -28 -37 0 -40 2 -40 28 0
25 3 27 40 27 37 0 40 -2 40 -27z m110 0 c0 -26 -3 -28 -40 -28 -35 0 -40 3
-40 23 0 31 4 34 45 33 31 -1 35 -4 35 -28z m433 23 c11 -1 17 -9 17 -23 l0
-23 -205 -2 -205 -1 0 26 0 27 187 -2 c104 -1 196 -2 206 -2z"/>
<path d="M1460 60 l0 -40 170 0 170 0 0 40 0 40 -45 0 c-45 0 -45 0 -45 -36 0
-22 -4 -33 -11 -29 -5 4 -9 19 -7 33 l3 27 -117 2 -118 3 0 -40z m110 -5 c0
-23 -3 -25 -50 -25 -47 0 -50 2 -50 25 0 23 3 25 50 25 47 0 50 -2 50 -25z
m30 13 c0 7 15 12 40 12 36 0 40 -2 40 -25 0 -22 -4 -25 -35 -25 -19 0 -35 5
-35 11 0 6 -7 9 -15 5 -11 -4 -15 1 -15 17 0 18 2 19 10 7 6 -10 10 -11 10 -2z
m190 -13 c0 -22 -4 -25 -35 -25 -31 0 -35 3 -35 25 0 22 4 25 35 25 31 0 35
-3 35 -25z"/>
<path d="M1817 93 c-4 -3 -7 -21 -7 -40 0 -33 0 -33 50 -33 l50 0 0 40 0 40
-43 0 c-24 0 -47 -3 -50 -7z m83 -39 c0 -23 -3 -25 -37 -22 -31 2 -39 7 -41
26 -3 20 1 22 37 22 37 0 41 -2 41 -26z"/>
<path d="M1920 60 l0 -40 50 0 50 0 0 40 0 40 -50 0 -50 0 0 -40z m90 -4 c0
-21 -5 -23 -40 -23 -35 0 -40 2 -40 23 0 21 5 24 40 24 35 0 40 -3 40 -24z"/>
<path d="M2030 60 l0 -40 223 2 c122 1 205 3 185 5 -51 6 -49 23 2 23 29 0 40
-4 40 -15 0 -11 12 -15 50 -15 l50 0 0 40 0 40 -50 0 c-43 0 -50 -3 -50 -20 0
-13 -7 -20 -20 -20 -13 0 -20 7 -20 20 0 15 -7 20 -25 20 -22 0 -25 -4 -25
-35 0 -24 -5 -35 -15 -35 -10 0 -15 11 -15 35 l0 35 -49 0 c-49 0 -50 -1 -54
-32 l-4 -33 -1 33 c-2 32 -3 32 -52 32 l-50 0 0 -36 c0 -21 -4 -33 -10 -29 -5
3 -10 19 -10 36 0 28 -1 29 -50 29 l-50 0 0 -40z m210 -1 c0 -15 -7 -19 -40
-19 -32 0 -40 4 -40 18 0 26 5 29 45 24 26 -3 35 -9 35 -23z m-120 -4 c0 -21
-4 -24 -35 -23 -59 2 -59 48 1 48 30 0 34 -3 34 -25z m230 4 c0 -15 -4 -19
-16 -15 -9 3 -27 6 -40 6 -15 0 -24 6 -24 15 0 11 11 15 40 15 34 0 40 -3 40
-21z m218 4 c-4 -20 -54 -31 -70 -15 -17 17 1 32 38 32 28 0 35 -4 32 -17z"/>
</g>
</svg>
