<?xml version="1.0" standalone="no"?>
<!DOCTYPE svg PUBLIC "-//W3C//DTD SVG 20010904//EN"
 "http://www.w3.org/TR/2001/REC-SVG-20010904/DTD/svg10.dtd">
<svg version="1.0" xmlns="http://www.w3.org/2000/svg"
 width="550.000000pt" height="555.000000pt" viewBox="0 0 550.000000 555.000000"
 preserveAspectRatio="xMidYMid meet">

<g transform="translate(0.000000,555.000000) scale(0.100000,-0.100000)"
fill="#000000" stroke="none">
<path d="M931 5034 c0 -11 3 -14 6 -6 3 7 2 16 -1 19 -3 4 -6 -2 -5 -13z"/>
<path d="M960 5026 c7 -7 13 -7 20 0 6 6 3 10 -10 10 -13 0 -16 -4 -10 -10z"/>
<path d="M931 4994 c0 -11 3 -14 6 -6 3 7 2 16 -1 19 -3 4 -6 -2 -5 -13z"/>
<path d="M945 4950 c27 -12 43 -12 25 0 -8 5 -22 9 -30 9 -10 0 -8 -3 5 -9z"/>
<path d="M943 4923 c9 -2 23 -2 30 0 6 3 -1 5 -18 5 -16 0 -22 -2 -12 -5z"/>
<path d="M934 4899 c-9 -15 11 -32 32 -26 15 4 14 5 -5 6 -16 1 -21 5 -17 16
6 17 0 20 -10 4z"/>
<path d="M933 4840 c2 -8 14 -16 28 -17 19 -1 20 -1 4 4 -11 3 -24 10 -28 17
-6 7 -7 6 -4 -4z"/>
<path d="M938 4763 c7 -3 16 -2 19 1 4 3 -2 6 -13 5 -11 0 -14 -3 -6 -6z"/>
<path d="M935 4739 c-4 -6 -4 -13 -1 -16 3 -4 6 -1 6 6 0 8 8 11 20 8 11 -3
18 -1 14 4 -7 12 -31 11 -39 -2z"/>
<path d="M2664 4739 c-3 -6 1 -18 10 -27 12 -13 19 -13 28 -4 9 9 7 12 -11 12
-16 0 -21 4 -17 15 6 17 0 20 -10 4z"/>
<path d="M2690 4746 c0 -2 7 -7 16 -10 8 -3 12 -2 9 4 -6 10 -25 14 -25 6z"/>
<path d="M934 4680 c1 -8 12 -17 25 -18 20 -3 22 -2 10 11 -9 10 -16 11 -20 4
-5 -6 -9 -5 -11 4 -4 11 -5 10 -4 -1z"/>
<path d="M2220 4680 c0 -5 5 -10 10 -10 6 0 10 -7 10 -16 0 -8 -4 -12 -10 -9
-5 3 -10 1 -10 -5 0 -25 33 -4 36 23 2 21 -2 27 -17 27 -10 0 -19 -4 -19 -10z"/>
<path d="M3495 4669 c-4 -6 -5 -12 -2 -15 2 -3 7 2 10 11 7 17 1 20 -8 4z"/>
<path d="M1810 4662 c0 -4 9 -8 20 -8 11 0 20 4 20 8 0 4 -9 8 -20 8 -11 0
-20 -4 -20 -8z"/>
<path d="M3705 4639 c-4 -6 -5 -12 -2 -15 2 -3 7 2 10 11 7 17 1 20 -8 4z"/>
<path d="M1192 4620 c0 -14 2 -19 5 -12 2 6 2 18 0 25 -3 6 -5 1 -5 -13z"/>
<path d="M2704 4632 c5 -8 -2 -12 -21 -13 -25 -2 -26 -2 -4 -6 27 -5 49 11 30
22 -8 5 -10 4 -5 -3z"/>
<path d="M948 4623 c6 -2 18 -2 25 0 6 3 1 5 -13 5 -14 0 -19 -2 -12 -5z"/>
<path d="M1810 4620 c-12 -8 -10 -10 8 -10 13 0 20 4 17 10 -7 12 -6 12 -25 0z"/>
<path d="M2220 4605 c0 -10 7 -15 18 -13 21 4 19 22 -2 26 -10 2 -16 -3 -16
-13z"/>
<path d="M3498 4613 c7 -3 16 -2 19 1 4 3 -2 6 -13 5 -11 0 -14 -3 -6 -6z"/>
<path d="M960 4600 c0 -5 -8 -7 -17 -4 -15 5 -16 4 -3 -5 20 -14 27 -14 34 4
3 8 1 15 -4 15 -6 0 -10 -4 -10 -10z"/>
<path d="M3695 4600 c-3 -5 -1 -10 4 -10 6 0 11 5 11 10 0 6 -2 10 -4 10 -3 0
-8 -4 -11 -10z"/>
<path d="M1810 4585 c0 -9 9 -15 23 -14 20 1 20 2 2 7 l-20 5 20 8 c19 7 19 8
-2 8 -14 1 -23 -5 -23 -14z"/>
<path d="M3118 4593 c7 -3 16 -2 19 1 4 3 -2 6 -13 5 -11 0 -14 -3 -6 -6z"/>
<path d="M3498 4593 c7 -3 16 -2 19 1 4 3 -2 6 -13 5 -11 0 -14 -3 -6 -6z"/>
<path d="M4540 4587 c0 -10 8 -17 18 -17 9 0 13 4 7 8 -5 4 -13 11 -17 16 -5
5 -8 2 -8 -7z"/>
<path d="M4085 4580 c-3 -6 1 -7 9 -4 18 7 21 14 7 14 -6 0 -13 -4 -16 -10z"/>
<path d="M1210 4570 c-9 -6 -10 -10 -3 -10 6 0 15 5 18 10 8 12 4 12 -15 0z"/>
<path d="M2202 4562 c5 -24 44 -28 44 -4 0 12 -8 19 -24 20 -17 1 -23 -3 -20
-16z"/>
<path d="M3118 4573 c7 -3 16 -2 19 1 4 3 -2 6 -13 5 -11 0 -14 -3 -6 -6z"/>
<path d="M3493 4573 c9 -2 23 -2 30 0 6 3 -1 5 -18 5 -16 0 -22 -2 -12 -5z"/>
<path d="M3697 4573 c-10 -10 -8 -23 4 -23 5 0 8 4 5 9 -4 5 0 12 6 14 7 3 8
6 2 6 -6 1 -14 -2 -17 -6z"/>
<path d="M930 4555 c0 -8 9 -10 25 -7 14 2 25 6 25 7 0 1 -11 5 -25 7 -16 3
-25 1 -25 -7z"/>
<path d="M1818 4553 c6 -2 18 -2 25 0 6 3 1 5 -13 5 -14 0 -19 -2 -12 -5z"/>
<path d="M3118 4553 c7 -3 16 -2 19 1 4 3 -2 6 -13 5 -11 0 -14 -3 -6 -6z"/>
<path d="M1198 4543 c6 -2 18 -2 25 0 6 3 1 5 -13 5 -14 0 -19 -2 -12 -5z"/>
<path d="M2015 4540 c-3 -6 1 -7 9 -4 18 7 21 14 7 14 -6 0 -13 -4 -16 -10z"/>
<path d="M1623 4533 c9 -2 23 -2 30 0 6 3 -1 5 -18 5 -16 0 -22 -2 -12 -5z"/>
<path d="M1818 4533 c7 -3 16 -2 19 1 4 3 -2 6 -13 5 -11 0 -14 -3 -6 -6z"/>
<path d="M2660 4527 c0 -14 6 -18 27 -15 14 2 28 10 30 18 4 13 3 13 -6 0 -10
-13 -12 -13 -21 0 -9 13 -10 13 -10 0 0 -13 -1 -13 -10 0 -8 13 -10 12 -10 -3z"/>
<path d="M3118 4533 c7 -3 16 -2 19 1 4 3 -2 6 -13 5 -11 0 -14 -3 -6 -6z"/>
<path d="M4538 4533 c6 -2 18 -2 25 0 6 3 1 5 -13 5 -14 0 -19 -2 -12 -5z"/>
<path d="M948 4523 c6 -2 18 -2 25 0 6 3 1 5 -13 5 -14 0 -19 -2 -12 -5z"/>
<path d="M1205 4519 c-6 -8 -4 -10 5 -4 10 6 12 4 6 -11 -6 -15 -5 -17 5 -6 9
9 10 15 2 23 -8 8 -13 7 -18 -2z"/>
<path d="M2906 4522 c-2 -4 4 -8 15 -8 10 0 19 4 19 8 0 4 -6 8 -14 8 -8 0
-17 -4 -20 -8z"/>
<path d="M4095 4520 c-3 -5 -2 -10 4 -10 5 0 13 5 16 10 3 6 2 10 -4 10 -5 0
-13 -4 -16 -10z"/>
<path d="M1638 4513 c7 -3 16 -2 19 1 4 3 -2 6 -13 5 -11 0 -14 -3 -6 -6z"/>
<path d="M1803 4505 c0 -7 8 -10 19 -7 10 2 18 6 18 7 0 1 -8 5 -18 7 -11 3
-19 0 -19 -7z"/>
<path d="M2438 4513 c7 -3 16 -2 19 1 4 3 -2 6 -13 5 -11 0 -14 -3 -6 -6z"/>
<path d="M3471 4508 c-1 -14 7 -18 31 -18 17 0 29 1 27 3 -2 1 -13 9 -23 17
-13 10 -17 10 -12 3 4 -7 3 -13 -3 -13 -5 0 -12 6 -14 13 -3 7 -6 5 -6 -5z"/>
<path d="M4348 4513 c7 -3 16 -2 19 1 4 3 -2 6 -13 5 -11 0 -14 -3 -6 -6z"/>
<path d="M4548 4513 c7 -3 16 -2 19 1 4 3 -2 6 -13 5 -11 0 -14 -3 -6 -6z"/>
<path d="M938 4503 c7 -3 16 -2 19 1 4 3 -2 6 -13 5 -11 0 -14 -3 -6 -6z"/>
<path d="M4948 4503 c7 -3 16 -2 19 1 4 3 -2 6 -13 5 -11 0 -14 -3 -6 -6z"/>
<path d="M1638 4493 c7 -3 16 -2 19 1 4 3 -2 6 -13 5 -11 0 -14 -3 -6 -6z"/>
<path d="M2218 4493 c-19 -5 -25 -23 -9 -23 5 0 16 -2 23 -5 9 -4 14 2 14 15
0 11 -3 19 -6 19 -3 -1 -13 -3 -22 -6z"/>
<path d="M2665 4490 c-9 -15 4 -30 25 -30 24 0 36 18 21 33 -9 9 -11 8 -6 -5
6 -14 2 -18 -15 -18 -16 0 -20 4 -16 15 6 17 0 20 -9 5z"/>
<path d="M2907 4493 c-14 -13 -7 -23 16 -22 21 0 21 1 2 8 l-20 8 20 5 c13 4
15 6 4 7 -9 0 -19 -2 -22 -6z"/>
<path d="M3670 4488 c0 -13 7 -18 28 -17 21 1 22 2 7 6 -11 3 -23 10 -27 17
-5 7 -8 5 -8 -6z"/>
<path d="M4084 4488 c-5 -7 -3 -8 6 -3 7 4 16 2 21 -6 7 -11 9 -10 9 4 0 19
-25 23 -36 5z"/>
<path d="M4348 4493 c7 -3 16 -2 19 1 4 3 -2 6 -13 5 -11 0 -14 -3 -6 -6z"/>
<path d="M4548 4493 c7 -3 16 -2 19 1 4 3 -2 6 -13 5 -11 0 -14 -3 -6 -6z"/>
<path d="M2008 4483 c6 -2 18 -2 25 0 6 3 1 5 -13 5 -14 0 -19 -2 -12 -5z"/>
<path d="M3110 4480 c0 -6 7 -10 15 -10 8 0 15 2 15 4 0 2 -7 6 -15 10 -8 3
-15 1 -15 -4z"/>
<path d="M3895 4480 c-3 -5 1 -10 10 -10 9 0 13 5 10 10 -3 6 -8 10 -10 10 -2
0 -7 -4 -10 -10z"/>
<path d="M942 4471 c-11 -7 -10 -10 3 -15 22 -8 22 -8 29 9 6 16 -11 20 -32 6z"/>
<path d="M4348 4473 c7 -3 16 -2 19 1 4 3 -2 6 -13 5 -11 0 -14 -3 -6 -6z"/>
<path d="M2012 4458 c2 -6 11 -13 19 -16 12 -3 12 -2 0 6 -11 8 -11 10 0 15
10 4 8 6 -4 6 -10 1 -17 -4 -15 -11z"/>
<path d="M2438 4463 c7 -3 16 -2 19 1 4 3 -2 6 -13 5 -11 0 -14 -3 -6 -6z"/>
<path d="M1628 4453 c6 -2 18 -2 25 0 6 3 1 5 -13 5 -14 0 -19 -2 -12 -5z"/>
<path d="M2904 4448 c-5 -7 -3 -8 6 -3 7 4 16 2 21 -6 7 -11 9 -10 9 4 0 19
-25 23 -36 5z"/>
<path d="M3095 4449 c-11 -16 -1 -19 13 -3 7 8 8 14 3 14 -5 0 -13 -5 -16 -11z"/>
<path d="M4082 4448 c2 -6 10 -13 16 -14 7 -1 8 0 2 3 -5 2 -8 9 -4 14 3 5 0
9 -6 9 -7 0 -10 -5 -8 -12z"/>
<path d="M4528 4453 c7 -3 16 -2 19 1 4 3 -2 6 -13 5 -11 0 -14 -3 -6 -6z"/>
<path d="M1410 4440 c0 -5 5 -10 10 -10 6 0 10 5 10 10 0 6 -4 10 -10 10 -5 0
-10 -4 -10 -10z"/>
<path d="M2438 4443 c7 -3 16 -2 19 1 4 3 -2 6 -13 5 -11 0 -14 -3 -6 -6z"/>
<path d="M930 4424 c0 -18 4 -20 28 -16 22 5 24 7 7 10 -11 2 -23 9 -27 16 -5
6 -8 3 -8 -10z"/>
<path d="M1638 4433 c7 -3 16 -2 19 1 4 3 -2 6 -13 5 -11 0 -14 -3 -6 -6z"/>
<path d="M2225 4430 c-3 -5 -4 -14 0 -19 3 -5 -1 -16 -9 -24 -15 -15 -10 -31
14 -40 12 -4 12 -6 -1 -6 -25 -1 -33 -31 -9 -31 11 0 20 -4 20 -10 0 -5 4 -10
9 -10 5 0 7 24 5 53 -2 28 -4 60 -5 69 0 21 -15 32 -24 18z"/>
<path d="M2685 4430 c6 -10 4 -12 -8 -7 -10 3 -17 2 -17 -3 0 -13 27 -13 35
-1 3 5 0 13 -6 17 -8 5 -9 3 -4 -6z"/>
<path d="M3497 4433 c-13 -12 -7 -23 11 -22 10 0 12 3 4 6 -6 2 -10 9 -6 14 6
10 0 12 -9 2z"/>
<path d="M3698 4433 c7 -3 16 -2 19 1 4 3 -2 6 -13 5 -11 0 -14 -3 -6 -6z"/>
<path d="M4348 4433 c7 -3 16 -2 19 1 4 3 -2 6 -13 5 -11 0 -14 -3 -6 -6z"/>
<path d="M2006 4415 c4 -8 14 -15 23 -15 13 0 13 2 2 9 -11 7 -11 9 0 14 8 3
5 6 -8 6 -16 1 -21 -3 -17 -14z"/>
<path d="M2438 4423 c7 -3 16 -2 19 1 4 3 -2 6 -13 5 -11 0 -14 -3 -6 -6z"/>
<path d="M4533 4423 c9 -2 23 -2 30 0 6 3 -1 5 -18 5 -16 0 -22 -2 -12 -5z"/>
<path d="M1198 4413 c6 -2 18 -2 25 0 6 3 1 5 -13 5 -14 0 -19 -2 -12 -5z"/>
<path d="M1408 4413 c7 -3 16 -2 19 1 4 3 -2 6 -13 5 -11 0 -14 -3 -6 -6z"/>
<path d="M2903 4413 c9 -2 23 -2 30 0 6 3 -1 5 -18 5 -16 0 -22 -2 -12 -5z"/>
<path d="M3318 4413 c7 -3 16 -2 19 1 4 3 -2 6 -13 5 -11 0 -14 -3 -6 -6z"/>
<path d="M3698 4413 c7 -3 16 -2 19 1 4 3 -2 6 -13 5 -11 0 -14 -3 -6 -6z"/>
<path d="M3898 4413 c7 -3 16 -2 19 1 4 3 -2 6 -13 5 -11 0 -14 -3 -6 -6z"/>
<path d="M4080 4412 c0 -4 9 -8 20 -8 11 0 20 4 20 8 0 4 -9 8 -20 8 -11 0
-20 -4 -20 -8z"/>
<path d="M4353 4413 c9 -2 23 -2 30 0 6 3 -1 5 -18 5 -16 0 -22 -2 -12 -5z"/>
<path d="M1636 4385 c-14 -13 -26 -32 -25 -42 0 -11 3 -13 6 -5 9 23 39 13 41
-15 4 -46 12 -39 12 10 0 28 -5 47 -11 47 -8 0 -8 5 1 15 19 23 6 18 -24 -10z
m19 -15 c3 -5 -1 -10 -10 -10 -9 0 -13 5 -10 10 3 6 8 10 10 10 2 0 7 -4 10
-10z"/>
<path d="M1811 4393 c-1 -18 4 -23 22 -22 15 1 17 3 5 6 -9 2 -19 12 -21 21
-3 12 -5 10 -6 -5z"/>
<path d="M2438 4403 c7 -3 16 -2 19 1 4 3 -2 6 -13 5 -11 0 -14 -3 -6 -6z"/>
<path d="M1193 4393 c9 -2 23 -2 30 0 6 3 -1 5 -18 5 -16 0 -22 -2 -12 -5z"/>
<path d="M2900 4385 c0 -9 9 -15 23 -14 20 1 20 2 2 7 l-20 5 20 8 c19 7 19 8
-2 8 -14 1 -23 -5 -23 -14z"/>
<path d="M3321 4383 c12 -15 12 -16 -3 -10 -10 3 -18 3 -19 -1 -1 -4 -2 -24
-4 -44 -3 -35 -1 -38 23 -38 26 0 27 2 24 49 -3 33 -9 52 -19 56 -14 5 -14 3
-2 -12z m9 -37 c0 -3 -4 -8 -10 -11 -5 -3 -10 -1 -10 4 0 6 5 11 10 11 6 0 10
-2 10 -4z"/>
<path d="M3500 4390 c21 -7 22 -8 5 -9 -17 -1 -17 -3 -5 -11 13 -8 12 -10 -2
-10 -10 0 -18 -6 -18 -12 0 -7 -3 -23 -6 -35 -6 -20 -3 -23 25 -23 l32 0 -20
22 c-11 11 -17 26 -14 32 4 7 8 6 11 -2 8 -25 20 -11 20 23 0 31 -3 35 -26 34
l-27 -1 25 -8z"/>
<path d="M3690 4390 c0 -5 7 -6 17 -3 11 4 14 3 9 -5 -4 -7 -2 -12 3 -12 6 0
11 7 11 15 0 8 -9 15 -20 15 -11 0 -20 -4 -20 -10z"/>
<path d="M4340 4396 c0 -2 6 -9 13 -15 10 -8 14 -7 14 4 0 8 -6 15 -14 15 -7
0 -13 -2 -13 -4z"/>
<path d="M2018 4383 c7 -3 16 -2 19 1 4 3 -2 6 -13 5 -11 0 -14 -3 -6 -6z"/>
<path d="M2433 4383 c18 -5 18 -5 0 -20 -10 -8 -13 -12 -7 -9 17 9 25 -21 9
-34 -10 -8 -14 -7 -18 7 -4 14 -5 13 -6 -4 -1 -24 13 -31 25 -12 4 8 9 7 15
-2 6 -9 9 3 9 34 0 42 -2 47 -22 46 -19 -1 -19 -2 -5 -6z"/>
<path d="M3902 4378 c-7 -7 -12 -17 -12 -22 0 -6 5 -4 10 4 6 10 9 4 7 -23 -2
-29 -5 -36 -19 -31 -9 2 -19 0 -23 -6 -4 -6 7 -10 27 -10 33 0 33 1 32 45 -1
51 -5 60 -22 43z"/>
<path d="M4540 4375 c0 -8 8 -15 18 -15 13 0 14 2 3 9 -11 7 -11 9 0 14 10 4
9 6 -3 6 -10 1 -18 -6 -18 -14z"/>
<path d="M1198 4373 c6 -2 18 -2 25 0 6 3 1 5 -13 5 -14 0 -19 -2 -12 -5z"/>
<path d="M1398 4373 c12 -2 30 -2 40 0 9 3 -1 5 -23 4 -22 0 -30 -2 -17 -4z"/>
<path d="M4088 4368 c-9 -7 -19 -28 -23 -46 -6 -29 -4 -33 11 -30 9 1 19 9 22
17 3 8 0 11 -5 8 -5 -3 -10 0 -10 8 0 8 7 15 14 15 8 0 11 -4 8 -10 -3 -5 -1
-10 4 -10 6 0 11 14 11 30 0 33 -8 37 -32 18z m22 -8 c0 -5 -8 -10 -17 -10
-15 0 -16 2 -3 10 19 12 20 12 20 0z"/>
<path d="M953 4363 c4 -3 5 -9 1 -14 -3 -5 2 -9 10 -9 8 0 18 5 21 10 3 6 2
10 -4 10 -5 0 -15 2 -23 3 -7 2 -10 2 -5 0z"/>
<path d="M2015 4360 c-4 -6 -4 -14 -1 -17 3 -4 6 -1 6 5 0 27 15 10 16 -18 1
-24 -3 -30 -19 -30 -13 0 -17 5 -13 15 3 8 1 15 -4 15 -6 0 -10 -9 -10 -21 0
-16 5 -20 28 -17 24 3 27 7 27 37 0 34 -17 52 -30 31z"/>
<path d="M1190 4349 c0 -5 5 -7 11 -3 6 3 15 0 20 -7 7 -11 9 -10 9 4 0 10 -8
17 -20 17 -11 0 -20 -5 -20 -11z"/>
<path d="M1410 4351 c23 -7 23 -8 5 -13 -18 -5 -18 -5 -1 -4 11 1 21 7 24 14
2 8 -6 12 -25 11 l-28 -1 25 -7z"/>
<path d="M1817 4354 c-9 -10 2 -24 19 -24 8 0 14 7 14 15 0 15 -21 21 -33 9z"/>
<path d="M2690 4350 c-9 -6 -10 -10 -3 -10 6 0 15 5 18 10 8 12 4 12 -15 0z"/>
<path d="M2893 4333 c-19 -40 -17 -43 25 -42 20 1 29 3 20 6 -10 2 -18 10 -18
16 0 7 -4 6 -10 -3 -8 -13 -10 -12 -10 3 0 10 8 17 20 17 11 0 20 7 20 15 0
25 -34 17 -47 -12z"/>
<path d="M3125 4350 c3 -5 10 -10 16 -10 5 0 9 5 9 10 0 6 -7 10 -16 10 -8 0
-12 -4 -9 -10z"/>
<path d="M3684 4348 c-3 -4 1 -8 8 -8 8 0 6 -5 -4 -11 -29 -16 -22 -39 11 -39
26 0 29 3 28 33 -1 25 -5 33 -20 33 -10 0 -21 -4 -23 -8z m36 -38 c0 -5 -6
-10 -14 -10 -8 0 -18 5 -21 10 -3 6 3 10 14 10 12 0 21 -4 21 -10z"/>
<path d="M4345 4343 c14 -35 17 -48 7 -34 -5 7 -12 9 -14 5 -3 -5 -3 -3 -2 4
2 6 -3 12 -11 12 -8 0 -15 -9 -15 -20 0 -16 7 -20 34 -20 32 0 34 2 33 33 -1
25 -5 33 -19 33 -11 0 -16 -5 -13 -13z"/>
<path d="M4196 4334 c-9 -22 -8 -24 9 -24 8 0 15 6 15 14 0 22 -17 28 -24 10z"/>
<path d="M4269 4342 c11 -8 11 -10 0 -15 -11 -4 -11 -6 1 -6 13 -1 13 -2 0
-12 -13 -9 -13 -10 0 -6 8 2 15 12 15 22 0 10 -7 20 -15 22 -12 4 -12 3 -1 -5z"/>
<path d="M4540 4339 c0 -5 5 -7 10 -4 6 3 10 1 10 -5 0 -6 5 -8 10 -5 17 10
11 25 -10 25 -11 0 -20 -5 -20 -11z"/>
<path d="M3093 4323 c-3 -10 -8 -21 -10 -25 -2 -5 12 -8 31 -8 31 0 36 3 35
23 -1 16 -2 18 -6 5 -5 -21 -23 -24 -23 -5 0 8 -4 7 -11 -3 -9 -12 -10 -11 -6
8 6 26 -1 30 -10 5z"/>
<path d="M3870 4330 c0 -5 7 -10 16 -10 8 0 12 5 9 10 -3 6 -10 10 -16 10 -5
0 -9 -4 -9 -10z"/>
<path d="M960 4319 c0 -5 -4 -7 -10 -4 -5 3 -10 1 -10 -4 0 -6 4 -11 9 -11 5
0 18 -3 28 -7 15 -6 16 -4 5 9 -10 13 -10 17 0 21 8 4 7 6 -4 6 -10 1 -18 -4
-18 -10z"/>
<path d="M1176 4323 c-18 -18 -3 -33 32 -32 20 1 29 3 20 6 -10 2 -18 8 -18
13 0 10 -26 20 -34 13z"/>
<path d="M2690 4320 c0 -5 -7 -6 -17 -3 -11 4 -14 3 -9 -5 10 -17 33 -15 40 3
3 8 1 15 -4 15 -6 0 -10 -4 -10 -10z"/>
<path d="M1395 4313 c11 -3 23 -10 27 -16 4 -6 10 -8 13 -5 13 13 -6 28 -33
27 -21 -1 -23 -2 -7 -6z"/>
<path d="M1790 4305 c0 -10 10 -15 33 -15 23 0 28 3 17 9 -8 6 -18 7 -22 5 -4
-3 -8 0 -8 5 0 6 -4 11 -10 11 -5 0 -10 -7 -10 -15z"/>
<path d="M4758 4309 c-8 -6 1 -9 25 -9 20 0 37 2 37 4 0 9 -50 12 -62 5z"/>
<path d="M1610 4300 c0 -5 5 -10 11 -10 5 0 7 5 4 10 -3 6 -8 10 -11 10 -2 0
-4 -4 -4 -10z"/>
<path d="M4110 4300 c0 -5 5 -10 11 -10 5 0 7 5 4 10 -3 6 -8 10 -11 10 -2 0
-4 -4 -4 -10z"/>
<path d="M4520 4302 c0 -4 9 -15 20 -25 18 -16 20 -15 30 3 15 27 13 30 -20
30 -16 0 -30 -3 -30 -8z"/>
<path d="M130 4270 c0 -5 5 -10 10 -10 6 0 10 5 10 10 0 6 -4 10 -10 10 -5 0
-10 -4 -10 -10z"/>
<path d="M248 4273 c7 -3 16 -2 19 1 4 3 -2 6 -13 5 -11 0 -14 -3 -6 -6z"/>
<path d="M303 4273 c13 -3 17 -11 13 -25 -3 -15 -2 -18 6 -10 15 15 2 42 -19
41 -17 -1 -17 -2 0 -6z"/>
<path d="M341 4264 c0 -11 3 -14 6 -6 3 7 2 16 -1 19 -3 4 -6 -2 -5 -13z"/>
<path d="M395 4270 c3 -5 8 -10 11 -10 2 0 4 5 4 10 0 6 -5 10 -11 10 -5 0 -7
-4 -4 -10z"/>
<path d="M433 4263 c-3 -10 -7 -20 -9 -23 -1 -3 6 -6 17 -6 10 0 19 4 19 8 0
4 -4 8 -10 8 -5 0 -7 7 -4 15 4 8 3 15 0 15 -4 0 -9 -8 -13 -17z"/>
<path d="M472 4255 c0 -16 2 -22 5 -12 2 9 2 23 0 30 -3 6 -5 -1 -5 -18z"/>
<path d="M510 4255 c0 -22 2 -24 14 -13 9 8 10 15 4 19 -6 4 -5 9 3 12 10 4 9
6 -3 6 -13 1 -18 -7 -18 -24z"/>
<path d="M563 4265 c0 -8 4 -12 9 -9 4 3 8 9 8 15 0 5 -4 9 -8 9 -5 0 -9 -7
-9 -15z"/>
<path d="M612 4255 c0 -16 2 -22 5 -12 2 9 2 23 0 30 -3 6 -5 -1 -5 -18z"/>
<path d="M650 4255 c0 -22 2 -24 14 -13 9 8 10 15 4 19 -6 4 -5 9 3 12 10 4 9
6 -3 6 -13 1 -18 -7 -18 -24z"/>
<path d="M733 4264 c-3 -8 -1 -20 5 -26 8 -8 9 -4 5 12 -5 19 -3 22 11 17 10
-4 15 -3 11 3 -9 15 -25 12 -32 -6z"/>
<path d="M791 4264 c0 -11 3 -14 6 -6 3 7 2 16 -1 19 -3 4 -6 -2 -5 -13z"/>
<path d="M810 4255 c0 -20 3 -26 9 -17 7 11 9 11 14 -2 8 -21 37 -21 37 0 0
13 -3 14 -14 5 -10 -9 -15 -8 -19 3 -4 9 1 20 11 25 9 6 12 11 5 11 -6 0 -15
-5 -19 -11 -4 -8 -9 -7 -15 2 -6 10 -9 5 -9 -16z"/>
<path d="M126 4242 c-2 -4 4 -8 14 -8 10 0 16 4 14 8 -3 4 -9 8 -14 8 -5 0
-11 -4 -14 -8z"/>
<path d="M170 4240 c0 -5 5 -10 10 -10 6 0 10 5 10 10 0 6 -4 10 -10 10 -5 0
-10 -4 -10 -10z"/>
<path d="M4251 4225 c1 -19 18 -51 18 -35 0 8 -4 22 -9 30 -5 8 -9 11 -9 5z"/>
<path d="M4310 4200 c0 -16 4 -30 8 -30 5 0 8 14 8 30 0 17 -3 30 -8 30 -4 0
-8 -13 -8 -30z"/>
<path d="M5199 4073 l-24 -28 28 24 c15 14 27 26 27 28 0 8 -8 1 -31 -24z"/>
<path d="M3316 4055 c-9 -23 -8 -25 9 -25 17 0 19 9 6 28 -7 11 -10 10 -15 -3z"/>
<path d="M3458 4047 c-3 -17 0 -23 14 -23 10 0 18 4 18 8 0 4 -4 8 -10 8 -5 0
-7 7 -4 15 4 8 2 15 -4 15 -5 0 -12 -10 -14 -23z"/>
<path d="M3525 4060 c4 -6 11 -8 16 -5 14 9 11 15 -7 15 -8 0 -12 -5 -9 -10z"/>
<path d="M3372 4038 c2 -6 11 -13 19 -16 12 -3 12 -2 0 6 -11 8 -11 10 0 15
10 4 8 6 -4 6 -10 1 -17 -4 -15 -11z"/>
<path d="M708 4007 c-3 -19 -2 -25 4 -19 6 6 8 18 6 28 -3 14 -5 12 -10 -9z"/>
<path d="M3824 4018 c-3 -4 4 -8 15 -8 11 0 22 4 25 8 2 4 -4 8 -15 8 -11 0
-23 -4 -25 -8z"/>
<path d="M4890 4015 c0 -8 2 -15 4 -15 2 0 6 7 10 15 3 8 1 15 -4 15 -6 0 -10
-7 -10 -15z"/>
<path d="M731 4004 c0 -11 3 -14 6 -6 3 7 2 16 -1 19 -3 4 -6 -2 -5 -13z"/>
<path d="M751 4004 c0 -11 3 -14 6 -6 3 7 2 16 -1 19 -3 4 -6 -2 -5 -13z"/>
<path d="M771 4004 c0 -11 3 -14 6 -6 3 7 2 16 -1 19 -3 4 -6 -2 -5 -13z"/>
<path d="M791 4004 c0 -11 3 -14 6 -6 3 7 2 16 -1 19 -3 4 -6 -2 -5 -13z"/>
<path d="M811 4004 c0 -11 3 -14 6 -6 3 7 2 16 -1 19 -3 4 -6 -2 -5 -13z"/>
<path d="M831 3998 c0 -22 1 -22 8 -3 l8 20 5 -20 c5 -18 6 -18 7 3 1 13 -5
22 -14 22 -9 0 -15 -9 -14 -22z"/>
<path d="M5078 3953 c7 -3 16 -2 19 1 4 3 -2 6 -13 5 -11 0 -14 -3 -6 -6z"/>
<path d="M3842 3878 c-2 -48 -5 -56 -18 -51 -15 5 -15 3 1 -21 16 -25 18 -25
31 -9 16 21 18 37 5 28 -6 -3 -12 19 -14 52 l-3 58 -2 -57z"/>
<path d="M4048 3896 c-23 -17 -23 -23 3 -37 15 -8 19 -8 15 0 -5 8 11 11 49
11 31 0 54 4 51 8 -3 5 -28 7 -55 5 -42 -3 -50 -1 -45 12 7 18 4 18 -18 1z"/>
<path d="M4315 3875 c0 -13 3 -21 8 -18 4 2 7 10 7 18 0 8 -3 16 -7 18 -5 3
-8 -5 -8 -18z"/>
<path d="M566 3792 c-3 -5 1 -9 9 -9 8 0 12 4 9 9 -3 4 -7 8 -9 8 -2 0 -6 -4
-9 -8z"/>
<path d="M605 3770 c-4 -6 -3 -16 3 -22 6 -6 12 -6 17 2 4 6 3 16 -3 22 -6 6
-12 6 -17 -2z"/>
<path d="M640 3760 c0 -11 2 -20 4 -20 2 0 6 9 9 20 3 11 1 20 -4 20 -5 0 -9
-9 -9 -20z"/>
<path d="M714 3769 c-3 -6 -1 -16 5 -22 9 -9 10 -7 5 7 -6 15 -4 17 6 11 9 -5
11 -4 6 3 -9 15 -13 15 -22 1z"/>
<path d="M798 3759 c20 -23 23 -24 15 -2 -4 11 -3 14 5 9 7 -4 12 -3 12 2 0 5
-11 10 -24 10 -22 0 -23 -2 -8 -19z"/>
<path d="M840 3770 c0 -5 7 -7 15 -4 8 4 15 8 15 10 0 2 -7 4 -15 4 -8 0 -15
-4 -15 -10z"/>
<path d="M691 3754 c0 -11 3 -14 6 -6 3 7 2 16 -1 19 -3 4 -6 -2 -5 -13z"/>
<path d="M567 3749 c7 -7 15 -10 18 -7 3 3 -2 9 -12 12 -14 6 -15 5 -6 -5z"/>
<path d="M850 3750 c-13 -8 -12 -10 3 -10 9 0 17 5 17 10 0 12 -1 12 -20 0z"/>
<path d="M2770 3685 c0 -22 2 -24 14 -13 9 8 10 15 4 19 -6 4 -5 9 3 12 10 4
9 6 -3 6 -13 1 -18 -7 -18 -24z"/>
<path d="M725 3539 c-4 -6 -4 -13 -1 -16 3 -4 6 -1 6 6 0 7 5 9 12 5 7 -4 8
-3 4 4 -9 15 -13 15 -21 1z"/>
<path d="M398 3517 c-3 -19 -2 -25 4 -19 6 6 8 18 6 28 -3 14 -5 12 -10 -9z"/>
<path d="M568 3517 c-3 -19 -2 -25 4 -19 6 6 8 18 6 28 -3 14 -5 12 -10 -9z"/>
<path d="M782 3515 c0 -16 2 -22 5 -12 2 9 2 23 0 30 -3 6 -5 -1 -5 -18z"/>
<path d="M442 3510 c0 -14 2 -19 5 -12 2 6 2 18 0 25 -3 6 -5 1 -5 -13z"/>
<path d="M604 3510 c0 -13 4 -16 10 -10 7 7 7 13 0 20 -6 6 -10 3 -10 -10z"/>
<path d="M664 3519 c-3 -6 -1 -16 5 -22 9 -9 10 -7 5 7 -5 13 -4 17 4 12 7 -4
12 -2 12 3 0 14 -17 14 -26 0z"/>
<path d="M761 3514 c0 -11 3 -14 6 -6 3 7 2 16 -1 19 -3 4 -6 -2 -5 -13z"/>
<path d="M846 3519 c3 -6 0 -15 -7 -20 -11 -7 -10 -9 4 -9 10 0 17 8 17 20 0
11 -5 20 -11 20 -5 0 -7 -5 -3 -11z"/>
<path d="M736 3503 c-6 -14 -5 -15 5 -6 7 7 10 15 7 18 -3 3 -9 -2 -12 -12z"/>
<path d="M800 3511 c0 -5 5 -13 10 -16 6 -3 10 -2 10 4 0 5 -4 13 -10 16 -5 3
-10 2 -10 -4z"/>
<path d="M460 3500 c0 -5 5 -10 11 -10 5 0 7 5 4 10 -3 6 -8 10 -11 10 -2 0
-4 -4 -4 -10z"/>
<path d="M4602 3465 c0 -16 2 -22 5 -12 2 9 2 23 0 30 -3 6 -5 -1 -5 -18z"/>
<path d="M3944 3335 c3 -8 1 -15 -4 -15 -6 0 -10 -4 -10 -8 0 -4 9 -8 20 -8
13 0 19 5 15 14 -3 7 -5 18 -5 23 0 5 -5 9 -11 9 -6 0 -9 -7 -5 -15z"/>
<path d="M4000 3342 c0 -6 6 -13 13 -15 9 -4 8 -8 -3 -16 -13 -9 -13 -11 3
-11 21 0 22 23 2 40 -9 8 -15 8 -15 2z"/>
<path d="M682 3265 c0 -16 2 -22 5 -12 2 9 2 23 0 30 -3 6 -5 -1 -5 -18z"/>
<path d="M744 3259 c0 -10 4 -19 8 -19 4 0 8 6 8 14 0 8 -4 17 -8 20 -4 2 -8
-4 -8 -15z"/>
<path d="M792 3255 c0 -16 2 -22 5 -12 2 9 2 23 0 30 -3 6 -5 -1 -5 -18z"/>
<path d="M771 3254 c0 -11 3 -14 6 -6 3 7 2 16 -1 19 -3 4 -6 -2 -5 -13z"/>
<path d="M810 3258 c0 -8 11 -15 25 -16 18 -1 25 3 24 16 0 10 -3 12 -6 5 -3
-9 -10 -10 -24 -3 -14 8 -19 7 -19 -2z"/>
<path d="M632 3046 c7 -8 15 -12 17 -11 5 6 -10 25 -20 25 -5 0 -4 -6 3 -14z"/>
<path d="M842 3025 c3 -33 16 -33 14 0 0 14 -4 25 -8 25 -4 0 -7 -11 -6 -25z"/>
<path d="M621 3024 c0 -11 3 -14 6 -6 3 7 2 16 -1 19 -3 4 -6 -2 -5 -13z"/>
<path d="M661 3024 c0 -11 3 -14 6 -6 3 7 2 16 -1 19 -3 4 -6 -2 -5 -13z"/>
<path d="M722 3026 c7 -8 17 -12 22 -9 4 3 2 9 -5 14 -22 13 -31 11 -17 -5z"/>
<path d="M800 3021 c0 -6 4 -13 10 -16 6 -3 7 1 4 9 -7 18 -14 21 -14 7z"/>
<path d="M761 3004 c0 -11 3 -14 6 -6 3 7 2 16 -1 19 -3 4 -6 -2 -5 -13z"/>
<path d="M3190 2945 c0 -22 2 -24 14 -13 8 7 10 15 5 16 -5 2 -7 8 -3 13 3 5
0 9 -5 9 -6 0 -11 -11 -11 -25z"/>
<path d="M5324 2924 c-18 -14 -18 -15 4 -4 12 6 22 13 22 15 0 8 -5 6 -26 -11z"/>
<path d="M5267 2868 c-31 -31 -31 -32 -2 -8 16 14 34 28 40 32 5 5 6 8 2 8 -4
0 -22 -15 -40 -32z"/>
<path d="M3857 2873 c-3 -5 -1 -17 4 -28 7 -17 8 -17 8 8 1 27 -4 34 -12 20z"/>
<path d="M4410 2870 c0 -5 7 -7 15 -4 8 4 15 8 15 10 0 2 -7 4 -15 4 -8 0 -15
-4 -15 -10z"/>
<path d="M596 2811 c-3 -5 2 -15 12 -22 15 -13 16 -12 4 3 -10 13 -10 17 0 21
9 4 9 6 1 6 -6 1 -14 -3 -17 -8z"/>
<path d="M802 2790 c0 -19 2 -27 5 -17 2 9 2 25 0 35 -3 9 -5 1 -5 -18z"/>
<path d="M833 2803 c-7 -2 -13 -12 -13 -21 1 -15 2 -15 11 1 12 21 29 22 29 1
0 -8 -4 -12 -10 -9 -5 3 -10 1 -10 -4 0 -6 7 -11 16 -11 10 0 14 7 12 22 -3
23 -15 30 -35 21z"/>
<path d="M646 2785 c4 -8 8 -15 10 -15 2 0 4 7 4 15 0 8 -4 15 -10 15 -5 0 -7
-7 -4 -15z"/>
<path d="M686 2787 c3 -10 9 -15 12 -12 3 3 0 11 -7 18 -10 9 -11 8 -5 -6z"/>
<path d="M745 2789 c-4 -6 -4 -13 -1 -16 3 -4 6 -1 6 6 0 7 5 9 10 6 6 -3 10
-1 10 4 0 14 -17 14 -25 0z"/>
<path d="M781 2784 c0 -11 3 -14 6 -6 3 7 2 16 -1 19 -3 4 -6 -2 -5 -13z"/>
<path d="M710 2780 c0 -5 5 -10 10 -10 6 0 10 5 10 10 0 6 -4 10 -10 10 -5 0
-10 -4 -10 -10z"/>
<path d="M3340 2715 c0 -17 5 -25 18 -25 13 0 14 2 3 9 -7 5 -9 10 -3 12 6 2
4 9 -4 17 -12 11 -14 9 -14 -13z"/>
<path d="M5055 2731 c-3 -5 -2 -12 3 -15 5 -3 9 1 9 9 0 17 -3 19 -12 6z"/>
<path d="M3417 2713 c-10 -9 -9 -23 1 -23 5 0 9 7 9 15 0 17 -1 18 -10 8z"/>
<path d="M2760 2660 c0 -25 4 -31 18 -28 11 2 17 12 17 28 0 16 -6 26 -17 28
-14 3 -18 -3 -18 -28z m30 0 c0 -11 -4 -20 -10 -20 -5 0 -10 9 -10 20 0 11 5
20 10 20 6 0 10 -9 10 -20z"/>
<path d="M4268 2683 c7 -3 16 -2 19 1 4 3 -2 6 -13 5 -11 0 -14 -3 -6 -6z"/>
<path d="M5015 2660 c-4 -6 -10 -8 -14 -6 -4 3 -8 -5 -8 -16 -1 -11 -1 -19 0
-17 1 2 11 14 21 27 11 12 16 22 13 22 -3 0 -9 -5 -12 -10z"/>
<path d="M5039 2633 l-34 -38 38 34 c20 19 37 36 37 38 0 8 -8 0 -41 -34z"/>
<path d="M3561 2618 c-1 -20 4 -28 17 -28 13 0 14 2 4 9 -8 4 -13 11 -12 15 1
4 -1 12 -3 19 -3 6 -6 0 -6 -15z"/>
<path d="M2600 2615 c0 -8 4 -15 8 -15 5 0 9 7 9 15 0 8 -4 15 -9 15 -4 0 -8
-7 -8 -15z"/>
<path d="M4207 2623 c-11 -10 -8 -41 4 -49 6 -3 16 -1 22 5 9 9 8 11 -5 6 -14
-6 -18 -2 -18 15 0 16 4 20 16 16 8 -3 12 -2 9 4 -7 12 -19 13 -28 3z"/>
<path d="M2483 2601 c-9 -14 -9 -22 -2 -27 15 -9 21 1 17 26 -3 21 -3 21 -15
1z"/>
<path d="M2572 2600 c0 -14 2 -19 5 -12 2 6 2 18 0 25 -3 6 -5 1 -5 -13z"/>
<path d="M4868 2603 c6 -2 18 -2 25 0 6 3 1 5 -13 5 -14 0 -19 -2 -12 -5z"/>
<path d="M690 2541 c0 -6 4 -12 8 -15 5 -3 9 1 9 9 0 8 -4 15 -9 15 -4 0 -8
-4 -8 -9z"/>
<path d="M721 2523 c1 -22 2 -23 6 -8 3 11 10 23 17 27 7 5 5 8 -6 8 -13 0
-18 -7 -17 -27z"/>
<path d="M777 2529 c4 -13 8 -18 11 -10 2 7 -1 18 -6 23 -8 8 -9 4 -5 -13z"/>
<path d="M801 2534 c0 -11 3 -14 6 -6 3 7 2 16 -1 19 -3 4 -6 -2 -5 -13z"/>
<path d="M843 2530 c-1 -13 4 -20 15 -19 10 0 12 3 5 5 -7 3 -9 12 -6 20 3 8
1 14 -4 14 -5 0 -9 -9 -10 -20z"/>
<path d="M647 2519 c7 -7 15 -10 18 -7 3 3 -2 9 -12 12 -14 6 -15 5 -6 -5z"/>
<path d="M2460 2242 l0 -272 198 2 197 3 -192 2 -193 3 0 110 c0 91 3 110 15
110 8 0 15 9 15 20 0 11 -6 20 -14 20 -11 0 -14 26 -15 132 -1 73 -4 134 -6
137 -3 2 -5 -118 -5 -267z m30 -22 c0 -5 -4 -10 -10 -10 -5 0 -10 5 -10 10 0
6 5 10 10 10 6 0 10 -4 10 -10z"/>
<path d="M3575 2480 c-3 -6 1 -17 9 -26 15 -14 16 -14 16 0 0 9 -5 16 -11 16
-5 0 -7 5 -4 10 3 6 4 10 1 10 -3 0 -8 -5 -11 -10z"/>
<path d="M3970 2465 c0 -8 4 -15 10 -15 5 0 7 7 4 15 -4 8 -8 15 -10 15 -2 0
-4 -7 -4 -15z"/>
<path d="M4462 2460 c0 -14 2 -19 5 -12 2 6 2 18 0 25 -3 6 -5 1 -5 -13z"/>
<path d="M4497 2460 c-3 -11 -1 -20 4 -20 5 0 9 9 9 20 0 11 -2 20 -4 20 -2 0
-6 -9 -9 -20z"/>
<path d="M1520 2440 c0 -24 4 -31 17 -28 11 2 17 12 17 28 0 16 -6 26 -17 28
-13 3 -17 -4 -17 -28z m26 0 c0 -11 -4 -20 -8 -20 -4 0 -8 9 -8 20 0 11 4 20
8 20 4 0 8 -9 8 -20z"/>
<path d="M1592 2446 c2 -15 7 -26 13 -26 14 0 11 43 -4 48 -8 3 -12 -4 -9 -22z"/>
<path d="M2561 2358 c1 -24 3 -35 6 -26 2 9 13 20 24 23 27 9 20 39 -9 43 -20
3 -22 -1 -21 -40z m37 20 c-6 -18 -28 -21 -28 -4 0 9 7 16 16 16 9 0 14 -5 12
-12z"/>
<path d="M2623 2365 c0 -22 2 -30 4 -17 2 12 2 30 0 40 -3 9 -5 -1 -4 -23z"/>
<path d="M4816 2375 c-9 -26 -7 -32 5 -12 6 10 9 21 6 23 -2 3 -7 -2 -11 -11z"/>
<path d="M1520 2350 c0 -22 5 -30 18 -30 14 0 15 2 2 10 -13 9 -13 11 0 20 13
9 13 10 0 10 -13 0 -13 1 0 10 13 8 12 10 -2 10 -13 0 -18 -8 -18 -30z"/>
<path d="M1724 2366 c-8 -22 3 -49 19 -43 6 2 12 14 12 27 0 27 -22 39 -31 16z
m26 -16 c0 -11 -4 -20 -10 -20 -5 0 -10 9 -10 20 0 11 5 20 10 20 6 0 10 -9
10 -20z"/>
<path d="M1900 2376 c0 -2 7 -7 16 -10 8 -3 12 -2 9 4 -6 10 -25 14 -25 6z"/>
<path d="M2300 2376 c0 -2 7 -7 16 -10 8 -3 12 -2 9 4 -6 10 -25 14 -25 6z"/>
<path d="M2645 2371 c-3 -6 0 -9 7 -6 9 4 14 -2 15 -15 1 -11 -3 -20 -8 -20
-6 0 -7 5 -4 10 3 6 1 10 -4 10 -6 0 -11 -7 -11 -15 0 -8 9 -15 21 -15 16 0
20 5 17 27 -3 28 -22 41 -33 24z"/>
<path d="M2697 2372 c8 -5 9 -13 3 -22 -14 -22 -12 -30 8 -30 11 0 13 3 5 8
-8 5 -9 13 -3 22 14 22 12 30 -7 30 -12 0 -14 -3 -6 -8z"/>
<path d="M2740 2369 c0 -5 5 -7 10 -4 6 3 10 2 10 -3 0 -6 -8 -13 -17 -16 -11
-5 -13 -10 -6 -17 14 -14 42 -1 38 19 -2 9 -4 20 -4 25 -1 11 -31 8 -31 -4z"/>
<path d="M3140 2360 c0 -6 7 -10 15 -10 8 0 15 2 15 4 0 2 -7 6 -15 10 -8 3
-15 1 -15 -4z"/>
<path d="M4415 2360 c-3 -5 -3 -10 2 -10 4 0 2 -4 -5 -9 -11 -7 -11 -9 2 -14
12 -5 16 0 16 18 0 27 -5 31 -15 15z"/>
<path d="M4470 2360 c0 -5 5 -10 10 -10 6 0 10 5 10 10 0 6 -4 10 -10 10 -5 0
-10 -4 -10 -10z"/>
<path d="M4545 2360 c-3 -5 -3 -10 2 -10 4 0 3 -4 -3 -8 -9 -5 -8 -11 2 -20
12 -11 14 -8 14 18 0 31 -4 37 -15 20z"/>
<path d="M4348 2343 c7 -3 16 -2 19 1 4 3 -2 6 -13 5 -11 0 -14 -3 -6 -6z"/>
<path d="M1910 2330 c-9 -6 -10 -10 -3 -10 6 0 15 5 18 10 8 12 4 12 -15 0z"/>
<path d="M2310 2330 c-9 -6 -10 -10 -3 -10 6 0 15 5 18 10 8 12 4 12 -15 0z"/>
<path d="M4460 2332 c0 -4 9 -8 19 -8 11 0 17 4 15 8 -3 4 -12 8 -20 8 -8 0
-14 -4 -14 -8z"/>
<path d="M4048 2323 c7 -3 16 -2 19 1 4 3 -2 6 -13 5 -11 0 -14 -3 -6 -6z"/>
<path d="M4801 2284 c0 -11 3 -14 6 -6 3 7 2 16 -1 19 -3 4 -6 -2 -5 -13z"/>
<path d="M373 2267 c3 -10 2 -17 -3 -17 -6 0 -10 -4 -10 -10 0 -5 7 -7 15 -4
18 7 20 30 3 40 -8 5 -9 2 -5 -9z"/>
<path d="M514 2269 c-3 -6 -1 -15 6 -19 7 -4 9 -13 5 -20 -5 -9 -4 -11 3 -6
15 9 16 36 1 36 -5 0 -7 5 -4 10 3 6 4 10 1 10 -3 0 -8 -5 -12 -11z"/>
<path d="M570 2269 c0 -5 5 -7 10 -4 6 3 10 8 10 11 0 2 -4 4 -10 4 -5 0 -10
-5 -10 -11z"/>
<path d="M606 2264 c-7 -18 10 -44 28 -44 6 0 4 5 -4 10 -13 9 -13 11 0 20 13
9 13 10 0 10 -13 0 -13 1 0 10 13 8 13 10 -1 10 -9 0 -20 -7 -23 -16z"/>
<path d="M681 2270 c0 -8 4 -22 9 -30 12 -18 12 -2 0 25 -6 13 -9 15 -9 5z"/>
<path d="M712 2250 c0 -19 2 -27 5 -17 2 9 2 25 0 35 -3 9 -5 1 -5 -18z"/>
<path d="M735 2261 c-4 -13 -4 -25 -1 -28 3 -4 6 2 7 13 0 18 1 18 9 -1 6 -13
9 -15 9 -5 0 8 -3 21 -8 29 -7 11 -10 9 -16 -8z"/>
<path d="M814 2265 c-3 -8 -4 -20 -1 -27 3 -7 6 -2 6 11 1 17 5 21 17 17 8 -3
12 -2 9 4 -9 15 -25 12 -31 -5z"/>
<path d="M2641 2240 c1 -42 1 -43 10 -18 7 18 7 33 0 45 -8 14 -10 9 -10 -27z"/>
<path d="M2685 2268 c-3 -7 -1 -26 4 -43 9 -29 9 -29 10 13 1 41 -5 54 -14 30z"/>
<path d="M778 2248 c2 -10 6 -18 7 -18 1 0 5 8 7 18 3 11 0 19 -7 19 -7 0 -10
-8 -7 -19z"/>
<path d="M2790 2237 c0 -20 3 -37 8 -37 9 0 8 57 -1 67 -4 3 -7 -10 -7 -30z"/>
<path d="M2573 2253 c-7 -3 -13 -17 -12 -31 0 -15 3 -20 6 -12 14 43 16 44 23
15 l8 -30 1 27 c1 29 -7 38 -26 31z"/>
<path d="M2724 2249 c-4 -8 -3 -9 4 -5 7 4 12 3 12 -2 0 -6 -7 -12 -15 -16
-22 -8 -18 -26 5 -26 15 0 20 7 20 24 0 28 -15 42 -26 25z"/>
<path d="M2853 2253 c-7 -2 -13 -17 -12 -31 0 -15 3 -20 6 -12 14 42 17 44 23
10 l7 -35 2 38 c1 37 -2 40 -26 30z"/>
<path d="M410 2240 c0 -5 5 -10 10 -10 6 0 10 5 10 10 0 6 -4 10 -10 10 -5 0
-10 -4 -10 -10z"/>
<path d="M487 2243 c-10 -9 -9 -23 1 -23 5 0 9 7 9 15 0 17 -1 18 -10 8z"/>
<path d="M2528 2231 c-23 -23 -23 -31 2 -31 15 0 20 7 20 25 0 29 0 29 -22 6z"/>
<path d="M2760 2225 c0 -14 2 -25 4 -25 2 0 6 11 8 25 3 14 1 25 -3 25 -5 0
-9 -11 -9 -25z"/>
<path d="M2822 2225 c0 -16 2 -22 5 -12 2 9 2 23 0 30 -3 6 -5 -1 -5 -18z"/>
<path d="M570 2230 c0 -5 5 -10 11 -10 5 0 7 5 4 10 -3 6 -8 10 -11 10 -2 0
-4 -4 -4 -10z"/>
<path d="M2660 2215 c0 -8 5 -15 10 -15 6 0 10 7 10 15 0 8 -4 15 -10 15 -5 0
-10 -7 -10 -15z"/>
<path d="M4747 2223 c-10 -9 -9 -23 1 -23 5 0 9 7 9 15 0 17 -1 18 -10 8z"/>
<path d="M4793 2059 c0 -86 -2 -160 -5 -165 -10 -18 -3 -69 10 -68 6 1 24 2
40 3 26 2 26 2 7 17 -15 11 -17 17 -7 23 14 9 14 8 12 144 -1 95 -2 97 -25 97
-22 0 -24 5 -28 53 -2 28 -4 -18 -4 -104z"/>
<path d="M2044 2178 c3 -9 0 -19 -7 -21 -7 -2 -10 -7 -7 -10 3 -3 12 -2 19 2
11 7 11 13 1 27 -9 15 -10 15 -6 2z"/>
<path d="M4313 2175 c0 -8 4 -12 9 -9 5 3 6 10 3 15 -9 13 -12 11 -12 -6z"/>
<path d="M2940 2172 c0 -5 7 -9 15 -9 8 0 12 4 9 9 -3 4 -9 8 -15 8 -5 0 -9
-4 -9 -8z"/>
<path d="M3723 2167 c3 -10 2 -17 -3 -17 -6 0 -10 -4 -10 -10 0 -5 7 -7 15 -4
18 7 20 30 3 40 -8 5 -9 2 -5 -9z"/>
<path d="M1724 2159 c-4 -7 -3 -9 4 -5 6 3 15 -2 21 -11 6 -10 11 -13 11 -7 0
20 -27 37 -36 23z"/>
<path d="M3107 2163 c-3 -5 -1 -17 4 -28 7 -17 8 -17 8 8 1 27 -4 34 -12 20z"/>
<path d="M3205 2160 c-3 -6 1 -7 9 -4 18 7 21 14 7 14 -6 0 -13 -4 -16 -10z"/>
<path d="M3276 2155 c4 -8 10 -12 15 -9 11 6 2 24 -11 24 -5 0 -7 -7 -4 -15z"/>
<path d="M3030 2141 c0 -6 4 -13 10 -16 6 -3 7 1 4 9 -7 18 -14 21 -14 7z"/>
<path d="M3787 2143 c-13 -12 -7 -23 11 -22 10 0 12 3 4 6 -6 2 -10 9 -6 14 6
10 0 12 -9 2z"/>
<path d="M2940 2128 c0 -4 4 -8 9 -8 6 0 12 4 15 8 3 5 -1 9 -9 9 -8 0 -15 -4
-15 -9z"/>
<path d="M1720 2120 c0 -6 7 -10 15 -10 8 0 15 2 15 4 0 2 -7 6 -15 10 -8 3
-15 1 -15 -4z"/>
<path d="M3206 2118 c3 -5 10 -6 15 -3 13 9 11 12 -6 12 -8 0 -12 -4 -9 -9z"/>
<path d="M3270 2120 c0 -6 7 -10 15 -10 8 0 15 2 15 4 0 2 -7 6 -15 10 -8 3
-15 1 -15 -4z"/>
<path d="M2120 2085 c0 -15 6 -25 14 -25 24 0 26 15 5 33 -18 16 -19 16 -19
-8z"/>
<path d="M2191 2103 c0 -5 4 -17 9 -28 8 -18 9 -17 9 8 1 15 -3 27 -9 27 -5 0
-10 -3 -9 -7z"/>
<path d="M451 1980 c0 -8 4 -22 9 -30 12 -18 12 -2 0 25 -6 13 -9 15 -9 5z"/>
<path d="M482 1965 c0 -16 2 -22 5 -12 2 9 2 23 0 30 -3 6 -5 -1 -5 -18z"/>
<path d="M632 1970 c0 -14 2 -19 5 -12 2 6 2 18 0 25 -3 6 -5 1 -5 -13z"/>
<path d="M662 1965 c0 -16 2 -22 5 -12 2 9 2 23 0 30 -3 6 -5 -1 -5 -18z"/>
<path d="M722 1960 c0 -14 2 -19 5 -12 2 6 2 18 0 25 -3 6 -5 1 -5 -13z"/>
<path d="M851 1962 c-1 -15 -5 -21 -13 -16 -10 5 -10 4 -1 -6 17 -18 26 -8 20
22 l-4 23 -2 -23z"/>
<path d="M391 1954 c0 -11 3 -14 6 -6 3 7 2 16 -1 19 -3 4 -6 -2 -5 -13z"/>
<path d="M561 1954 c0 -11 3 -14 6 -6 3 7 2 16 -1 19 -3 4 -6 -2 -5 -13z"/>
<path d="M586 1953 c-6 -14 -5 -15 5 -6 7 7 10 15 7 18 -3 3 -9 -2 -12 -12z"/>
<path d="M681 1954 c0 -11 3 -14 6 -6 3 7 2 16 -1 19 -3 4 -6 -2 -5 -13z"/>
<path d="M761 1954 c0 -11 3 -14 6 -6 3 7 2 16 -1 19 -3 4 -6 -2 -5 -13z"/>
<path d="M801 1954 c0 -11 3 -14 6 -6 3 7 2 16 -1 19 -3 4 -6 -2 -5 -13z"/>
<path d="M1140 1940 c0 -5 5 -10 10 -10 6 0 10 5 10 10 0 6 -4 10 -10 10 -5 0
-10 -4 -10 -10z"/>
<path d="M2857 1933 c-3 -5 -1 -17 4 -28 7 -17 8 -17 8 8 1 27 -4 34 -12 20z"/>
<path d="M2884 1926 c-6 -17 2 -36 17 -36 12 0 12 37 -1 45 -6 3 -13 -1 -16
-9z m13 -18 c-3 -8 -6 -5 -6 6 -1 11 2 17 5 13 3 -3 4 -12 1 -19z"/>
<path d="M2742 1905 c0 -16 2 -22 5 -12 2 9 2 23 0 30 -3 6 -5 -1 -5 -18z"/>
<path d="M2778 1905 c-3 -14 -1 -25 3 -25 5 0 9 11 9 25 0 14 -2 25 -4 25 -2
0 -6 -11 -8 -25z"/>
<path d="M2514 1895 c-4 -11 -9 -23 -11 -27 -1 -3 6 -4 17 -1 22 6 24 11 10
33 -7 12 -10 11 -16 -5z"/>
<path d="M2581 1903 c0 -5 4 -17 9 -28 8 -18 9 -17 9 8 1 15 -3 27 -9 27 -5 0
-10 -3 -9 -7z"/>
<path d="M1136 1842 c-2 -4 4 -8 14 -8 10 0 16 4 14 8 -3 4 -9 8 -14 8 -5 0
-11 -4 -14 -8z"/>
<path d="M5027 1833 c-3 -5 -4 -19 -3 -32 1 -22 6 -25 54 -29 50 -3 52 -3 52
22 0 19 -5 26 -20 26 -11 0 -20 5 -20 10 0 12 -57 14 -63 3z"/>
<path d="M5150 1805 c0 -39 6 -43 26 -17 13 16 13 16 14 0 0 -15 9 -18 50 -18
28 0 50 -4 50 -10 0 -14 16 -12 33 5 8 8 17 11 21 8 3 -3 19 -6 36 -5 16 0 30
-4 30 -10 0 -6 6 -6 15 2 8 7 15 23 15 36 0 27 7 26 -137 25 -56 0 -105 4
-108 9 -3 6 -15 10 -26 10 -15 0 -19 -7 -19 -35z"/>
<path d="M4816 1813 c-20 -5 -46 -27 -46 -38 0 -3 9 -15 20 -27 17 -19 28 -86
21 -130 -1 -11 17 -10 39 2 14 8 18 18 15 43 -3 17 -5 52 -6 77 -1 52 -7 80
-17 79 -4 -1 -16 -4 -26 -6z"/>
<path d="M4700 1763 c0 -22 2 -25 10 -13 9 13 11 13 20 0 8 -12 9 -9 7 10 -6
37 -37 39 -37 3z"/>
<path d="M576 1713 c5 -5 12 -12 16 -18 4 -6 8 -2 8 8 0 9 -7 17 -17 17 -9 0
-12 -3 -7 -7z"/>
<path d="M611 1704 c0 -11 3 -14 6 -6 3 7 2 16 -1 19 -3 4 -6 -2 -5 -13z"/>
<path d="M651 1704 c0 -11 3 -14 6 -6 3 7 2 16 -1 19 -3 4 -6 -2 -5 -13z"/>
<path d="M671 1704 c0 -11 3 -14 6 -6 3 7 2 16 -1 19 -3 4 -6 -2 -5 -13z"/>
<path d="M791 1704 c0 -11 3 -14 6 -6 3 7 2 16 -1 19 -3 4 -6 -2 -5 -13z"/>
<path d="M838 1693 c7 -3 16 -2 19 1 4 3 -2 6 -13 5 -11 0 -14 -3 -6 -6z"/>
<path d="M2576 1635 c4 -8 7 -15 9 -15 2 0 5 7 9 15 3 9 0 15 -9 15 -9 0 -12
-6 -9 -15z"/>
<path d="M4370 1635 c0 -5 5 -17 10 -25 5 -8 10 -10 10 -5 0 6 -5 17 -10 25
-5 8 -10 11 -10 5z"/>
<path d="M4600 1603 c0 -22 2 -25 10 -13 9 13 11 13 20 0 8 -12 10 -9 10 13 0
20 -5 27 -20 27 -15 0 -20 -7 -20 -27z"/>
<path d="M4677 1623 c-4 -3 -7 -16 -7 -27 0 -16 2 -18 9 -7 7 11 9 11 14 0 4
-10 6 -9 6 4 1 9 -5 17 -11 17 -9 0 -8 4 2 10 8 5 10 10 4 10 -6 0 -14 -3 -17
-7z"/>
<path d="M4835 1495 c4 -59 11 -121 16 -139 5 -17 6 -45 3 -62 -7 -36 14 -51
48 -33 17 9 19 17 13 47 -4 21 -9 55 -11 77 -3 22 -10 67 -15 100 -6 33 -11
71 -12 85 -1 18 -9 26 -26 28 l-24 4 8 -107z m55 -200 c10 -12 10 -15 -2 -15
-8 0 -15 7 -15 15 0 8 1 15 2 15 2 0 8 -7 15 -15z"/>
<path d="M4356 1535 c-9 -26 -7 -32 5 -12 6 10 9 21 6 23 -2 3 -7 -2 -11 -11z"/>
<path d="M841 1473 l1 -28 7 25 8 25 6 -25 5 -25 -1 24 c-3 36 -27 40 -26 4z"/>
<path d="M671 1474 c0 -11 3 -14 6 -6 3 7 2 16 -1 19 -3 4 -6 -2 -5 -13z"/>
<path d="M710 1471 c0 -25 6 -27 13 -6 4 8 2 17 -3 20 -6 4 -10 -3 -10 -14z"/>
<path d="M775 1470 c-3 -5 -1 -10 4 -10 6 0 11 5 11 10 0 6 -2 10 -4 10 -3 0
-8 -4 -11 -10z"/>
<path d="M800 1471 c0 -6 4 -13 10 -16 6 -3 7 1 4 9 -7 18 -14 21 -14 7z"/>
<path d="M4178 1403 c7 -3 16 -2 19 1 4 3 -2 6 -13 5 -11 0 -14 -3 -6 -6z"/>
<path d="M430 1234 c0 -15 3 -23 8 -18 4 5 10 11 13 14 4 3 1 11 -7 18 -12 11
-14 8 -14 -14z"/>
<path d="M532 1235 c0 -16 2 -22 5 -12 2 9 2 23 0 30 -3 6 -5 -1 -5 -18z"/>
<path d="M512 1230 c0 -14 2 -19 5 -12 2 6 2 18 0 25 -3 6 -5 1 -5 -13z"/>
<path d="M652 1230 c0 -14 2 -19 5 -12 2 6 2 18 0 25 -3 6 -5 1 -5 -13z"/>
<path d="M842 1230 c0 -14 2 -19 5 -12 2 6 2 18 0 25 -3 6 -5 1 -5 -13z"/>
<path d="M4884 1235 c-4 -8 -3 -23 0 -32 4 -9 1 -20 -6 -25 -10 -6 -8 -8 5 -8
9 0 17 -5 17 -11 0 -5 -6 -7 -12 -3 -8 5 -7 0 2 -11 8 -10 15 -34 15 -54 0
-33 2 -36 29 -36 16 0 31 6 34 13 2 6 -3 12 -12 12 -9 0 -16 5 -16 10 0 6 5
10 11 10 8 0 9 11 4 33 -8 37 -16 87 -18 105 -1 17 -46 15 -53 -3z"/>
<path d="M551 1224 c0 -11 3 -14 6 -6 3 7 2 16 -1 19 -3 4 -6 -2 -5 -13z"/>
<path d="M570 1225 c0 -8 2 -15 4 -15 2 0 6 7 10 15 3 8 1 15 -4 15 -6 0 -10
-7 -10 -15z"/>
<path d="M601 1224 c0 -11 3 -14 6 -6 3 7 2 16 -1 19 -3 4 -6 -2 -5 -13z"/>
<path d="M631 1224 c0 -11 3 -14 6 -6 3 7 2 16 -1 19 -3 4 -6 -2 -5 -13z"/>
<path d="M670 1226 c0 -9 3 -15 8 -15 20 3 32 -2 26 -13 -4 -7 -3 -8 4 -4 7 4
12 17 12 29 0 17 -2 19 -9 8 -8 -12 -12 -12 -25 -2 -13 11 -16 11 -16 -3z"/>
<path d="M751 1224 c0 -11 3 -14 6 -6 3 7 2 16 -1 19 -3 4 -6 -2 -5 -13z"/>
<path d="M776 1225 c-3 -8 -1 -15 4 -15 6 0 10 7 10 15 0 8 -2 15 -4 15 -2 0
-6 -7 -10 -15z"/>
<path d="M801 1224 c0 -11 3 -14 6 -6 3 7 2 16 -1 19 -3 4 -6 -2 -5 -13z"/>
<path d="M821 1224 c0 -11 3 -14 6 -6 3 7 2 16 -1 19 -3 4 -6 -2 -5 -13z"/>
<path d="M710 991 c0 -5 5 -13 11 -17 8 -4 7 -9 -2 -15 -11 -7 -10 -9 4 -9 21
0 22 16 2 36 -8 9 -15 11 -15 5z"/>
<path d="M792 975 c0 -16 2 -22 5 -12 2 9 2 23 0 30 -3 6 -5 -1 -5 -18z"/>
<path d="M812 975 c0 -16 2 -22 5 -12 2 9 2 23 0 30 -3 6 -5 -1 -5 -18z"/>
<path d="M765 980 c4 -7 2 -16 -6 -21 -11 -7 -10 -9 4 -9 19 0 23 25 5 36 -7
5 -8 3 -3 -6z"/>
<path d="M838 983 c7 -3 16 -2 19 1 4 3 -2 6 -13 5 -11 0 -14 -3 -6 -6z"/>
<path d="M838 953 c7 -3 16 -2 19 1 4 3 -2 6 -13 5 -11 0 -14 -3 -6 -6z"/>
<path d="M576 755 c-9 -23 -8 -25 9 -25 17 0 19 9 6 28 -7 11 -10 10 -15 -3z"/>
<path d="M845 750 c3 -5 8 -10 11 -10 2 0 4 5 4 10 0 6 -5 10 -11 10 -5 0 -7
-4 -4 -10z"/>
<path d="M614 724 c1 -25 11 -23 18 4 3 11 0 19 -7 19 -7 0 -12 -10 -11 -23z"/>
<path d="M661 734 c0 -11 3 -14 6 -6 3 7 2 16 -1 19 -3 4 -6 -2 -5 -13z"/>
<path d="M721 734 c0 -11 3 -14 6 -6 3 7 2 16 -1 19 -3 4 -6 -2 -5 -13z"/>
<path d="M740 735 c0 -6 6 -12 13 -12 8 0 14 6 14 12 0 6 -6 12 -14 12 -7 0
-13 -6 -13 -12z"/>
<path d="M845 720 c-3 -5 -1 -10 4 -10 6 0 11 5 11 10 0 6 -2 10 -4 10 -3 0
-8 -4 -11 -10z"/>
<path d="M5090 529 c0 -5 -22 -9 -50 -9 -27 0 -50 -4 -50 -10 0 -5 25 -10 56
-10 37 0 53 -4 48 -11 -4 -8 0 -8 15 0 27 15 27 37 1 44 -11 3 -20 1 -20 -4z"/>
<path d="M4895 520 c-18 -8 -17 -9 8 -9 16 -1 26 3 22 9 -3 6 -7 10 -8 9 -1 0
-11 -4 -22 -9z"/>
<path d="M4950 520 c0 -6 7 -10 15 -10 8 0 15 2 15 4 0 2 -7 6 -15 10 -8 3
-15 1 -15 -4z"/>
<path d="M577 513 c-4 -3 -7 -14 -7 -24 0 -13 5 -17 17 -12 11 4 12 8 5 11 -7
2 -12 8 -12 14 0 6 7 7 16 4 8 -3 12 -2 9 4 -7 12 -19 13 -28 3z"/>
<path d="M4550 510 c0 -5 7 -7 15 -4 8 4 15 8 15 10 0 2 -7 4 -15 4 -8 0 -15
-4 -15 -10z"/>
<path d="M4652 515 c9 -9 68 -12 68 -4 0 5 -16 9 -37 9 -20 0 -34 -2 -31 -5z"/>
<path d="M4780 516 c0 -10 28 -13 41 -5 10 6 7 9 -13 9 -16 0 -28 -2 -28 -4z"/>
<path d="M4848 513 c7 -3 16 -2 19 1 4 3 -2 6 -13 5 -11 0 -14 -3 -6 -6z"/>
<path d="M627 483 c5 -12 3 -14 -7 -8 -9 5 -11 4 -6 -3 11 -19 26 -14 26 8 0
11 -4 20 -10 20 -5 0 -6 -7 -3 -17z"/>
<path d="M652 480 c0 -14 2 -19 5 -12 2 6 2 18 0 25 -3 6 -5 1 -5 -13z"/>
<path d="M692 480 c0 -14 2 -19 5 -12 2 6 2 18 0 25 -3 6 -5 1 -5 -13z"/>
<path d="M732 475 c0 -16 2 -22 5 -12 2 9 2 23 0 30 -3 6 -5 -1 -5 -18z"/>
<path d="M751 484 c0 -11 3 -14 6 -6 3 7 2 16 -1 19 -3 4 -6 -2 -5 -13z"/>
<path d="M806 487 c3 -10 9 -15 12 -12 3 3 0 11 -7 18 -10 9 -11 8 -5 -6z"/>
<path d="M4650 480 c0 -6 7 -10 15 -10 8 0 15 2 15 4 0 2 -7 6 -15 10 -8 3
-15 1 -15 -4z"/>
<path d="M833 465 c0 -8 4 -12 9 -9 4 3 8 9 8 15 0 5 -4 9 -8 9 -5 0 -9 -7 -9
-15z"/>
<path d="M4698 473 c6 -2 12 -16 12 -29 0 -14 -4 -22 -10 -19 -5 3 -10 -1 -10
-9 0 -11 10 -16 33 -16 26 1 29 2 15 11 -22 12 -23 29 -3 29 8 0 15 8 14 18 0
10 -3 12 -6 5 -2 -7 -9 -13 -14 -13 -6 0 -8 4 -5 9 5 8 -17 22 -32 20 -4 0 -1
-3 6 -6z"/>
<path d="M4808 473 c7 -3 16 -2 19 1 4 3 -2 6 -13 5 -11 0 -14 -3 -6 -6z"/>
<path d="M4935 470 c-4 -6 -11 -8 -16 -5 -5 4 -9 -8 -9 -24 0 -17 5 -31 11
-31 5 0 7 5 4 10 -3 6 1 10 10 10 9 0 13 -4 10 -10 -3 -5 -1 -10 4 -10 6 0 11
7 11 15 0 8 -7 15 -16 15 -8 0 -12 5 -9 10 4 6 11 8 16 5 5 -4 9 -2 9 4 0 15
-18 23 -25 11z"/>
<path d="M5120 459 c0 -5 5 -7 10 -4 6 3 10 1 10 -4 0 -6 -4 -11 -10 -11 -5 0
-10 -15 -10 -33 0 -18 -5 -38 -12 -45 -9 -9 -9 -12 1 -12 11 0 11 -3 1 -15
-11 -13 -8 -15 18 -15 29 0 30 2 34 48 5 76 -1 102 -23 102 -10 0 -19 -5 -19
-11z m30 -64 c0 -8 -2 -15 -4 -15 -2 0 -6 7 -10 15 -3 8 -1 15 4 15 6 0 10 -7
10 -15z"/>
<path d="M4904 374 c-8 -32 4 -43 36 -33 21 6 22 7 5 8 -19 2 -19 2 -2 15 25
19 21 36 -8 36 -18 0 -26 -7 -31 -26z m41 6 c-3 -5 -10 -10 -16 -10 -5 0 -9 5
-9 10 0 6 7 10 16 10 8 0 12 -4 9 -10z"/>
<path d="M4708 358 c-2 -13 -1 -42 1 -66 3 -38 5 -41 19 -30 12 10 14 10 8 1
-4 -7 -2 -13 3 -13 19 0 12 30 -6 31 -15 0 -15 2 2 9 l20 9 -20 1 -20 1 20 8
20 8 -20 5 c-16 5 -17 6 -2 7 12 1 17 9 17 29 0 20 -3 23 -9 12 -6 -8 -7 -18
-5 -22 3 -4 0 -8 -6 -8 -7 0 -10 7 -7 15 4 8 2 17 -3 20 -5 3 -10 -5 -12 -17z"/>
<path d="M3390 306 c0 -29 17 -43 33 -27 9 9 8 11 -5 6 -10 -4 -18 -3 -18 3 0
5 7 13 16 16 18 7 10 26 -12 26 -8 0 -14 -10 -14 -24z"/>
<path d="M3468 323 c7 -3 16 -2 19 1 4 3 -2 6 -13 5 -11 0 -14 -3 -6 -6z"/>
<path d="M4908 284 c-3 -24 0 -38 9 -41 20 -8 43 4 43 22 0 9 -5 13 -10 10 -6
-4 -8 -11 -5 -16 4 -5 0 -9 -7 -9 -8 0 -14 9 -14 20 0 13 7 20 18 20 11 0 18
7 17 18 0 10 -3 12 -6 5 -2 -7 -11 -13 -19 -13 -9 0 -12 5 -9 10 3 6 2 10 -3
10 -6 0 -12 -16 -14 -36z"/>
<path d="M5148 295 c-4 -4 -4 -13 -1 -21 3 -8 0 -14 -7 -14 -6 0 -9 4 -5 9 3
5 1 12 -5 16 -5 3 -10 -3 -10 -14 0 -12 7 -21 16 -21 9 0 12 -5 8 -12 -5 -10
-4 -10 5 -2 7 6 11 24 9 39 -2 15 -6 24 -10 20z"/>
<path d="M851 228 c-1 -33 -21 -38 -22 -5 -1 18 -2 19 -6 3 -3 -10 0 -23 6
-29 16 -16 34 5 28 34 -4 22 -4 22 -6 -3z"/>
<path d="M87 224 c4 -12 3 -15 -5 -10 -7 4 -12 3 -12 -2 0 -5 8 -12 19 -15 14
-3 17 0 14 14 -3 11 -9 22 -14 25 -5 3 -6 -3 -2 -12z"/>
<path d="M185 230 c3 -5 8 -10 11 -10 2 0 4 5 4 10 0 6 -5 10 -11 10 -5 0 -7
-4 -4 -10z"/>
<path d="M212 215 c0 -16 2 -22 5 -12 2 9 2 23 0 30 -3 6 -5 -1 -5 -18z"/>
<path d="M240 231 c0 -5 -2 -16 -5 -23 -4 -9 2 -14 15 -14 13 0 19 5 15 14 -3
7 -5 18 -5 23 0 5 -4 9 -10 9 -5 0 -10 -4 -10 -9z"/>
<path d="M280 221 c0 -20 2 -21 15 -11 8 7 15 18 14 24 0 6 -3 5 -6 -3 -5 -11
-7 -11 -14 0 -6 10 -9 7 -9 -10z"/>
<path d="M351 221 c-1 -18 -5 -22 -18 -16 -15 5 -16 4 -5 -6 16 -17 36 2 29
27 -4 15 -5 14 -6 -5z"/>
<path d="M371 218 c-1 -21 4 -28 17 -28 11 0 13 3 6 8 -7 4 -14 16 -17 27 -4
15 -5 14 -6 -7z"/>
<path d="M411 218 c-1 -21 4 -28 17 -28 11 0 13 3 6 8 -7 4 -14 16 -17 27 -4
15 -5 14 -6 -7z"/>
<path d="M453 224 c-8 -22 13 -42 30 -25 10 10 8 11 -7 5 -16 -6 -18 -4 -14
14 7 25 0 30 -9 6z"/>
<path d="M500 218 c0 -19 2 -20 10 -8 13 19 13 30 0 30 -5 0 -10 -10 -10 -22z"/>
<path d="M532 215 c0 -16 2 -22 5 -12 2 9 2 23 0 30 -3 6 -5 -1 -5 -18z"/>
<path d="M633 226 c-9 -11 -9 -15 0 -19 7 -3 14 3 14 14 2 22 2 22 -14 5z"/>
<path d="M662 220 c0 -14 2 -19 5 -12 2 6 2 18 0 25 -3 6 -5 1 -5 -13z"/>
<path d="M681 218 c-1 -18 4 -28 13 -28 20 0 29 17 15 26 -8 4 -9 3 -5 -4 4
-7 3 -12 -3 -12 -5 0 -12 10 -14 23 -4 19 -4 18 -6 -5z"/>
<path d="M770 222 c0 -20 3 -21 20 -12 11 6 20 16 20 23 0 8 -4 6 -10 -3 -9
-13 -11 -13 -20 0 -8 12 -10 11 -10 -8z"/>
<path d="M4728 233 c6 -2 9 -10 6 -15 -4 -7 -2 -8 5 -4 13 9 5 26 -12 25 -9 0
-8 -2 1 -6z"/>
<path d="M126 215 c-9 -26 -7 -32 5 -12 6 10 9 21 6 23 -2 3 -7 -2 -11 -11z"/>
<path d="M4697 219 c7 -7 15 -10 18 -7 3 3 -2 9 -12 12 -14 6 -15 5 -6 -5z"/>
<path d="M577 199 c7 -7 15 -10 18 -7 3 3 -2 9 -12 12 -14 6 -15 5 -6 -5z"/>
<path d="M737 199 c7 -7 15 -10 18 -7 3 3 -2 9 -12 12 -14 6 -15 5 -6 -5z"/>
<path d="M5128 193 c7 -3 16 -2 19 1 4 3 -2 6 -13 5 -11 0 -14 -3 -6 -6z"/>
<path d="M4902 177 c2 -10 6 -18 11 -18 4 1 16 1 27 1 11 0 20 5 20 11 0 5 -5
7 -11 3 -6 -3 -15 0 -20 7 -7 12 -9 11 -9 -1 0 -13 -1 -13 -11 0 -8 13 -10 12
-7 -3z"/>
<path d="M5117 164 c3 -8 0 -26 -7 -40 -15 -28 -11 -35 24 -38 27 -3 36 8 14
17 -10 4 -10 6 0 6 7 1 12 15 12 36 0 31 -3 35 -25 35 -18 0 -23 -4 -18 -16z
m30 -29 c0 -8 -4 -15 -9 -15 -4 0 -8 7 -8 15 0 8 4 15 8 15 5 0 9 -7 9 -15z"/>
<path d="M4248 73 c7 -3 16 -2 19 1 4 3 -2 6 -13 5 -11 0 -14 -3 -6 -6z"/>
<path d="M5436 72 c-2 -4 -1 -14 4 -22 7 -11 9 -9 7 8 -1 24 -3 26 -11 14z"/>
<path d="M3960 50 c-13 -8 -12 -10 3 -10 9 0 17 5 17 10 0 12 -1 12 -20 0z"/>
<path d="M3998 43 c6 -2 18 -2 25 0 6 3 1 5 -13 5 -14 0 -19 -2 -12 -5z"/>
<path d="M4318 43 c6 -2 18 -2 25 0 6 3 1 5 -13 5 -14 0 -19 -2 -12 -5z"/>
</g>
</svg>
