<?xml version="1.0" standalone="no"?>
<!DOCTYPE svg PUBLIC "-//W3C//DTD SVG 20010904//EN"
 "http://www.w3.org/TR/2001/REC-SVG-20010904/DTD/svg10.dtd">
<svg version="1.0" xmlns="http://www.w3.org/2000/svg"
 width="720.000000pt" height="720.000000pt" viewBox="0 0 720.000000 720.000000"
 preserveAspectRatio="xMidYMid meet">
<metadata>
Created by potrace 1.16, written by Peter Selinger 2001-2019
</metadata>
<g transform="translate(0.000000,720.000000) scale(0.100000,-0.100000)"
fill="#000000" stroke="none">
<path d="M240 6336 l0 -615 48 -4 47 -3 -47 -2 -48 -2 0 -195 c0 -149 3 -195
13 -195 9 0 9 -2 -1 -8 -10 -7 -12 -152 -10 -694 l3 -687 45 18 c25 10 63 23
85 28 22 6 79 22 127 36 215 64 376 87 693 97 149 5 394 14 545 20 156 7 368
9 490 5 390 -12 352 -23 -70 -19 -427 3 -429 3 -205 -32 55 -9 136 -24 180
-35 98 -22 115 -23 595 -21 212 1 437 -2 500 -8 63 -6 142 -12 175 -15 l60 -4
-50 13 c-91 25 -6 17 160 -15 199 -38 386 -90 467 -129 l63 -30 -85 5 c-47 2
-173 10 -280 16 -200 12 -1072 5 -1275 -10 -86 -6 -69 -8 116 -9 l215 -2 25
-32 c13 -18 40 -58 60 -88 20 -30 57 -78 82 -106 52 -58 56 -69 27 -84 -11 -6
-20 -16 -20 -22 0 -5 15 1 34 15 30 24 35 25 55 11 11 -8 21 -22 21 -30 0 -8
5 -14 11 -14 5 0 8 -4 4 -10 -3 -5 -12 -7 -20 -3 -8 3 -15 0 -15 -6 0 -6 -6
-11 -12 -12 -7 0 -37 -30 -67 -66 l-54 -65 -47 4 c-38 4 -45 2 -36 -8 16 -18
84 -8 122 18 18 12 39 37 48 55 9 18 19 32 23 31 7 -2 39 13 101 45 12 6 22
15 22 19 0 5 8 8 18 8 9 0 64 15 122 34 77 25 96 34 73 35 -18 1 -47 -5 -65
-13 -18 -7 -71 -26 -117 -41 l-84 -26 -23 28 c-13 15 -23 32 -24 36 0 5 -8 7
-17 5 -11 -2 -26 7 -38 23 -11 15 -38 51 -60 80 -23 30 -49 73 -59 96 -10 23
-23 40 -28 36 -6 -3 -7 4 -3 18 4 16 3 19 -3 11 -7 -10 -11 -10 -21 2 -15 18
-44 15 268 22 l245 6 -18 -29 c-23 -35 -46 -54 -58 -47 -13 8 -38 -16 -38 -36
0 -10 -7 -21 -16 -24 -22 -9 -32 3 -14 14 13 8 12 10 -2 10 -24 0 -30 -15 -13
-30 11 -9 34 -11 80 -6 109 11 145 36 75 51 -17 4 -30 10 -30 13 0 4 16 24 35
45 28 29 43 37 70 37 30 0 136 -37 237 -84 60 -27 113 -50 133 -57 19 -7 19
-7 -2 -8 -13 -1 -23 -5 -23 -11 0 -5 -4 -10 -10 -10 -5 0 -7 7 -4 15 4 8 1 15
-5 15 -6 0 -11 -7 -11 -15 0 -18 -31 -20 -48 -3 -10 10 -15 10 -21 -1 -5 -8
-11 -9 -15 -3 -3 5 -17 10 -31 11 -48 3 -55 4 -55 13 0 4 11 8 25 8 14 0 25 5
25 11 0 12 -36 8 -85 -10 -16 -6 -65 -21 -107 -33 -43 -12 -78 -25 -78 -29 0
-10 40 -3 52 9 7 7 17 8 29 1 15 -7 17 -6 13 6 -4 11 0 15 16 15 11 0 18 -4
15 -10 -3 -6 1 -7 10 -4 8 4 21 2 28 -4 7 -5 34 -7 62 -3 113 14 144 -10 45
-34 -3 -1 -12 -4 -20 -8 -8 -3 -50 -16 -93 -28 -42 -12 -75 -24 -72 -27 2 -3
32 3 65 12 34 10 82 21 108 25 58 10 76 15 82 21 10 10 96 49 120 55 23 5 97
-17 110 -34 10 -13 103 -74 97 -64 -4 7 5 5 22 -3 28 -14 47 -41 36 -52 -2 -3
-26 -7 -52 -9 -35 -4 -68 2 -122 21 -41 14 -88 26 -104 26 -32 0 -32 -8 -1
-15 11 -2 49 -17 86 -34 37 -17 81 -31 97 -31 16 0 32 -6 34 -12 4 -10 6 -10
6 0 1 6 6 12 12 12 5 0 8 -4 4 -10 -6 -9 44 -40 65 -40 5 0 10 9 10 19 0 11 5
23 10 26 15 9 47 -3 54 -21 4 -9 2 -12 -5 -8 -8 4 -7 0 0 -15 7 -11 18 -21 26
-21 8 0 15 -4 15 -8 0 -5 19 -18 43 -30 24 -12 52 -31 62 -42 10 -11 24 -20
31 -20 7 0 33 -19 58 -43 78 -74 110 -97 146 -107 38 -10 103 -63 113 -93 4
-9 18 -22 33 -27 15 -6 40 -22 56 -35 16 -14 42 -25 56 -26 15 0 21 -3 14 -6
-6 -2 -10 -8 -7 -12 2 -5 -7 -6 -20 -3 -15 2 -25 0 -25 -7 0 -6 9 -11 20 -11
11 0 20 -5 20 -11 0 -5 -3 -8 -7 -6 -11 7 -125 -12 -138 -23 -6 -5 -41 -12
-78 -16 -37 -4 -67 -10 -67 -15 0 -4 -13 -10 -29 -14 -16 -3 -36 -13 -43 -22
-11 -14 -10 -15 9 -9 12 4 48 9 80 11 32 2 82 9 112 14 29 6 162 15 295 21
132 6 336 17 451 25 116 8 230 16 255 18 43 2 44 3 21 15 -13 8 -21 9 -17 4 3
-6 -11 -2 -31 8 -21 10 -54 21 -73 25 -19 4 -47 16 -62 26 -14 11 -29 19 -32
19 -4 0 -31 20 -62 45 -30 25 -96 73 -147 107 -51 34 -110 76 -131 95 -22 18
-43 33 -48 33 -11 0 -87 49 -115 75 -13 11 -40 29 -60 40 -21 10 -81 47 -133
80 -52 34 -123 76 -157 93 -34 18 -77 42 -95 54 -19 13 -54 32 -78 42 -40 17
-203 97 -285 140 -26 14 -27 16 -9 16 12 0 68 -25 125 -55 57 -30 120 -62 139
-71 19 -9 55 -26 80 -38 62 -31 334 -187 340 -195 10 -14 68 -51 79 -51 7 0
40 -21 74 -48 34 -26 96 -64 137 -85 41 -20 95 -56 120 -80 25 -24 67 -56 94
-71 28 -16 68 -46 90 -66 56 -51 133 -88 229 -109 45 -10 143 -33 217 -50 74
-18 194 -46 265 -63 72 -16 155 -38 185 -48 126 -40 220 -62 241 -57 11 3 18
3 14 -1 -5 -6 196 -76 373 -131 l62 -19 0 1956 c0 1207 -4 1951 -10 1942 -6
-9 -10 34 -12 125 -2 115 0 142 12 153 13 11 13 14 0 22 -31 20 -40 11 -40
-37 0 -35 3 -44 10 -33 7 11 10 4 10 -27 0 -48 -8 -75 -21 -67 -5 3 -9 -11 -9
-31 0 -36 -18 -65 -39 -65 -17 0 -13 69 4 86 13 14 15 13 16 -3 0 -10 6 -3 14
17 18 47 18 49 -5 43 -15 -4 -20 0 -20 16 0 11 -4 21 -9 21 -5 0 -11 9 -14 20
-4 16 -14 20 -51 20 -39 0 -46 -3 -46 -20 0 -11 -4 -20 -10 -20 -5 0 -10 9
-10 20 0 22 -35 29 -42 8 -3 -9 -9 -8 -21 4 -22 21 -21 28 2 28 18 0 36 36 22
44 -4 3 -65 5 -135 5 -71 1 -156 5 -190 11 -34 5 -111 11 -173 14 -61 2 -121
10 -133 16 -17 9 -33 9 -69 -1 -25 -7 -67 -13 -93 -14 -39 -1 -46 1 -37 12 7
8 32 13 65 13 29 0 55 4 58 9 3 5 -32 9 -79 9 l-85 1 7 -27 c6 -25 5 -26 -10
-10 -20 19 -56 33 -64 24 -4 -3 2 -6 12 -6 10 0 15 -3 11 -7 -4 -4 -114 -8
-244 -9 -130 -1 -270 -3 -310 -5 -39 -2 -72 -1 -72 4 0 4 7 7 15 7 8 0 15 5
15 11 0 6 -9 8 -20 4 -11 -4 -20 -2 -20 4 0 6 -13 11 -30 11 -16 0 -30 -4 -30
-10 0 -5 5 -9 11 -7 6 1 14 -4 16 -10 8 -23 -90 -16 -117 7 -27 23 -38 26 -21
6 9 -11 10 -20 2 -35 -12 -21 -41 -19 -41 4 0 7 -10 15 -21 18 -15 4 -20 11
-16 21 5 12 0 16 -20 16 -26 0 -26 -1 -7 -15 17 -13 11 -14 -61 -15 -55 0 -87
-5 -102 -15 -14 -10 -24 -12 -28 -5 -3 5 -1 10 4 10 6 0 11 5 11 11 0 8 -4 8
-15 -1 -8 -6 -19 -9 -24 -5 -7 3 -8 0 -5 -9 3 -9 10 -16 15 -16 5 0 9 -5 9
-10 0 -18 -42 10 -47 31 -5 17 -16 19 -122 20 -90 1 -109 3 -83 10 50 15 38
21 -24 13 -51 -6 -56 -5 -61 15 -5 21 -33 30 -33 11 0 -5 5 -10 12 -10 6 0 8
-3 4 -7 -4 -4 -46 -8 -94 -10 -113 -4 -183 -20 -189 -44 -7 -26 -33 -33 -33
-9 0 27 -18 25 -23 -2 -4 -20 -4 -20 -6 4 -1 21 -5 25 -21 21 -11 -3 -26 -1
-33 4 -22 18 -69 24 -139 17 -54 -5 -77 -13 -101 -33 -18 -14 -26 -18 -18 -8
8 10 11 20 8 23 -3 4 -40 6 -81 5 -45 -1 -76 3 -76 9 0 5 17 11 38 11 20 1 -3
6 -53 10 -49 5 -122 6 -161 3 -40 -4 -91 -2 -115 2 -38 8 -27 10 76 14 l120 6
-145 1 c-89 1 -137 -2 -125 -7 14 -6 16 -9 5 -10 -29 -4 -65 2 -68 11 -2 5
-18 8 -35 8 l-32 -1 30 -9 c18 -5 -46 -7 -156 -5 -102 2 -194 -1 -203 -6 -10
-6 -16 -5 -16 2 0 14 -376 14 -385 0 -4 -6 -13 -7 -23 -2 -19 10 -104 8 -121
-2 -6 -4 -11 -2 -11 4 0 6 -4 9 -9 5 -5 -3 -12 -1 -16 5 -9 15 -870 13 -895
-2 -17 -11 -22 -11 -28 0 -6 9 -53 12 -189 11 -159 -1 -180 -3 -179 -18 1 -10
-7 -16 -19 -16 -14 0 -19 6 -17 18 3 16 -16 17 -283 17 l-285 0 0 -614z m860
559 c0 -6 11 -22 24 -34 l24 -22 30 32 29 31 7 -34 c11 -57 64 -68 139 -27 16
9 18 7 11 -13 -8 -27 -53 -128 -57 -128 -2 0 -28 9 -60 20 -79 28 -194 26
-299 -6 -12 -4 -25 14 -55 73 -21 43 -40 82 -42 88 -2 5 12 -2 32 -18 54 -41
75 -37 79 16 l3 42 19 -37 c31 -61 67 -48 81 27 6 37 8 38 21 20 8 -10 14 -24
14 -30z m907 39 c-3 -3 -12 -4 -19 -1 -8 3 -5 6 6 6 11 1 17 -2 13 -5z m650
-10 c-3 -3 -12 -4 -19 -1 -8 3 -5 6 6 6 11 1 17 -2 13 -5z m-1239 -27 c2 -10
-3 -17 -12 -17 -18 0 -29 16 -21 31 9 14 29 6 33 -14z m1552 3 c0 -5 -4 -10
-9 -10 -6 0 -13 5 -16 10 -3 6 1 10 9 10 9 0 16 -4 16 -10z m30 6 c0 -3 -4 -8
-10 -11 -5 -3 -10 -1 -10 4 0 6 5 11 10 11 6 0 10 -2 10 -4z m60 -6 c0 -5 -7
-10 -16 -10 -8 0 -12 5 -9 10 3 6 10 10 16 10 5 0 9 -4 9 -10z m95 0 c3 -5 1
-10 -4 -10 -6 0 -11 5 -11 10 0 6 2 10 4 10 3 0 8 -4 11 -10z m122 -4 c10 -10
-81 -6 -97 4 -10 6 2 8 38 6 29 -2 56 -7 59 -10z m183 5 c0 -13 -43 -19 -66
-9 -17 8 -17 8 2 4 12 -2 28 0 35 5 18 11 29 11 29 0z m-90 -9 c0 -4 -9 -8
-19 -8 -11 0 -17 4 -15 8 3 4 12 8 20 8 8 0 14 -4 14 -8z m971 -13 l24 -21
-25 15 c-14 8 -35 17 -45 20 -18 4 -18 5 1 6 12 0 32 -8 45 -20z m62 14 c-7
-2 -13 -18 -13 -34 0 -16 -5 -29 -11 -29 -7 0 -9 10 -7 25 3 14 1 25 -6 25 -6
0 -4 5 4 10 8 5 22 9 30 9 10 0 11 -2 3 -6z m-878 -13 c-3 -5 -12 -10 -18 -10
-7 0 -6 4 3 10 19 12 23 12 15 0z m132 -37 c-3 -10 -5 -4 -5 12 0 17 2 24 5
18 2 -7 2 -21 0 -30z m-140 -55 c-2 -13 -4 -5 -4 17 -1 22 1 32 4 23 2 -10 2
-28 0 -40z m503 28 c0 -2 -7 -7 -16 -10 -8 -3 -12 -2 -9 4 6 10 25 14 25 6z
m155 -6 c-27 -12 -43 -12 -25 0 8 5 22 9 30 9 10 0 8 -3 -5 -9z m-509 -52
c-13 -37 -15 -39 -16 -15 0 25 20 71 28 63 2 -2 -3 -24 -12 -48z m155 34 c-7
-2 -18 1 -23 6 -8 8 -4 9 13 5 13 -4 18 -8 10 -11z m429 8 c0 -5 -8 -10 -17
-10 -15 0 -16 2 -3 10 19 12 20 12 20 0z m140 -20 c0 -16 -3 -30 -7 -30 -5 0
-8 14 -8 30 0 17 3 30 8 30 4 0 7 -13 7 -30z m501 9 c22 -11 17 -29 -9 -29
-14 0 -14 2 -3 9 11 7 10 11 -5 20 -24 14 -9 14 17 0z m1743 -4 c4 -10 -1 -15
-15 -15 -17 0 -18 2 -7 15 16 18 15 18 22 0z m-1664 -5 c-8 -5 -19 -10 -25
-10 -5 0 -3 5 5 10 8 5 20 10 25 10 6 0 3 -5 -5 -10z m-650 -16 c22 -9 40 -20
40 -26 0 -5 -12 -3 -27 5 -16 8 -39 20 -53 25 -14 6 -19 11 -13 11 7 1 31 -6
53 -15z m-1327 -1 c-7 -2 -21 -2 -30 0 -10 3 -4 5 12 5 17 0 24 -2 18 -5z
m2011 -46 c5 -20 4 -21 -8 -4 -7 9 -18 17 -25 17 -6 0 -11 4 -11 9 0 18 38 -1
44 -22z m-986 -48 c-3 -20 -5 -19 -9 9 -3 20 -2 29 4 23 5 -5 7 -19 5 -32z
m57 19 c-9 -6 -19 -7 -22 -4 -4 3 -1 6 6 6 7 0 9 4 6 10 -4 6 1 7 11 3 15 -6
15 -7 -1 -15z m292 0 c-3 -8 -6 -5 -6 6 -1 11 2 17 5 13 3 -3 4 -12 1 -19z
m-3046 -19 c50 -12 83 -72 77 -138 -5 -53 -34 -100 -60 -101 -28 0 -29 -16 -3
-40 l25 -23 0 21 c0 22 3 22 135 22 l135 0 0 -29 c0 -25 -4 -30 -27 -33 -28
-3 -28 -3 -31 -90 l-3 -87 48 -48 c26 -27 65 -68 87 -92 44 -49 105 -80 159
-81 35 0 37 -2 37 -31 l0 -31 -113 4 -112 3 -44 47 c-24 26 -46 46 -50 44 -3
-2 -5 -58 -3 -125 l3 -121 130 0 c108 0 136 3 167 19 38 20 82 56 82 69 0 4
15 23 33 43 27 31 36 35 55 28 12 -4 22 -12 22 -17 0 -21 -34 -91 -73 -149
l-41 -63 -80 0 c-45 0 -179 3 -298 7 -217 6 -218 6 -218 29 0 22 17 34 50 34
10 0 20 7 24 15 3 8 2 98 -1 200 l-6 185 -143 146 c-79 80 -148 143 -154 139
-6 -4 -10 -59 -10 -138 0 -147 9 -173 58 -179 19 -2 28 -9 30 -25 3 -23 3 -23
-141 -23 -123 0 -146 2 -151 16 -12 31 -6 44 18 44 40 0 59 27 52 74 -3 23 -8
120 -11 216 -7 211 -8 218 -40 226 -18 4 -25 13 -25 30 l0 24 188 -6 c103 -3
203 -10 223 -15z m2487 16 c-9 -9 -58 -13 -63 -6 -2 4 13 8 33 9 20 2 33 0 30
-3z m372 -5 c20 -6 21 -8 5 -8 -11 0 -31 4 -45 8 -20 6 -21 8 -5 8 11 0 31 -4
45 -8z m594 1 c19 -7 19 -8 -2 -13 -12 -4 -20 -2 -17 2 3 5 -1 11 -7 13 -7 3
-8 5 -3 6 6 0 19 -4 29 -8z m-1367 -23 c-3 -8 -6 -5 -6 6 -1 11 2 17 5 13 3
-3 4 -12 1 -19z m437 -8 c-6 -6 -10 -3 -10 10 0 13 4 16 10 10 7 -7 7 -13 0
-20z m42 19 c3 -6 1 -16 -6 -22 -10 -9 -11 -9 -5 2 4 8 2 17 -6 22 -9 6 -10 9
-2 9 6 0 15 -5 19 -11z m214 7 c0 -3 -4 -8 -10 -11 -5 -3 -10 -1 -10 4 0 6 5
11 10 11 6 0 10 -2 10 -4z m-290 -18 c0 -6 -3 -8 -7 -5 -3 4 -12 2 -20 -4 -8
-8 -13 -8 -13 -1 0 10 15 19 33 21 4 1 7 -4 7 -11z m231 -18 c-8 -4 -12 -17
-9 -27 3 -12 0 -20 -8 -20 -8 0 -14 5 -14 11 0 17 31 58 38 51 4 -3 0 -10 -7
-15z m229 -1 c0 -5 -4 -9 -10 -9 -5 0 -10 7 -10 16 0 8 5 12 10 9 6 -3 10 -10
10 -16z m265 -7 c-21 -5 -45 5 -45 17 0 5 13 4 31 -2 21 -8 26 -13 14 -15z
m-367 11 c-10 -2 -26 -2 -35 0 -10 3 -2 5 17 5 19 0 27 -2 18 -5z m720 -10
c-2 -10 -13 -19 -26 -20 -19 -3 -19 -2 -2 3 11 3 20 10 20 15 0 12 -37 12 -45
-1 -3 -5 -11 -10 -18 -10 -6 0 -2 7 9 15 28 21 66 20 62 -2z m-1058 -19 c0 -2
-9 0 -20 6 -11 6 -20 13 -20 16 0 2 9 0 20 -6 11 -6 20 -13 20 -16z m-603 -36
c-3 -8 -6 -5 -6 6 -1 11 2 17 5 13 3 -3 4 -12 1 -19z m430 -20 c-3 -8 -6 -5
-6 6 -1 11 2 17 5 13 3 -3 4 -12 1 -19z m2798 -49 c-13 -5 32 -8 127 -6 81 1
140 -1 130 -5 -24 -10 -292 -8 -292 2 0 10 19 18 40 19 10 0 8 -4 -5 -10z
m118 4 c-13 -2 -33 -2 -45 0 -13 2 -3 4 22 4 25 0 35 -2 23 -4z m287 -8 c0 -8
-4 -15 -10 -15 -5 0 -10 7 -10 15 0 8 5 15 10 15 6 0 10 -7 10 -15z m-1673
-102 c-3 -10 -5 -4 -5 12 0 17 2 24 5 18 2 -7 2 -21 0 -30z m1330 -90 c-3 -10
-5 -2 -5 17 0 19 2 27 5 18 2 -10 2 -26 0 -35z m-1512 -53 c3 -5 1 -10 -4 -10
-6 0 -11 5 -11 10 0 6 2 10 4 10 3 0 8 -4 11 -10z m1502 -52 c-2 -13 -4 -5 -4
17 -1 22 1 32 4 23 2 -10 2 -28 0 -40z m-1554 15 c-7 -2 -19 -2 -25 0 -7 3 -2
5 12 5 14 0 19 -2 13 -5z m1774 -15 c-3 -8 -6 -5 -6 6 -1 11 2 17 5 13 3 -3 4
-12 1 -19z m-2144 -58 c-3 -12 -8 -19 -11 -16 -5 6 5 36 12 36 2 0 2 -9 -1
-20z m-940 -5 c-3 -9 -8 -14 -10 -11 -3 3 -2 9 2 15 9 16 15 13 8 -4z m2454
-77 c-3 -7 -5 -2 -5 12 0 14 2 19 5 13 2 -7 2 -19 0 -25z m-467 -8 c0 -5 -2
-10 -4 -10 -3 0 -8 5 -11 10 -3 6 -1 10 4 10 6 0 11 -4 11 -10z m367 -22 c-3
-8 -6 -5 -6 6 -1 11 2 17 5 13 3 -3 4 -12 1 -19z m134 -31 c-10 -9 -11 -8 -5
6 3 10 9 15 12 12 3 -3 0 -11 -7 -18z m-410 -58 c-34 -28 -47 -23 -14 5 15 13
30 22 33 19 3 -2 -6 -13 -19 -24z m-184 -65 c-3 -3 -12 -4 -19 -1 -8 3 -5 6 6
6 11 1 17 -2 13 -5z m-47 -14 c-8 -5 -19 -10 -25 -10 -5 0 -3 5 5 10 8 5 20
10 25 10 6 0 3 -5 -5 -10z m997 -32 c-3 -8 -6 -5 -6 6 -1 11 2 17 5 13 3 -3 4
-12 1 -19z m-130 -75 c-2 -16 -4 -3 -4 27 0 30 2 43 4 28 2 -16 2 -40 0 -55z
m-697 33 c0 -2 -8 -10 -17 -17 -16 -13 -17 -12 -4 4 13 16 21 21 21 13z
m-4973 -161 c5 -120 12 -165 28 -165 8 0 17 -4 20 -10 4 -6 -23 -10 -75 -10
-45 0 -79 4 -76 9 6 9 -40 26 -62 22 -20 -3 -40 23 -47 63 -4 20 -11 36 -16
36 -5 0 -9 20 -9 44 0 26 -5 47 -12 50 -7 3 -4 5 7 5 11 -1 61 -1 110 0 136 2
83 19 -73 23 -74 1 -136 7 -139 11 -3 4 73 7 168 5 l174 -3 2 -80z m-307 45
c0 -5 -4 -10 -10 -10 -5 0 -10 5 -10 10 0 6 5 10 10 10 6 0 10 -4 10 -10z
m5247 -22 c-3 -8 -6 -5 -6 6 -1 11 2 17 5 13 3 -3 4 -12 1 -19z m499 -19 c1
-17 -1 -28 -4 -25 -3 3 -6 19 -7 36 -1 17 1 28 4 24 3 -3 6 -19 7 -35z m237 1
c3 -11 1 -18 -4 -14 -5 3 -9 12 -9 20 0 20 7 17 13 -6z m374 -46 c-3 -3 -12
-4 -19 -1 -8 3 -5 6 6 6 11 1 17 -2 13 -5z m-636 -57 c-10 -9 -11 -8 -5 6 3
10 9 15 12 12 3 -3 0 -11 -7 -18z m676 -9 c-3 -8 -6 -5 -6 6 -1 11 2 17 5 13
3 -3 4 -12 1 -19z m-6218 -62 c-8 -8 -98 -10 -105 -3 -4 4 19 7 51 7 32 0 56
-2 54 -4z m1074 -43 c-7 -2 -21 -2 -30 0 -10 3 -4 5 12 5 17 0 24 -2 18 -5z
m237 -3 c0 -9 -118 -3 -129 6 -2 2 26 4 62 4 37 0 67 -4 67 -10z m2215 -30
c-3 -5 -13 -10 -21 -10 -8 0 -12 5 -9 10 3 6 13 10 21 10 8 0 12 -4 9 -10z
m363 -7 c-43 -2 -113 -2 -155 0 -43 1 -8 3 77 3 85 0 120 -2 78 -3z m155 0
c-7 -2 -21 -2 -30 0 -10 3 -4 5 12 5 17 0 24 -2 18 -5z m-1106 -1689 c-3 -3
-12 -4 -19 -1 -8 3 -5 6 6 6 11 1 17 -2 13 -5z m603 -144 c13 -8 13 -10 -2
-10 -9 0 -20 5 -23 10 -8 13 5 13 25 0z m106 -67 c-2 -2 -17 3 -35 10 -17 7
-29 16 -25 19 3 4 18 -1 34 -10 16 -9 27 -18 26 -19z m-101 10 c-8 -7 -21 -10
-29 -7 -25 10 -18 21 13 21 24 0 27 -3 16 -14z m267 -93 c18 -11 29 -20 23
-20 -5 0 -23 9 -40 20 -39 26 -25 26 17 0z m68 -39 c0 -5 -9 -7 -20 -4 -11 3
-20 7 -20 9 0 2 9 4 20 4 11 0 20 -4 20 -9z m2190 -222 c0 -9 -6 -19 -13 -22
-9 -3 -12 5 -9 30 3 25 7 31 13 22 5 -8 9 -21 9 -30z m-1467 -139 c-4 -4 -28
-5 -53 -2 -37 4 -41 6 -20 12 30 7 85 0 73 -10z m-130 -7 c-7 -2 -19 -2 -25 0
-7 3 -2 5 12 5 14 0 19 -2 13 -5z m-160 -10 c-7 -2 -19 -2 -25 0 -7 3 -2 5 12
5 14 0 19 -2 13 -5z m102 -21 c-3 -3 -11 0 -18 7 -9 10 -8 11 6 5 10 -3 15 -9
12 -12z m-56 4 c-12 -10 -69 -24 -69 -16 0 5 8 11 18 13 22 6 57 8 51 3z m114
-3 c-7 -2 -19 -2 -25 0 -7 3 -2 5 12 5 14 0 19 -2 13 -5z m54 -9 c-3 -3 -12
-4 -19 -1 -8 3 -5 6 6 6 11 1 17 -2 13 -5z m-497 -83 c0 -13 -28 -22 -35 -11
-3 4 1 11 7 13 20 8 28 8 28 -2z"/>
<path d="M1115 6622 c-8 -9 -5 -116 4 -130 5 -9 26 -12 67 -10 53 3 60 6 72
31 15 30 11 61 -10 90 -9 12 -30 18 -70 21 -32 2 -60 1 -63 -2z"/>
<path d="M1380 6352 c0 -10 33 -42 43 -42 12 0 7 18 -9 34 -17 17 -34 21 -34
8z"/>
<path d="M474 5633 c-3 -12 -4 -28 -1 -35 4 -8 6 -7 6 5 1 21 8 22 28 2 14
-14 17 -14 30 2 8 10 12 12 8 6 -5 -10 8 -13 48 -13 48 0 55 3 60 22 4 12 5
23 4 24 -1 1 -42 4 -90 5 -84 4 -88 3 -93 -18z"/>
<path d="M676 5493 c-4 -9 -2 -21 4 -27 7 -7 10 -2 10 17 0 31 -5 34 -14 10z"/>
<path d="M618 5473 c7 -3 16 -2 19 1 4 3 -2 6 -13 5 -11 0 -14 -3 -6 -6z"/>
<path d="M3018 6943 c7 -3 16 -2 19 1 4 3 -2 6 -13 5 -11 0 -14 -3 -6 -6z"/>
<path d="M5451 6934 c0 -11 3 -14 6 -6 3 7 2 16 -1 19 -3 4 -6 -2 -5 -13z"/>
<path d="M5532 6934 c-4 -6 -14 -14 -22 -17 -8 -3 0 -6 18 -6 24 -1 32 3 33
17 0 10 3 12 6 4 3 -9 22 -11 71 -6 103 10 98 24 -7 22 -56 -2 -95 -7 -99 -14z"/>
<path d="M5757 6943 c18 -2 50 -2 70 0 21 2 7 4 -32 4 -38 0 -55 -2 -38 -4z"/>
<path d="M5925 6939 c52 -7 160 -23 205 -30 41 -6 90 2 90 15 0 22 -14 23
-190 24 -131 0 -153 -2 -105 -9z"/>
<path d="M5470 6909 c0 -17 -3 -20 -11 -12 -6 6 -19 8 -30 6 -30 -8 -22 -19
12 -19 31 1 58 29 39 41 -6 3 -10 -4 -10 -16z"/>
<path d="M4810 6900 c0 -5 11 -10 25 -10 14 0 25 5 25 10 0 6 -11 10 -25 10
-14 0 -25 -4 -25 -10z"/>
<path d="M5540 6890 c0 -11 106 -7 117 4 4 3 -21 6 -55 6 -36 0 -62 -4 -62
-10z"/>
<path d="M5685 6890 c28 -12 67 -12 60 0 -3 6 -23 10 -43 9 -30 0 -33 -2 -17
-9z"/>
<path d="M5250 6878 c0 -5 18 -8 40 -8 22 0 40 2 40 4 0 2 -18 6 -40 8 -22 2
-40 0 -40 -4z"/>
<path d="M6113 6883 c9 -2 23 -2 30 0 6 3 -1 5 -18 5 -16 0 -22 -2 -12 -5z"/>
<path d="M6278 6883 c6 -2 18 -2 25 0 6 3 1 5 -13 5 -14 0 -19 -2 -12 -5z"/>
<path d="M6982 6605 c0 -16 2 -22 5 -12 2 9 2 23 0 30 -3 6 -5 -1 -5 -18z"/>
<path d="M935 3995 c-55 -8 -136 -19 -180 -25 -111 -13 -253 -54 -487 -142
l-28 -10 0 -304 0 -304 33 -1 c49 -1 277 -47 237 -48 -19 0 -84 8 -144 19
-130 24 -126 24 -126 6 0 -10 19 -16 68 -21 37 -3 229 -36 427 -72 198 -36
380 -67 405 -70 25 -2 92 -13 150 -24 58 -12 128 -25 155 -29 28 -5 128 -25
223 -45 95 -19 184 -35 198 -35 16 0 36 -13 56 -36 18 -20 43 -40 57 -46 68
-25 303 -53 521 -61 l65 -2 -3 -38 c-4 -42 17 -59 49 -39 10 7 25 12 33 12 7
0 27 7 42 15 31 16 31 16 219 -20 77 -15 125 -20 136 -15 31 17 31 42 -1 92
-16 27 -30 55 -30 62 0 8 -7 19 -15 26 -8 7 -12 16 -9 21 3 5 -2 12 -11 15 -8
4 -49 54 -89 113 -41 58 -96 132 -123 163 -26 32 -61 75 -78 97 -112 149 -390
435 -513 529 -45 34 -85 62 -90 62 -4 0 -37 16 -74 35 -80 40 -238 95 -276 95
-15 0 -61 7 -102 16 -108 23 -559 28 -695 9z m895 -75 c8 -5 11 -10 5 -10 -5
0 -17 5 -25 10 -8 5 -10 10 -5 10 6 0 17 -5 25 -10z m41 -70 c5 0 9 -5 9 -11
0 -15 -43 -7 -48 10 -3 10 0 12 12 8 10 -4 22 -7 27 -7z m-111 -16 c0 -2 -9
-4 -21 -4 -11 0 -18 4 -14 10 5 8 35 3 35 -6z m-590 -38 c0 -10 -9 -12 -40 -6
-58 11 -61 20 -7 20 33 0 47 -4 47 -14z m537 -10 c29 8 39 -14 11 -25 -13 -5
-27 -6 -32 -3 -5 3 -6 0 -2 -6 11 -18 -4 -14 -53 15 -2 2 4 12 15 24 16 18 20
18 29 5 7 -9 20 -13 32 -10z m-1257 -46 c12 -8 11 -10 -7 -10 -13 0 -23 5 -23
10 0 13 11 13 30 0z m1228 -20 c12 -11 35 -20 52 -20 16 0 30 -5 30 -10 0 -8
-97 -9 -152 -1 -9 1 32 51 42 51 3 0 16 -9 28 -20z m-708 -10 c0 -5 -5 -10
-11 -10 -5 0 -7 5 -4 10 3 6 8 10 11 10 2 0 4 -4 4 -10z m144 1 c23 -1 26 -4
17 -15 -21 -25 -50 -26 -79 0 l-27 24 30 -4 c17 -2 43 -5 59 -5z m914 -116
c45 -7 58 -25 17 -25 -14 0 -25 -6 -26 -12 0 -10 -2 -10 -6 0 -2 6 -17 12 -31
12 -22 0 -27 5 -27 24 0 18 4 22 15 16 8 -4 34 -11 58 -15z m-388 -15 c0 -5
-7 -7 -15 -4 -8 4 -15 8 -15 10 0 2 7 4 15 4 8 0 15 -4 15 -10z m68 -11 c-12
-7 -24 -7 -35 0 -15 9 -12 10 17 10 29 0 32 -1 18 -10z m215 -10 c-8 -8 -25
-9 -60 -1 l-48 10 60 1 c43 1 56 -2 48 -10z m227 2 c0 -5 -9 -7 -20 -4 -11 3
-20 7 -20 9 0 2 9 4 20 4 11 0 20 -4 20 -9z m-163 -8 c-4 -3 1 -12 11 -19 15
-12 12 -13 -20 -12 -43 1 -46 5 -20 24 17 14 41 19 29 7z m229 -2 c-3 -5 -15
-7 -26 -4 -28 7 -25 13 6 13 14 0 23 -4 20 -9z m-799 -7 c-3 -3 -12 -4 -19 -1
-8 3 -5 6 6 6 11 1 17 -2 13 -5z m657 -1 c3 -4 16 -8 27 -10 38 -6 53 -20 22
-20 -16 0 -41 -3 -56 -7 -24 -6 -27 -4 -27 19 0 24 18 34 34 18z m-209 -13 c8
-13 -5 -13 -25 0 -13 8 -13 10 2 10 9 0 20 -4 23 -10z m-130 -6 c23 -9 -1 -23
-27 -16 -15 4 -17 7 -6 13 16 11 13 10 33 3z m-60 -34 c3 -5 1 -10 -4 -10 -6
0 -11 5 -11 10 0 6 2 10 4 10 3 0 8 -4 11 -10z m62 -6 c-3 -3 -12 -4 -19 -1
-8 3 -5 6 6 6 11 1 17 -2 13 -5z m56 -11 c-7 -2 -19 -2 -25 0 -7 3 -2 5 12 5
14 0 19 -2 13 -5z m658 -299 c34 -10 67 -27 81 -43 24 -26 47 -88 54 -145 5
-37 10 -42 27 -28 17 14 96 -22 145 -67 29 -27 31 -33 20 -51 -7 -11 -17 -19
-23 -17 -5 2 -15 -3 -21 -11 -9 -13 -14 -12 -32 6 -13 13 -35 22 -51 22 -28 0
-29 2 -24 33 4 24 0 39 -13 52 -12 12 -19 14 -22 6 -2 -7 3 -18 12 -24 11 -8
15 -19 10 -30 -9 -25 -33 -22 -27 4 5 20 4 20 -18 9 -18 -10 -91 -12 -329 -7
-168 4 -315 10 -328 13 -14 4 -21 12 -18 20 3 7 1 16 -4 19 -22 14 -7 49 42
101 68 72 154 114 278 135 124 22 172 22 241 3z m290 -21 c13 -16 12 -17 -3
-4 -17 13 -22 21 -14 21 2 0 10 -8 17 -17z m-1986 -18 c235 -45 589 -108 650
-115 75 -9 466 -88 474 -96 14 -14 -21 -11 -150 15 -137 28 -297 58 -544 101
-293 52 -611 111 -620 115 -19 9 111 -4 190 -20z m2016 -22 c13 -16 12 -17 -3
-4 -17 13 -22 21 -14 21 2 0 10 -8 17 -17z m30 -40 c13 -16 12 -17 -3 -4 -17
13 -22 21 -14 21 2 0 10 -8 17 -17z m34 -43 c10 -11 16 -20 13 -20 -3 0 -13 9
-23 20 -10 11 -16 20 -13 20 3 0 13 -9 23 -20z"/>
<path d="M2290 3850 c19 -13 30 -13 30 0 0 6 -10 10 -22 10 -19 0 -20 -2 -8
-10z"/>
<path d="M3625 3717 c-17 -13 -16 -14 5 -12 13 1 26 7 28 13 5 16 -10 15 -33
-1z"/>
<path d="M2630 3556 c0 -2 8 -10 18 -17 15 -13 16 -12 3 4 -13 16 -21 21 -21
13z"/>
<path d="M2920 3491 c0 -12 -49 -71 -58 -69 -16 3 -62 -15 -62 -24 0 -6 -8 -4
-17 3 -15 11 -14 10 1 -9 20 -23 32 -30 21 -12 -3 6 3 10 14 10 26 0 92 31 86
41 -3 4 7 21 21 38 20 24 22 31 10 31 -9 0 -16 -4 -16 -9z"/>
<path d="M2965 3443 l-50 -13 49 5 c46 5 65 11 55 18 -2 2 -26 -3 -54 -10z"/>
<path d="M2890 3270 c0 -5 5 -10 11 -10 5 0 7 5 4 10 -3 6 -8 10 -11 10 -2 0
-4 -4 -4 -10z"/>
<path d="M2930 3226 c0 -2 8 -10 18 -17 15 -13 16 -12 3 4 -13 16 -21 21 -21
13z"/>
<path d="M2970 3180 c0 -5 10 -15 23 -21 22 -12 22 -12 3 10 -21 23 -26 26
-26 11z"/>
<path d="M3010 3130 c0 -5 5 -10 11 -10 5 0 7 5 4 10 -3 6 -8 10 -11 10 -2 0
-4 -4 -4 -10z"/>
<path d="M3045 3090 c10 -11 20 -20 23 -20 3 0 -3 9 -13 20 -10 11 -20 20 -23
20 -3 0 3 -9 13 -20z"/>
<path d="M3110 3014 c25 -27 46 -49 48 -48 8 4 -15 33 -52 64 l-41 35 45 -51z"/>
<path d="M3171 2935 c19 -30 52 -65 59 -65 4 0 7 7 7 15 0 8 -4 12 -10 8 -5
-3 -22 10 -39 28 -17 19 -24 25 -17 14z"/>
<path d="M3778 2933 c-10 -2 -18 -8 -18 -11 0 -4 -56 -7 -125 -7 -69 0 -125
-3 -125 -7 0 -4 -8 -7 -17 -7 -10 -1 -52 -5 -93 -10 -41 -6 -83 -10 -93 -10
-11 -1 -21 -10 -24 -21 -4 -16 -9 -18 -24 -9 -21 11 -27 -5 -6 -18 16 -10 16
-10 96 -12 47 -1 74 -6 85 -16 15 -15 122 -32 256 -40 l65 -4 -65 13 c-36 7
-71 11 -79 8 -9 -4 -12 -1 -7 7 6 9 -1 11 -27 6 -20 -4 -43 -2 -53 3 -24 13
177 9 276 -7 55 -8 110 -9 205 -1 185 15 314 29 360 40 l40 9 -47 -3 c-28 -2
-49 1 -51 8 -3 6 -25 17 -51 25 -25 7 -44 16 -42 20 2 3 -26 6 -63 6 -36 0
-73 3 -81 6 -42 19 -108 30 -173 28 -40 0 -79 1 -87 4 -8 2 -23 3 -32 0z
m-291 -129 c-3 -3 -12 -4 -19 -1 -8 3 -5 6 6 6 11 1 17 -2 13 -5z"/>
<path d="M3270 2916 c0 -2 8 -10 18 -17 15 -13 16 -12 3 4 -13 16 -21 21 -21
13z"/>
<path d="M5710 2836 c0 -8 7 -17 16 -20 21 -8 26 -3 18 18 -8 20 -34 21 -34 2z"/>
<path d="M4960 2765 c0 -8 7 -15 16 -15 14 0 14 3 4 15 -7 8 -14 15 -16 15 -2
0 -4 -7 -4 -15z"/>
<path d="M3451 2714 c0 -11 3 -14 6 -6 3 7 2 16 -1 19 -3 4 -6 -2 -5 -13z"/>
<path d="M1094 2586 c-6 -17 22 -76 45 -93 20 -16 34 -16 25 -1 -5 8 -3 8 7 2
8 -5 39 -9 69 -9 136 -1 148 -4 152 -27 3 -23 43 -34 55 -15 3 6 1 7 -5 3 -7
-4 -12 -2 -12 3 0 6 6 11 14 11 8 0 16 6 19 14 4 9 0 12 -12 9 -12 -3 -20 2
-23 14 -4 12 -26 24 -69 37 -35 10 -90 26 -121 36 l-58 17 0 -23 c0 -13 -5
-24 -11 -24 -7 0 -9 10 -7 24 4 19 0 26 -16 30 -33 9 -46 7 -52 -8z"/>
<path d="M1487 2463 c-7 -22 -16 -192 -23 -419 l-5 -170 27 -12 c32 -15 158
-52 199 -59 17 -3 110 -29 208 -59 98 -29 193 -56 211 -59 l33 -7 7 226 c4
125 11 263 16 308 4 45 6 87 3 94 -2 6 -32 17 -66 23 -126 24 -536 126 -589
146 -11 4 -18 0 -21 -12z m73 -90 c0 -10 -6 -13 -16 -9 -9 3 -18 6 -20 6 -2 0
-4 6 -4 14 0 9 7 12 20 9 11 -3 20 -12 20 -20z m-27 -43 c-3 -11 0 -20 6 -20
6 0 11 9 11 21 0 11 4 17 10 14 6 -4 8 -15 5 -26 -4 -11 -2 -19 5 -19 6 0 8
-10 4 -24 -3 -13 -1 -34 6 -45 7 -14 7 -21 0 -21 -5 0 -10 -5 -10 -11 0 -7 9
-9 21 -6 15 4 19 3 12 -4 -21 -21 -48 -5 -49 26 -1 63 -4 75 -20 75 -10 0 -14
-6 -11 -15 4 -8 1 -17 -5 -21 -8 -5 -9 3 -5 26 4 18 7 41 7 51 0 11 4 19 9 19
5 0 7 -9 4 -20z m34 -265 c-2 -36 0 -68 5 -71 11 -7 10 -52 -2 -59 -5 -3 -10
-15 -10 -26 0 -10 -4 -19 -10 -19 -5 0 -10 10 -10 23 0 15 -9 29 -25 37 -29
15 -31 35 -10 104 17 55 31 76 52 76 12 0 14 -13 10 -65z m102 18 c13 -34 10
-198 -5 -213 -14 -14 -50 13 -62 50 -10 26 -9 30 7 30 11 0 21 -7 25 -15 3 -8
10 -15 16 -15 14 0 13 26 -2 50 -9 15 -9 24 1 44 8 13 11 32 8 41 -6 13 -10
13 -26 3 -27 -16 -37 -4 -23 27 15 34 47 32 61 -2z m107 -17 c16 -13 19 -27
19 -110 0 -75 -4 -99 -16 -112 -23 -23 -54 -4 -69 42 -18 53 -9 163 15 180 23
17 27 17 51 0z m112 -17 c12 -5 22 -11 22 -14 0 -2 -11 -48 -25 -101 -14 -53
-25 -105 -25 -116 0 -11 -5 -18 -12 -16 -21 7 -21 81 1 137 14 37 16 53 8 56
-43 12 -47 16 -47 45 0 28 2 30 28 24 15 -4 37 -11 50 -15z m120 -63 c2 -15
-3 -42 -11 -59 -9 -18 -18 -58 -22 -89 -11 -87 -29 -73 -22 16 4 40 9 81 13
90 5 12 0 19 -15 23 -16 4 -21 13 -21 39 l0 33 38 -13 c29 -10 38 -19 40 -40z
m106 -6 c7 -7 5 -38 -7 -98 -9 -49 -17 -101 -17 -115 0 -28 -6 -32 -29 -18
-16 10 -8 84 15 140 19 46 18 49 -13 53 -23 2 -28 8 -29 32 -1 27 1 28 34 22
19 -3 40 -10 46 -16z"/>
<path d="M1516 2044 c-10 -27 -7 -44 9 -44 10 0 15 10 15 30 0 32 -14 40 -24
14z"/>
<path d="M1737 2023 c-11 -11 -8 -121 4 -128 15 -10 20 -2 26 44 8 62 -8 107
-30 84z"/>
<path d="M1023 2410 c0 -25 2 -35 4 -22 2 12 2 32 0 45 -2 12 -4 2 -4 -23z"/>
<path d="M1022 2305 c0 -16 2 -22 5 -12 2 9 2 23 0 30 -3 6 -5 -1 -5 -18z"/>
<path d="M2974 2194 c3 -8 2 -12 -4 -9 -6 3 -10 1 -10 -5 0 -8 -7 -9 -17 -5
-10 4 -24 9 -30 12 -7 3 -13 0 -13 -5 0 -11 15 -17 71 -26 29 -5 38 -3 43 11
3 10 9 24 12 31 4 8 -4 12 -26 12 -25 0 -31 -3 -26 -16z m32 -10 c-3 -9 -6
-18 -6 -20 0 -2 -5 -4 -11 -4 -8 0 -9 4 0 13 6 8 8 17 4 20 -3 4 -1 7 6 7 8 0
11 -6 7 -16z"/>
<path d="M241 1926 c-1 -154 0 -159 17 -143 24 22 62 22 62 1 0 -31 27 -44 94
-44 37 0 66 4 66 10 0 6 18 10 40 10 22 0 40 5 40 10 0 6 18 10 40 10 38 0 40
2 40 30 0 23 -4 30 -20 30 -13 0 -20 7 -20 20 0 11 -4 20 -10 20 -5 0 -10 -9
-10 -20 0 -17 -7 -20 -50 -20 -49 0 -50 1 -50 30 0 23 4 30 20 30 11 0 20 5
20 10 0 6 9 10 20 10 13 0 20 7 20 20 0 19 -7 20 -100 20 -93 0 -100 1 -100
20 0 13 -7 20 -20 20 -11 0 -20 -4 -20 -10 0 -5 -11 -10 -25 -10 -22 0 -25 4
-25 35 0 19 -4 35 -9 35 -5 0 -12 8 -14 18 -3 9 -5 -55 -6 -142z m60 -6 c10 0
19 -7 19 -15 0 -9 -9 -15 -25 -15 -22 0 -25 4 -24 38 1 23 3 28 6 15 3 -15 12
-23 24 -23z"/>
<path d="M4919 2002 c35 -34 65 -62 68 -62 11 0 109 -116 153 -181 27 -41 53
-78 57 -84 14 -15 52 -87 62 -116 8 -23 17 -27 88 -37 43 -7 115 -19 160 -27
76 -14 264 -42 438 -65 39 -6 102 -15 140 -20 96 -15 314 -30 331 -23 31 12 0
180 -61 334 -19 48 -35 89 -35 92 0 3 50 3 110 0 192 -10 121 12 -97 30 -249
21 -469 51 -578 78 -44 11 -100 25 -123 31 -34 9 -46 8 -52 -2 -5 -7 -18 -10
-36 -6 -16 3 -45 2 -64 -3 l-35 -9 30 -2 c17 -2 42 -2 58 -1 17 2 29 -4 33
-14 5 -11 14 -15 28 -11 13 3 36 -3 55 -15 18 -11 36 -18 39 -15 3 4 13 -1 21
-9 15 -13 86 -22 199 -24 26 -1 32 -5 30 -18 -2 -13 5 -19 23 -21 22 -3 73
-40 58 -43 -27 -4 -61 -6 -51 -2 6 2 12 9 12 14 0 6 -8 5 -20 -1 -11 -6 -20
-8 -20 -4 0 3 -6 2 -12 -3 -7 -5 -24 -8 -38 -6 -14 1 -90 5 -169 8 -120 5
-143 4 -138 -8 3 -8 1 -20 -4 -28 -7 -11 -9 -9 -9 9 0 26 -27 30 -37 6 -4 -10
1 -22 12 -30 16 -12 21 -12 35 1 22 20 39 5 37 -34 -1 -23 3 -35 13 -38 12 -4
13 -3 1 5 -8 6 -10 15 -6 22 4 7 8 26 7 41 0 16 3 31 9 34 5 3 6 -1 2 -10 -8
-22 14 -35 41 -25 11 4 34 3 50 -1 16 -5 33 -6 37 -3 5 3 9 -2 9 -10 0 -21 31
-56 48 -56 10 0 13 8 10 24 -4 17 -1 23 9 19 7 -3 13 1 13 8 0 8 6 5 15 -7 8
-11 15 -14 15 -6 0 6 5 12 11 12 5 0 8 -4 5 -9 -4 -5 0 -11 6 -14 15 -5 -28
-55 -75 -89 -23 -16 -33 -18 -50 -10 -58 29 -119 53 -124 49 -2 -3 3 -22 11
-42 9 -20 14 -40 11 -44 -2 -4 9 -5 25 -3 19 3 27 9 23 18 -7 18 21 18 36 0
13 -15 -4 -26 -40 -26 -11 0 -28 -5 -38 -11 -14 -9 -32 -9 -77 2 -58 14 -60
15 -91 74 -17 33 -29 63 -27 67 7 10 24 10 23 1 -4 -25 3 -44 19 -50 9 -4 20
-11 23 -16 4 -5 7 3 7 17 0 15 -4 29 -9 32 -4 2 -6 11 -2 19 4 12 -4 15 -33
16 -80 2 -78 2 -91 49 l-13 45 6 -55 c4 -35 18 -78 41 -119 19 -36 28 -59 19
-52 -22 19 -76 136 -76 167 0 14 -4 23 -10 19 -6 -3 -13 1 -16 9 -3 9 -12 16
-19 16 -7 0 -15 5 -17 12 -2 6 -9 8 -16 4 -15 -9 1 -38 44 -81 30 -29 64 -84
64 -103 0 -5 -21 -3 -47 3 -27 7 -50 9 -53 4 -3 -4 -12 -4 -20 1 -8 6 -25 10
-37 10 -16 0 -23 6 -23 19 0 11 -5 23 -10 26 -6 4 -8 11 -5 16 4 5 0 9 -7 9
-22 1 -124 162 -113 180 3 5 1 11 -5 15 -5 3 -10 0 -10 -7 0 -7 -16 3 -34 23
-28 30 -33 43 -30 70 5 33 3 35 -40 51 -26 9 -46 13 -46 8 0 -4 12 -12 27 -17
27 -9 27 -10 5 -15 -12 -4 -20 -2 -16 3 3 5 0 9 -7 9 -7 0 -22 8 -33 19 -59
53 -73 48 -17 -7z m1211 -214 c0 -28 -28 -43 -46 -25 -4 4 -18 7 -31 7 -14 0
-21 4 -18 10 10 16 43 12 53 -7 9 -14 10 -14 16 5 8 24 26 30 26 10z m53 -60
c28 -81 35 -117 24 -135 -7 -12 1 -43 12 -43 3 0 7 -24 7 -54 1 -43 -2 -55
-15 -58 -9 -3 -65 4 -126 14 -116 19 -162 29 -108 24 18 -1 35 2 38 8 3 7 7 7
11 -1 3 -7 17 -13 31 -13 20 0 23 4 18 23 -5 17 -4 19 4 7 10 -13 12 -13 20 0
13 19 4 30 -25 30 -18 0 -24 5 -24 21 0 16 4 19 18 14 62 -25 72 -25 87 5 20
39 19 76 -2 85 -10 3 -19 1 -21 -4 -2 -6 -8 -11 -13 -11 -6 0 -8 4 -4 9 3 5
-3 12 -12 14 -14 4 -13 5 4 6 19 1 23 9 30 54 4 28 7 58 7 65 -1 6 2 12 6 12
4 0 19 -33 33 -72z m-133 16 c0 -8 -5 -12 -10 -9 -6 4 -8 11 -5 16 9 14 15 11
15 -7z m-234 -1 c-7 -7 -87 -5 -95 3 -2 2 20 4 49 4 29 0 50 -3 46 -7z m92
-10 c-10 -2 -26 -2 -35 0 -10 3 -2 5 17 5 19 0 27 -2 18 -5z m-98 -33 c0 -5
-4 -10 -10 -10 -5 0 -10 5 -10 10 0 6 5 10 10 10 6 0 10 -4 10 -10z m210 0 c0
-20 -24 -59 -39 -63 -9 -3 -4 -5 12 -6 33 -1 37 -21 4 -21 -13 0 -29 -6 -36
-12 -11 -11 -12 -10 -6 2 7 12 6 13 -7 3 -8 -7 -18 -10 -21 -6 -4 3 -7 1 -7
-6 0 -7 -4 -10 -9 -7 -16 10 -33 -22 -29 -56 2 -22 9 -35 23 -40 14 -4 9 -6
-17 -7 -45 -1 -68 7 -68 24 0 8 -8 11 -22 8 -21 -4 -22 -3 -6 10 10 8 15 17
11 20 -3 4 1 7 9 7 9 0 21 6 28 14 6 8 18 12 26 9 8 -3 14 1 14 9 0 8 16 30
37 49 20 18 33 28 29 22 -4 -7 -2 -13 5 -13 6 0 9 8 6 20 -4 17 0 20 25 20 23
0 29 4 24 15 -3 8 -1 15 4 15 6 0 10 -4 10 -10z m-80 -20 c0 -5 -4 -10 -10
-10 -5 0 -10 5 -10 10 0 6 5 10 10 10 6 0 10 -4 10 -10z m124 4 c25 -10 19
-24 -9 -22 -25 2 -31 9 -18 21 8 8 8 8 27 1z m21 -55 c11 -16 2 -17 -25 -2
-24 12 -24 13 -3 13 12 0 25 -5 28 -11z m50 -59 c8 -13 -5 -13 -25 0 -13 8
-13 10 2 10 9 0 20 -4 23 -10z m-130 -50 c8 -13 -15 -13 -35 0 -12 8 -11 10 7
10 12 0 25 -4 28 -10z m-201 -28 c3 -5 -8 -6 -25 -4 -16 2 -29 6 -29 8 0 8 49
4 54 -4z m456 -48 c0 -8 -5 -12 -10 -9 -6 4 -8 11 -5 16 9 14 15 11 15 -7z"/>
<path d="M5846 1534 c-8 -20 -4 -25 11 -16 7 4 9 13 4 21 -6 10 -10 9 -15 -5z"/>
<path d="M5285 2050 c11 -5 27 -9 35 -9 9 0 8 4 -5 9 -11 5 -27 9 -35 9 -9 0
-8 -4 5 -9z"/>
<path d="M5385 2021 c28 -11 57 -20 65 -20 23 0 -42 26 -81 33 -26 4 -23 2 16
-13z"/>
<path d="M5485 1990 c11 -5 27 -9 35 -9 9 0 8 4 -5 9 -11 5 -27 9 -35 9 -9 0
-8 -4 5 -9z"/>
<path d="M6909 1996 c-2 -2 -71 -12 -153 -21 -129 -14 -221 -32 -177 -34 11
-1 10 -4 -3 -14 -15 -11 -17 -21 -11 -55 l7 -42 156 0 c87 0 181 3 210 6 l52
7 0 65 0 65 -32 -7 c-57 -11 -226 -28 -245 -24 -10 2 35 9 99 16 141 15 178
22 178 33 0 9 -72 13 -81 5z"/>
<path d="M5235 1980 c3 -5 23 -10 43 -9 30 0 33 2 17 9 -28 12 -67 12 -60 0z"/>
<path d="M5545 1970 c3 -5 11 -10 16 -10 6 0 7 5 4 10 -3 6 -11 10 -16 10 -6
0 -7 -4 -4 -10z"/>
<path d="M5320 1962 c0 -11 49 -23 89 -21 23 1 22 2 -9 11 -71 19 -80 20 -80
10z"/>
<path d="M580 1945 c0 -8 5 -15 10 -15 6 0 10 7 10 15 0 8 -4 15 -10 15 -5 0
-10 -7 -10 -15z"/>
<path d="M5112 1928 c-15 -15 -16 -48 -1 -48 5 0 7 5 4 10 -4 6 -1 18 6 26 15
18 7 28 -9 12z"/>
<path d="M5340 1919 c0 -5 9 -9 21 -9 11 0 28 -4 37 -8 9 -5 31 -5 47 -1 30 7
25 10 -25 15 -14 1 -37 4 -52 7 -16 2 -28 0 -28 -4z"/>
<path d="M3520 1899 c-25 -5 -88 -30 -140 -55 -200 -99 -338 -295 -382 -544
-8 -45 -13 -150 -13 -262 0 -104 -3 -188 -7 -188 -5 0 -6 12 -3 28 l5 27 -11
-27 c-6 -16 -15 -28 -20 -28 -18 0 -9 -49 11 -60 17 -9 20 -8 20 10 0 11 5 20
10 20 6 0 10 -8 10 -19 0 -10 3 -33 6 -50 4 -20 3 -31 -5 -31 -6 0 -12 12 -12
28 l-1 27 -8 -30 c-6 -24 -8 -26 -9 -7 0 12 -5 22 -10 22 -5 0 -16 3 -25 6 -9
3 -16 1 -16 -5 0 -6 8 -11 18 -12 11 0 13 -2 4 -6 -21 -8 -62 18 -62 39 0 20
-36 26 -42 7 -3 -8 -19 -10 -51 -5 -37 6 -47 11 -47 26 0 10 -6 21 -12 23 -10
4 -10 6 0 6 6 1 12 6 12 11 0 13 -27 13 -32 0 -5 -16 -136 -21 -146 -6 -4 7
-28 18 -54 26 -40 10 -48 17 -48 36 0 13 5 24 11 24 6 0 9 5 7 11 -5 14 -75
33 -183 49 -44 6 -91 17 -104 23 -19 9 -25 9 -28 0 -3 -7 -19 -13 -36 -13
l-32 1 30 12 c29 13 28 13 -58 37 -48 12 -90 20 -93 17 -4 -3 -13 0 -21 8 -17
18 -58 20 -47 3 5 -7 3 -8 -5 -4 -7 5 -10 11 -6 14 3 4 -11 12 -32 18 -31 10
-33 12 -13 13 14 0 41 -4 60 -9 19 -5 64 -16 100 -24 36 -9 90 -22 120 -31
188 -50 271 -66 302 -59 l33 8 -40 7 c-27 4 -19 5 23 3 38 -3 62 -1 62 6 0 13
-44 23 -68 16 -11 -4 -24 0 -32 9 -7 8 -9 16 -4 16 5 1 -11 5 -36 10 -25 4
-70 15 -100 24 -30 10 -73 19 -96 20 -22 1 -51 8 -63 15 -13 6 -35 9 -49 6
-15 -3 -20 -2 -12 1 10 4 1 10 -25 18 -29 8 -44 9 -54 1 -11 -8 -13 -8 -8 1 7
11 -40 33 -72 33 -9 0 -54 11 -101 26 -138 42 -145 44 -172 44 -13 0 -47 7
-74 16 -27 9 -65 19 -84 24 -19 4 -99 26 -178 49 -78 23 -152 41 -163 41 -12
0 -49 9 -83 19 -136 44 -197 61 -212 61 -9 0 -48 11 -87 24 -40 14 -100 30
-134 36 -35 6 -98 22 -140 35 -43 14 -85 25 -95 25 -9 0 -19 4 -22 9 -3 5 -22
12 -42 15 -19 4 -42 10 -50 13 -12 4 -14 -86 -14 -655 l0 -661 38 -4 37 -4
-37 -1 c-35 -2 -38 -4 -38 -32 l0 -30 480 1 c396 0 486 3 515 14 45 19 89 20
82 1 -4 -10 5 -13 33 -13 24 0 41 5 44 13 4 9 22 14 51 14 28 0 44 4 40 10 -4
6 5 7 23 4 16 -3 32 -2 35 3 8 12 99 1 104 -13 2 -6 -7 -16 -19 -22 -22 -10
-22 -11 -2 -11 11 -1 34 5 50 13 29 14 134 11 134 -4 0 -4 12 -5 28 -2 l27 6
-25 7 c-14 4 -43 8 -65 8 -22 1 -47 5 -55 11 -28 18 17 23 88 10 70 -13 113
-29 80 -30 -10 0 -18 -4 -18 -10 0 -5 21 -10 46 -10 30 0 43 4 38 11 -5 8 -1
8 14 0 15 -8 275 -10 909 -9 l888 3 -2 25 c-1 14 1 19 3 12 3 -6 10 -10 15 -7
5 4 6 -1 2 -11 -5 -13 -2 -15 18 -9 13 5 29 8 34 8 32 0 45 -4 40 -13 -4 -7
517 -10 1554 -10 l1561 0 0 74 c0 41 -4 78 -10 81 -5 3 -10 1 -10 -6 0 -7 -3
-9 -6 -6 -4 3 -15 2 -25 -4 -11 -5 -19 -6 -19 -1 0 5 -12 7 -26 4 -19 -3 -22
-7 -12 -13 16 -10 -51 -14 -173 -10 -52 2 -89 -1 -93 -7 -4 -7 -17 -7 -38 -2
-21 7 -53 5 -97 -4 -36 -8 -77 -14 -91 -15 -14 0 -50 -3 -80 -6 -30 -3 -101
-6 -158 -6 -74 1 -101 -3 -96 -11 5 -8 -1 -9 -22 -3 -33 8 -40 9 -74 6 -22 -2
-23 -3 -6 -10 12 -4 -6 -8 -45 -8 -60 -1 -62 0 -25 8 60 14 54 17 -18 12 -46
-4 -66 -2 -66 6 0 6 -9 11 -20 11 -25 0 -26 -17 -2 -23 9 -3 -19 -6 -63 -8
l-80 -3 80 -6 80 -6 -71 -2 c-39 -1 -98 -4 -130 -6 -32 -2 -47 -2 -31 1 40 6
33 19 -10 20 -285 4 -575 2 -603 -5 -34 -10 -35 -10 -6 -11 16 -1 27 -3 25 -5
-2 -2 -47 -1 -99 3 l-95 8 70 2 c39 1 79 6 90 11 12 5 -3 7 -41 3 -56 -5 -62
-4 -68 15 -5 14 -13 18 -26 15 -11 -3 -20 0 -20 6 0 6 5 11 10 11 6 0 10 5 10
10 0 6 -7 10 -16 10 -10 0 -14 6 -10 15 3 8 2 15 -3 15 -5 0 -12 -16 -16 -36
-3 -20 -8 -34 -10 -32 -2 2 -13 86 -25 188 -12 102 -30 222 -41 266 -10 45
-19 95 -19 112 0 44 -52 192 -105 300 -25 51 -45 98 -45 105 -1 7 -14 30 -30
52 -16 22 -50 69 -75 105 -76 109 -225 253 -317 308 -15 9 -28 20 -28 24 0 4
-6 8 -12 8 -7 0 -49 18 -93 39 -44 21 -113 46 -152 55 -76 17 -208 20 -283 5z
m-3135 -398 c241 -70 393 -111 415 -111 36 -1 470 -128 440 -129 -26 -1 -78
12 -295 74 -71 21 -168 45 -215 55 -47 10 -141 35 -210 55 -69 21 -156 46
-195 57 -38 11 -72 23 -75 25 -9 9 63 -4 135 -26z m3219 -241 c6 -32 5 -33 -5
-10 -13 28 -15 34 -24 70 l-6 25 14 -25 c8 -14 17 -41 21 -60z m-2192 -25 c51
-13 127 -34 168 -46 41 -11 102 -27 135 -34 33 -7 71 -18 85 -24 l25 -10 -27
0 c-14 -1 -34 -4 -44 -8 -13 -5 -15 -3 -9 7 6 10 3 12 -13 8 -12 -4 -20 -3
-17 1 6 11 -129 42 -152 35 -15 -5 -15 -4 -3 5 13 9 13 11 0 12 -8 0 -22 2
-30 4 -84 23 -183 48 -217 56 -24 6 -43 13 -43 15 0 10 57 2 142 -21z m2232
-88 c4 4 6 4 5 -2 -5 -16 11 -55 22 -55 6 0 8 -4 4 -9 -3 -5 2 -16 10 -24 17
-18 20 -37 5 -37 -13 0 -70 123 -75 164 -4 28 -3 27 8 -7 7 -21 16 -34 21 -30z
m-1904 33 c8 -5 11 -10 5 -10 -5 0 -17 5 -25 10 -8 5 -10 10 -5 10 6 0 17 -5
25 -10z m203 -57 c-7 -2 -21 -2 -30 0 -10 3 -4 5 12 5 17 0 24 -2 18 -5z m137
-23 c10 -6 2 -7 -25 -3 -49 7 -58 13 -19 13 16 0 36 -5 44 -10z m-243 -6 c-3
-3 -12 -4 -19 -1 -8 3 -5 6 6 6 11 1 17 -2 13 -5z m283 -4 c0 -5 -5 -10 -11
-10 -5 0 -7 5 -4 10 3 6 8 10 11 10 2 0 4 -4 4 -10z m104 -8 c3 -5 0 -9 -7 -9
-7 0 -23 -3 -37 -7 l-25 -7 25 15 c29 18 37 19 44 8z m29 -29 c-7 -2 -19 -2
-25 0 -7 3 -2 5 12 5 14 0 19 -2 13 -5z m75 0 c-10 -2 -28 -2 -40 0 -13 2 -5
4 17 4 22 1 32 -1 23 -4z m66 -12 c8 -12 -64 -22 -83 -11 -12 6 -8 8 17 8 18
-1 35 2 39 5 9 10 21 9 27 -2z m-351 -28 c-7 -2 -19 -2 -25 0 -7 3 -2 5 12 5
14 0 19 -2 13 -5z m367 -57 c36 -8 54 -14 40 -15 -18 -1 -21 -4 -11 -10 9 -6
10 -10 2 -16 -7 -4 -18 -2 -25 4 -7 6 -21 8 -30 5 -12 -5 -19 0 -23 14 -4 15
-15 22 -42 25 -31 3 -32 4 -6 5 17 1 59 -5 95 -12z m1094 -27 c4 -4 -10 -17
-32 -28 -43 -22 -72 -27 -72 -12 0 5 -3 22 -6 39 l-6 30 53 -11 c30 -5 58 -13
63 -18z m204 -24 c-3 -3 -9 2 -12 12 -6 14 -5 15 5 6 7 -7 10 -15 7 -18z
m-191 -41 c-3 -3 -12 -4 -19 -1 -8 3 -5 6 6 6 11 1 17 -2 13 -5z m317 -50 c3
-26 11 -54 18 -63 11 -14 10 -14 -4 -1 -17 16 -41 110 -28 110 4 0 10 -21 14
-46z m-1184 12 c0 -11 -19 -15 -25 -6 -3 5 1 10 9 10 9 0 16 -2 16 -4z m1130
-47 c0 -6 -4 -7 -10 -4 -5 3 -10 11 -10 16 0 6 5 7 10 4 6 -3 10 -11 10 -16z
m156 -95 c37 -33 37 -35 8 -18 -18 10 -37 26 -43 36 -16 26 -8 22 35 -18z
m-3651 6 c-3 -5 -12 -10 -18 -10 -7 0 -6 4 3 10 19 12 23 12 15 0z m3395 -33
c0 -5 -4 -5 -10 -2 -5 3 -10 14 -10 23 0 15 2 15 10 2 5 -8 10 -19 10 -23z
m-3410 -38 c0 -6 -4 -7 -10 -4 -5 3 -10 11 -10 16 0 6 5 7 10 4 6 -3 10 -11
10 -16z m475 -49 c40 -15 45 -19 25 -21 -39 -3 -102 2 -124 11 -20 8 -20 8 4
18 33 14 36 14 95 -8z m-131 -9 c3 -5 0 -11 -8 -14 -8 -3 -17 1 -20 9 -6 15
19 20 28 5z m2962 -2 c-10 -6 -14 -14 -9 -18 16 -11 45 -83 36 -91 -4 -5 -24
-10 -43 -12 l-35 -4 28 -12 c18 -8 27 -19 27 -34 0 -20 3 -19 30 12 l29 35 1
-42 c0 -82 -30 -120 -70 -86 -21 18 -110 187 -110 209 0 13 86 53 115 53 19 0
19 0 1 -10z m-3056 -25 c0 -8 -7 -17 -15 -21 -18 -6 -20 -5 -29 23 -6 19 -3
21 19 16 14 -2 25 -11 25 -18z m-121 -8 c9 -11 6 -12 -14 -8 -14 2 -25 8 -25
13 0 14 26 11 39 -5z m268 -42 c-3 -3 -12 -4 -19 -1 -8 3 -5 6 6 6 11 1 17 -2
13 -5z m-307 -24 c0 -5 -4 -10 -10 -10 -5 0 -10 5 -10 10 0 6 5 10 10 10 6 0
10 -4 10 -10z m667 3 c-4 -3 -24 -8 -45 -10 -20 -1 -32 1 -25 5 16 10 79 15
70 5z m-317 -33 c0 -5 -5 -10 -11 -10 -5 0 -7 5 -4 10 3 6 8 10 11 10 2 0 4
-4 4 -10z m210 -1 c12 -8 10 -9 -7 -4 -15 4 -23 2 -23 -5 0 -7 -7 -9 -16 -6
-8 3 -12 2 -9 -4 3 -6 -4 -10 -17 -10 l-23 1 24 19 c26 22 48 25 71 9z m-122
-16 c-4 -22 -37 -33 -60 -21 -35 17 -17 32 45 37 12 1 17 -5 15 -16z m-198 -2
c-24 -13 -80 -21 -80 -11 0 5 17 11 38 13 20 2 42 4 47 5 6 1 3 -2 -5 -7z
m-116 -19 c3 -5 -1 -9 -9 -9 -8 0 -12 4 -9 9 3 4 7 8 9 8 2 0 6 -4 9 -8z m203
-9 c5 -14 -32 -19 -87 -12 -48 6 -39 16 20 21 49 5 63 3 67 -9z m523 -2 c0 -5
-9 -7 -20 -4 -11 3 -20 7 -20 9 0 2 9 4 20 4 11 0 20 -4 20 -9z m115 -11 l40
-20 -45 4 c-44 3 -100 20 -100 31 0 12 68 3 105 -15z m471 0 c8 0 14 -4 14
-10 0 -5 -9 -10 -20 -10 -14 0 -20 6 -19 23 0 12 3 16 6 10 2 -7 11 -13 19
-13z m584 0 c0 -5 -5 -10 -11 -10 -5 0 -7 5 -4 10 3 6 8 10 11 10 2 0 4 -4 4
-10z m-1390 -4 c0 -3 -4 -8 -10 -11 -5 -3 -10 -1 -10 4 0 6 5 11 10 11 6 0 10
-2 10 -4z m150 -17 c0 -6 -4 -7 -10 -4 -5 3 -10 11 -10 16 0 6 5 7 10 4 6 -3
10 -11 10 -16z m462 -9 c4 -26 3 -29 -9 -17 -8 7 -11 21 -7 30 9 24 11 21 16
-13z m288 21 c0 -13 -25 -20 -49 -14 -33 9 -24 23 14 23 19 0 35 -4 35 -9z
m-1075 -21 c3 -5 1 -10 -4 -10 -6 0 -11 5 -11 10 0 6 2 10 4 10 3 0 8 -4 11
-10z m5883 3 c-10 -2 -26 -2 -35 0 -10 3 -2 5 17 5 19 0 27 -2 18 -5z m-6073
-13 c3 -5 -7 -12 -22 -15 -15 -4 -47 -12 -70 -19 -32 -10 -43 -10 -43 -2 0 7
26 19 58 28 72 20 70 20 77 8z m-15 -60 c-24 -15 -36 -11 -14 4 10 8 21 12 24
10 2 -3 -2 -9 -10 -14z m4453 3 c-13 -2 -33 -2 -45 0 -13 2 -3 4 22 4 25 0 35
-2 23 -4z m120 0 c-7 -2 -21 -2 -30 0 -10 3 -4 5 12 5 17 0 24 -2 18 -5z
m-4653 -13 c0 -5 -5 -10 -11 -10 -5 0 -7 5 -4 10 3 6 8 10 11 10 2 0 4 -4 4
-10z m460 2 c0 -4 -10 -9 -22 -9 -18 -2 -20 0 -8 7 18 12 30 13 30 2z"/>
<path d="M800 1795 c0 -32 2 -35 30 -35 28 0 30 3 30 35 0 32 -2 35 -30 35
-28 0 -30 -3 -30 -35z"/>
<path d="M5725 1815 c-22 -8 -61 -14 -87 -14 -29 -1 -48 -6 -48 -12 0 -8 13
-9 38 -5 20 3 68 11 107 16 38 6 74 15 79 20 14 14 -40 11 -89 -5z"/>
<path d="M5875 1780 c-25 -7 -21 -8 22 -7 29 0 50 4 47 9 -6 9 -27 9 -69 -2z"/>
<path d="M1040 1751 c0 -5 -8 -17 -17 -27 -13 -13 -14 -19 -5 -22 6 -2 12 -9
12 -15 0 -7 7 -21 15 -31 14 -18 15 -14 15 42 0 35 -4 62 -10 62 -5 0 -10 -4
-10 -9z"/>
<path d="M5275 1740 c3 -5 8 -10 11 -10 2 0 4 5 4 10 0 6 -5 10 -11 10 -5 0
-7 -4 -4 -10z"/>
<path d="M5490 1718 c1 -31 1 -32 15 -13 17 21 15 37 -3 43 -8 2 -12 -8 -12
-30z"/>
<path d="M5682 1678 c-17 -17 -15 -27 6 -28 9 0 34 -2 55 -4 37 -4 50 7 21 18
-8 3 -12 10 -9 16 9 14 -58 13 -73 -2z"/>
<path d="M6803 1673 c37 -2 96 -2 130 0 34 2 4 3 -68 3 -71 0 -99 -1 -62 -3z"/>
<path d="M6690 1654 c0 -7 67 -121 130 -219 67 -106 109 -152 143 -161 l27 -6
0 196 0 196 -150 0 c-82 0 -150 -2 -150 -6z"/>
<path d="M5600 1611 c0 -6 5 -13 10 -16 6 -3 10 1 10 9 0 9 -4 16 -10 16 -5 0
-10 -4 -10 -9z"/>
<path d="M5565 1541 c-5 -9 43 -22 74 -20 10 0 6 4 -9 10 -37 16 -59 19 -65
10z"/>
<path d="M6550 1005 c0 -8 4 -15 10 -15 5 0 7 7 4 15 -4 8 -8 15 -10 15 -2 0
-4 -7 -4 -15z"/>
<path d="M2475 992 c-36 -4 -26 -8 90 -38 72 -19 153 -39 180 -45 28 -6 58
-15 68 -20 9 -5 39 -12 65 -15 37 -4 43 -3 30 6 -10 6 -24 10 -30 8 -7 -1 -26
1 -42 6 -24 6 -27 9 -15 17 10 8 7 9 -13 5 -22 -5 -26 -3 -22 9 4 8 1 15 -5
15 -6 0 -11 -5 -11 -11 0 -14 -25 -9 -152 26 -54 15 -95 32 -92 36 3 5 2 8 -3
7 -4 -1 -26 -3 -48 -6z"/>
<path d="M2634 981 c3 -5 15 -7 26 -4 28 7 25 13 -6 13 -14 0 -23 -4 -20 -9z"/>
<path d="M2963 945 c0 -22 2 -30 4 -17 2 12 2 30 0 40 -3 9 -5 -1 -4 -23z"/>
<path d="M2668 963 c7 -3 16 -2 19 1 4 3 -2 6 -13 5 -11 0 -14 -3 -6 -6z"/>
<path d="M2725 960 c-18 -6 -17 -7 6 -12 31 -6 68 5 52 15 -7 4 -15 2 -19 -4
-4 -7 -9 -7 -13 -1 -3 5 -15 6 -26 2z"/>
<path d="M2500 936 c0 -2 11 -6 25 -8 13 -3 22 -1 19 3 -5 9 -44 13 -44 5z"/>
<path d="M2850 910 c-11 -7 -4 -10 25 -10 29 0 36 3 25 10 -8 5 -19 10 -25 10
-5 0 -17 -5 -25 -10z"/>
<path d="M2625 901 c-8 -13 -8 -13 35 -16 59 -4 125 -25 110 -35 -8 -5 -11
-12 -8 -15 4 -4 16 0 28 8 12 8 31 13 43 11 35 -7 7 5 -53 21 -118 33 -147 38
-155 26z"/>
<path d="M2648 863 c6 -2 18 -2 25 0 6 3 1 5 -13 5 -14 0 -19 -2 -12 -5z"/>
<path d="M5462 819 c-24 -12 -47 -31 -52 -43 -4 -12 -16 -30 -27 -41 -62 -68
-153 -239 -135 -257 24 -23 552 -36 762 -18 63 5 153 12 200 16 126 9 160 40
208 196 17 56 32 88 41 88 8 0 12 3 8 6 -3 4 -61 10 -129 15 -68 4 -148 11
-178 14 -203 20 -531 45 -587 45 -49 0 -80 -6 -111 -21z"/>
<path d="M6952 733 c-13 -14 -26 -38 -29 -53 -5 -27 -4 -28 28 -21 32 6 34 9
37 54 4 54 -3 58 -36 20z"/>
<path d="M6955 613 c-11 -2 -30 -6 -42 -8 -16 -4 -25 -18 -37 -57 -8 -28 -13
-55 -11 -59 6 -9 95 12 95 22 0 5 7 6 15 3 12 -5 15 4 15 50 0 31 -3 55 -7 55
-5 -1 -17 -3 -28 -6z"/>
<path d="M5222 419 c7 -23 50 -39 92 -37 56 4 56 24 1 31 -25 4 -57 10 -71 13
-20 5 -25 3 -22 -7z"/>
<path d="M5668 383 c6 -2 18 -2 25 0 6 3 1 5 -13 5 -14 0 -19 -2 -12 -5z"/>
</g>
</svg>
