<?xml version="1.0" standalone="no"?>
<!DOCTYPE svg PUBLIC "-//W3C//DTD SVG 20010904//EN"
 "http://www.w3.org/TR/2001/REC-SVG-20010904/DTD/svg10.dtd">
<svg version="1.0" xmlns="http://www.w3.org/2000/svg"
 width="450" height="531.000000pt" viewBox="0 0 612.000000 531.000000"
 preserveAspectRatio="xMidYMid meet">

<g transform="translate(0.000000,531.000000) scale(0.100000,-0.100000)"
fill="#d81" stroke="none">
<path d="M3813 4695 c-149 -13 -173 -18 -173 -35 0 -15 32 -12 54 5 26 20 56
19 56 -2 0 -14 2 -14 21 3 16 14 23 15 26 7 3 -7 11 -13 19 -13 8 0 14 -5 14
-11 0 -5 -4 -7 -10 -4 -6 4 -10 -7 -10 -24 0 -31 -14 -42 -23 -18 -4 10 -7 10
-18 0 -20 -20 -30 -15 -23 11 3 14 1 27 -7 31 -8 5 -10 4 -5 -3 4 -7 2 -12 -3
-12 -6 0 -11 -9 -11 -20 0 -11 -4 -20 -10 -20 -5 0 -10 11 -10 25 0 22 -3 24
-24 15 -17 -6 -26 -5 -29 3 -2 7 -7 -3 -11 -21 -5 -18 -6 -36 -3 -38 3 -3 79
0 171 7 l165 13 6 28 c3 15 8 42 11 58 5 25 2 30 -13 29 -10 -1 -82 -7 -160
-14z m47 -17 c0 -9 3 -9 12 0 17 17 24 15 24 -8 0 -11 -4 -20 -9 -20 -5 0 -7
-11 -5 -25 4 -17 1 -25 -8 -25 -8 0 -14 5 -14 12 0 6 -10 3 -22 -8 -21 -19
-21 -19 -13 1 4 11 10 35 13 53 4 30 22 46 22 20z m75 -25 c-8 -42 -13 -53
-24 -53 -4 0 -6 15 -4 33 6 46 11 57 24 57 8 0 9 -12 4 -37z m35 13 c0 -3 -4
-8 -10 -11 -5 -3 -10 -1 -10 4 0 6 5 11 10 11 6 0 10 -2 10 -4z"/>
<path d="M3875 4570 c-55 -5 -39 -7 73 -7 78 0 142 4 142 8 0 10 -105 9 -215
-1z"/>
<path d="M3668 4553 c7 -3 16 -2 19 1 4 3 -2 6 -13 5 -11 0 -14 -3 -6 -6z"/>
<path d="M4315 4491 c-182 -30 -300 -170 -426 -503 -27 -71 -49 -131 -49 -133
0 -3 10 -1 21 4 16 5 35 40 69 126 l48 118 43 -84 42 -84 9 39 c5 22 20 54 34
73 33 44 80 56 175 43 104 -14 130 -22 152 -51 21 -28 33 -95 24 -131 -8 -32
-70 -61 -110 -52 -18 4 -27 2 -24 -4 8 -12 -104 -24 -118 -12 -6 5 -37 12 -68
16 -45 5 -66 3 -97 -11 -53 -24 -50 -37 8 -35 62 3 72 2 72 -10 0 -5 -13 -10
-28 -10 -32 0 -81 -29 -49 -30 9 0 17 -4 17 -10 0 -11 76 -50 97 -50 8 0 13
13 13 35 0 28 -5 38 -22 44 -22 8 -22 8 3 14 115 29 857 85 1162 88 114 1 127
3 127 19 0 29 -30 92 -68 142 -37 49 -171 169 -258 232 -58 40 -162 96 -182
96 -7 0 -10 5 -6 12 4 6 3 8 -3 5 -5 -3 -43 5 -84 18 -41 12 -103 29 -139 36
-36 7 -69 18 -73 26 -4 7 -22 12 -40 12 l-32 -2 35 -7 35 -7 -37 -2 c-28 -1
-38 3 -38 14 0 10 -10 15 -27 15 -16 0 -57 2 -93 4 -36 3 -87 1 -115 -3z m274
-100 c11 -20 22 -54 26 -74 4 -20 11 -37 17 -37 5 0 6 -4 3 -10 -3 -5 -1 -10
4 -10 6 0 11 -4 11 -10 0 -5 -6 -10 -14 -10 -16 0 -49 87 -39 104 3 6 2 8 -2
3 -5 -4 -17 10 -26 30 -34 71 -15 84 20 14z m45 -15 c15 -30 26 -59 23 -63 -3
-4 73 -7 168 -5 163 3 174 2 210 -19 29 -17 45 -38 67 -88 31 -67 89 -220 85
-222 -1 -1 -14 -2 -29 -3 -28 -2 -28 -2 -28 64 0 75 -23 124 -68 141 -15 6
-61 9 -102 7 -96 -6 -150 -32 -177 -87 l-20 -39 -12 36 c-34 95 -74 181 -82
176 -5 -3 -5 -13 1 -24 5 -10 10 -22 10 -27 -1 -4 -8 4 -16 20 -8 15 -12 32
-9 37 3 6 2 10 -3 10 -5 0 -12 8 -15 18 -3 9 -17 41 -31 70 -35 72 -8 70 28
-2z m180 -6 c34 -11 70 -25 80 -33 15 -11 8 -12 -50 -6 -38 5 -76 8 -84 9 -9
0 -6 6 10 15 l25 15 -27 -6 c-16 -3 -28 -2 -28 3 0 6 -15 15 -32 21 l-33 12
39 -6 c21 -3 66 -14 100 -24z m-230 -95 c15 -36 68 -215 81 -272 l7 -33 -59 0
-59 0 -2 50 c-4 88 -56 192 -106 210 -76 27 -231 1 -267 -44 -18 -23 -27 -26
-85 -26 -46 0 -66 4 -70 14 -9 23 34 95 59 101 12 3 126 11 252 19 127 7 231
14 232 15 2 0 9 -15 17 -34z m642 -149 c49 -46 97 -98 107 -115 l18 -31 -68 0
-69 0 -44 107 c-25 59 -46 111 -48 115 -10 24 24 -1 104 -76z"/>
<path d="M3165 4425 c-285 -23 -319 -28 -364 -51 -14 -8 -32 -14 -38 -14 -7 0
-13 -5 -13 -11 0 -6 -7 -9 -15 -5 -8 3 -15 1 -15 -4 0 -5 -8 -7 -17 -3 -13 4
-15 3 -8 -5 7 -8 33 -5 90 10 95 24 305 30 343 9 l23 -12 -25 -24 c-23 -21
-31 -42 -27 -67 0 -5 -3 -8 -8 -8 -12 0 -100 -155 -146 -255 l-32 -72 -328 -7
c-180 -4 -329 -5 -331 -4 -1 2 6 42 16 88 14 65 24 89 42 100 12 8 41 29 64
46 23 18 51 37 63 43 24 13 19 32 -7 30 -16 -1 -16 -2 0 -6 13 -3 -1 -17 -48
-49 -37 -24 -71 -41 -78 -37 -6 3 -8 3 -4 -1 3 -4 -3 -17 -14 -28 -16 -16 -22
-18 -29 -7 -13 20 -11 1 2 -24 9 -18 9 -20 -2 -9 -20 18 -29 15 -86 -27 -29
-22 -49 -33 -46 -25 3 7 8 14 12 14 4 0 16 8 27 18 118 107 288 225 406 283
37 18 65 36 62 41 -16 26 -407 -226 -473 -306 -8 -10 -21 -14 -32 -11 -14 5
-17 2 -13 -8 3 -8 -3 -21 -14 -28 -10 -8 -49 -42 -87 -77 l-68 -62 198 2 c109
2 185 5 169 9 -16 3 43 8 131 12 242 11 740 -9 1129 -44 65 -5 119 -9 120 -7
2 2 40 88 87 193 90 203 139 293 200 367 22 26 39 49 39 52 0 15 -595 2 -855
-19z m255 -92 c69 -16 188 -69 230 -102 l24 -19 -27 -49 c-16 -26 -40 -72 -53
-100 -14 -29 -31 -53 -38 -53 -8 0 -28 -3 -45 -6 -30 -6 -31 -6 -31 32 0 55
-43 142 -75 154 -35 13 -132 11 -175 -4 -26 -9 -41 -24 -58 -58 -28 -56 -39
-145 -22 -177 6 -13 9 -25 7 -28 -3 -2 -33 -7 -66 -10 l-61 -6 44 99 c24 55
56 125 71 156 l28 56 114 4 c126 3 137 9 122 61 -13 46 -24 52 -99 52 -53 0
-70 3 -70 14 0 16 73 9 180 -16z m-283 -89 c-3 -3 -12 -4 -19 -1 -8 3 -5 6 6
6 11 1 17 -2 13 -5z m614 -148 c29 -55 21 -75 -28 -78 -53 -3 -94 -1 -99 5 -3
3 11 37 31 77 34 68 37 71 55 55 10 -9 28 -35 41 -59z m-1633 -130 c-2 -1 -16
-10 -33 -20 l-30 -18 25 25 c14 13 29 22 33 20 5 -3 7 -6 5 -7z"/>
<path d="M2650 4359 c0 -5 5 -7 10 -4 6 3 10 8 10 11 0 2 -4 4 -10 4 -5 0 -10
-5 -10 -11z"/>
<path d="M2660 4319 c0 -6 -4 -8 -8 -5 -4 2 -27 -9 -51 -25 -25 -16 -46 -27
-49 -25 -2 3 -14 -4 -25 -15 -12 -11 -27 -17 -35 -14 -7 2 -10 0 -7 -5 3 -6
-1 -10 -10 -10 -9 0 -13 -5 -10 -10 4 -6 17 -3 34 9 16 11 65 38 109 60 51 24
76 41 67 45 -8 3 -15 1 -15 -5z"/>
<path d="M2723 3853 c9 -2 23 -2 30 0 6 3 -1 5 -18 5 -16 0 -22 -2 -12 -5z"/>
<path d="M4268 3853 c6 -2 18 -2 25 0 6 3 1 5 -13 5 -14 0 -19 -2 -12 -5z"/>
<path d="M3808 3833 c6 -2 18 -2 25 0 6 3 1 5 -13 5 -14 0 -19 -2 -12 -5z"/>
<path d="M5367 3684 c-13 -14 -7 -21 18 -21 15 0 24 4 22 11 -4 13 -30 20 -40
10z"/>
<path d="M4725 3636 c-19 -13 -18 -15 17 -21 46 -9 69 2 43 22 -24 17 -36 16
-60 -1z"/>
<path d="M5367 3604 c-3 -3 -3 -12 0 -20 7 -18 53 -18 53 0 0 8 6 17 13 19 6
3 -4 6 -24 6 -20 1 -38 -2 -42 -5z"/>
<path d="M5492 3555 c0 -16 2 -22 5 -12 2 9 2 23 0 30 -3 6 -5 -1 -5 -18z"/>
<path d="M4731 3551 c-12 -8 -13 -12 -1 -26 18 -22 59 -15 78 13 14 22 14 22
-24 22 -22 0 -45 -4 -53 -9z"/>
<path d="M5482 3480 c0 -14 2 -19 5 -12 2 6 2 18 0 25 -3 6 -5 1 -5 -13z"/>
<path d="M5624 3476 c-67 -30 -129 -166 -185 -411 -45 -198 -62 -258 -71 -249
-4 3 -13 -15 -21 -42 -13 -45 -16 -49 -68 -66 -30 -10 -164 -46 -299 -79 -469
-115 -1041 -262 -1175 -303 -27 -8 -50 -14 -52 -12 -2 1 4 52 13 112 10 66 16
180 17 289 0 155 -2 191 -21 258 -83 303 -301 430 -537 313 -92 -45 -163 -110
-236 -212 -124 -176 -166 -328 -209 -763 -11 -112 -22 -206 -25 -209 -22 -22
-440 -29 -685 -12 -328 23 -440 39 -510 71 -54 25 -96 34 -255 55 -308 40
-653 111 -754 155 -49 22 -61 23 -61 9 0 -5 6 -10 14 -10 7 0 38 -11 69 -25
54 -25 245 -77 407 -111 83 -18 84 -18 47 -26 -21 -4 -58 -19 -83 -33 -25 -14
-56 -25 -69 -25 -13 0 -27 -4 -30 -10 -3 -5 -15 -10 -26 -10 -21 0 -41 -37
-30 -56 12 -23 69 -64 92 -67 13 -2 23 -7 22 -11 -26 -81 -24 -101 8 -91 11 4
19 2 19 -5 0 -7 7 -10 15 -7 8 4 17 2 20 -4 4 -5 12 -9 18 -8 7 1 19 0 27 -4
125 -48 181 -61 430 -96 297 -43 342 -46 695 -46 291 0 367 3 450 18 156 27
209 36 365 58 200 28 413 79 516 125 21 9 45 18 52 20 7 1 25 10 40 20 50 34
97 52 217 83 66 18 129 36 140 41 11 5 47 15 80 24 52 12 142 37 250 66 73 20
290 82 405 116 69 20 141 40 160 44 19 4 66 18 103 30 38 12 87 25 110 29 l42
8 -32 13 c-18 6 -33 15 -33 18 0 4 40 17 88 29 48 12 96 25 106 29 17 6 18 4
12 -20 -6 -24 -4 -26 11 -18 21 11 132 35 261 57 51 9 104 20 117 25 70 27
144 161 177 319 14 68 20 142 21 261 2 199 -12 261 -73 322 -41 42 -50 44 -96
24z m55 -179 c6 -8 8 -17 4 -20 -3 -4 1 -7 10 -7 35 0 79 -229 45 -231 -10 0
-10 -2 0 -6 14 -6 16 -70 2 -75 -6 -2 -11 -21 -11 -43 -1 -60 -9 -95 -23 -95
-15 0 -46 -52 -46 -77 0 -14 5 -11 20 12 11 17 20 25 20 19 0 -18 -49 -78 -76
-92 -50 -26 -90 11 -119 113 -32 108 -9 332 45 435 35 68 100 102 129 67z
m-2232 -268 c81 -39 146 -146 174 -287 15 -77 7 -242 -16 -327 -54 -200 -189
-345 -321 -345 -213 0 -335 342 -233 653 12 39 26 64 32 60 6 -3 7 -1 3 6 -12
18 43 117 94 172 80 85 179 111 267 68z"/>
<path d="M5561 3227 c-10 -20 -11 -29 -1 -48 7 -12 16 -34 21 -48 6 -20 7 -15
7 24 0 28 -3 61 -7 74 l-6 23 -14 -25z"/>
<path d="M5623 3190 c0 -25 2 -35 4 -22 2 12 2 32 0 45 -2 12 -4 2 -4 -23z"/>
<path d="M5680 3188 c0 -7 -14 -42 -30 -77 -30 -64 -30 -64 -11 -82 33 -31 60
-6 61 55 0 17 -5 15 -35 -14 -42 -40 -45 -34 -9 20 24 36 44 110 30 110 -3 0
-6 -6 -6 -12z"/>
<path d="M5520 3116 c0 -2 -5 -27 -10 -56 -11 -56 -5 -70 30 -70 12 0 12 2 2
9 -11 7 -11 9 2 14 9 4 20 -1 25 -11 9 -15 10 -14 8 5 0 12 -4 21 -7 21 -22
-2 -40 4 -40 13 0 7 10 9 25 7 l25 -5 -22 38 c-18 32 -38 51 -38 35z"/>
<path d="M5630 2980 c0 -5 14 -19 31 -31 26 -18 33 -19 40 -8 14 22 11 28 -18
35 -16 3 -34 7 -40 10 -7 2 -13 -1 -13 -6z"/>
<path d="M5566 2961 c-3 -5 1 -11 9 -14 9 -4 12 -1 8 9 -6 16 -10 17 -17 5z"/>
<path d="M5611 2944 c0 -11 3 -14 6 -6 3 7 2 16 -1 19 -3 4 -6 -2 -5 -13z"/>
<path d="M5630 2941 c0 -6 4 -13 10 -16 6 -3 7 1 4 9 -7 18 -14 21 -14 7z"/>
<path d="M5522 2924 c-22 -15 -32 -74 -13 -74 15 0 51 51 51 71 0 23 -9 24
-38 3z"/>
<path d="M5635 2870 c13 -60 26 -80 20 -30 -3 25 -11 50 -17 55 -7 7 -8 -1 -3
-25z"/>
<path d="M5605 2784 c0 -73 8 -93 20 -54 7 21 -2 95 -14 117 -3 6 -6 -22 -6
-63z"/>
<path d="M5608 2693 c7 -3 16 -2 19 1 4 3 -2 6 -13 5 -11 0 -14 -3 -6 -6z"/>
<path d="M3275 2990 c-3 -5 -4 -14 -1 -19 8 -13 27 -149 27 -197 1 -22 5 -47
11 -55 7 -10 8 -5 4 19 -3 18 -1 32 4 32 6 0 10 -19 10 -42 1 -56 11 -37 40
75 20 77 22 92 10 130 -7 23 -14 48 -16 55 -4 14 -80 17 -89 2z"/>
<path d="M3461 2908 c-7 -24 -37 -92 -67 -152 -59 -120 -58 -116 -45 -116 9 0
128 156 149 197 17 31 14 64 -6 91 l-18 24 -13 -44z"/>
<path d="M3162 2910 c-12 -16 -22 -32 -22 -36 0 -4 18 -35 40 -68 21 -34 46
-78 55 -98 8 -21 20 -38 25 -38 13 0 13 17 -1 26 -8 4 -8 8 -1 13 21 12 -42
231 -66 231 -4 0 -18 -13 -30 -30z"/>
<path d="M3517 2762 c-17 -17 -27 -39 -27 -58 -1 -25 -2 -27 -13 -12 -12 15
-17 13 -53 -18 -37 -32 -38 -35 -20 -48 10 -8 15 -19 11 -25 -9 -16 -28 -13
-22 3 6 16 -19 30 -28 16 -4 -6 -2 -10 4 -10 6 0 8 -7 5 -15 -8 -19 9 -19 95
0 55 13 70 21 80 41 12 27 14 108 3 137 -7 16 -10 15 -35 -11z"/>
<path d="M3080 2756 c0 -2 7 -7 16 -10 8 -3 12 -2 9 4 -6 10 -25 14 -25 6z"/>
<path d="M3065 2718 c-12 -35 -25 -108 -25 -147 l0 -44 43 8 c23 4 60 9 82 11
65 5 69 6 83 17 17 13 15 47 -2 47 -20 0 -29 -17 -14 -23 7 -2 10 -8 6 -12 -4
-4 -16 3 -26 16 -18 21 -21 22 -35 7 -18 -18 -12 -28 16 -28 25 0 20 -5 -13
-13 -23 -6 -25 -3 -28 33 -2 39 -2 40 30 40 25 0 29 3 18 10 -8 5 -23 7 -32 4
-12 -4 -15 0 -11 15 3 13 10 18 20 14 10 -4 14 -2 12 6 -3 7 -29 21 -59 31
-66 23 -60 23 -65 8z"/>
<path d="M3304 2675 c1 -25 10 -32 20 -16 7 11 -3 41 -14 41 -4 0 -7 -11 -6
-25z"/>
<path d="M3266 2637 c3 -10 9 -15 12 -12 3 3 0 11 -7 18 -10 9 -11 8 -5 -6z"/>
<path d="M3379 2541 c-1 -6 -2 -17 -3 -23 0 -7 -8 -13 -16 -13 -9 0 -15 -11
-17 -28 -1 -15 2 -25 8 -22 5 4 9 14 9 23 1 15 2 15 15 -2 19 -25 19 -36 0
-36 -20 0 -19 -20 6 -77 12 -26 29 -73 39 -103 l17 -55 32 50 c42 67 37 111
-22 174 -23 25 -34 39 -24 32 16 -12 22 -8 18 12 -1 5 3 6 8 2 6 -3 14 9 19
27 l9 33 7 -33 c5 -21 17 -37 36 -47 32 -17 35 -15 44 37 6 34 5 37 -21 42
-72 14 -163 18 -164 7z"/>
<path d="M3238 2512 c-18 -3 -26 -32 -9 -32 10 0 36 29 30 33 -2 2 -12 2 -21
-1z"/>
<path d="M3594 2470 c-6 -28 -7 -50 -3 -50 7 0 23 89 17 96 -2 2 -9 -19 -14
-46z"/>
<path d="M3256 2474 c-4 -10 -2 -13 7 -8 8 5 7 2 -2 -9 -11 -15 -11 -17 1 -17
21 0 27 8 21 31 -6 23 -19 25 -27 3z"/>
<path d="M3165 2462 c-11 -2 -44 -14 -73 -28 -53 -24 -53 -24 -46 -62 14 -76
15 -76 61 -37 23 19 60 57 83 85 45 53 44 54 -25 42z"/>
<path d="M3314 2406 c-4 -10 -5 -52 -2 -94 3 -42 2 -103 -1 -134 -8 -62 -1
-69 40 -48 24 13 25 62 3 185 -17 94 -29 121 -40 91z"/>
<path d="M3201 2353 c0 -6 -21 -41 -46 -78 l-45 -66 26 -35 c25 -33 74 -74 88
-74 4 0 2 9 -4 20 -6 11 -17 20 -25 20 -7 0 -17 5 -21 12 -4 6 -3 8 3 5 5 -4
7 10 3 36 -4 30 0 55 12 86 11 25 17 54 15 65 -2 12 -5 16 -6 9z"/>
<path d="M3483 2249 c-38 -53 -53 -89 -37 -89 13 0 103 123 104 143 1 23 -30
-2 -67 -54z"/>
<path d="M3320 2100 c-20 -6 -21 -8 -5 -8 11 0 29 3 40 8 25 11 -1 11 -35 0z"/>
<path d="M5342 3413 c-9 -25 -10 -26 -11 -5 -1 12 -7 22 -16 22 -18 0 -18 -4
-5 -52 8 -28 7 -49 -3 -84 l-14 -48 -12 92 c-9 66 -17 92 -27 92 -15 0 -17 -9
-35 -118 -12 -79 -8 -97 16 -66 14 17 16 17 25 3 15 -25 57 -13 66 20 7 26 7
26 13 3 8 -29 27 -29 24 1 -6 67 -5 86 2 125 9 48 -7 59 -23 15z m-82 -78 c0
-14 -4 -25 -9 -25 -4 0 -6 11 -3 25 2 14 6 25 8 25 2 0 4 -11 4 -25z"/>
<path d="M5380 3345 c0 -96 12 -126 24 -57 3 20 6 63 6 95 0 44 -3 57 -15 57
-12 0 -15 -17 -15 -95z"/>
<path d="M3932 3400 c0 -19 2 -27 5 -17 2 9 2 25 0 35 -3 9 -5 1 -5 -18z"/>
<path d="M5168 3422 c-33 -3 -38 -7 -38 -28 0 -15 6 -24 15 -24 12 0 15 -15
15 -75 0 -41 4 -75 9 -75 11 0 21 50 21 105 0 24 5 45 11 47 6 2 9 15 7 28 -3
22 -7 25 -40 22z"/>
<path d="M592 3363 c-12 -33 -22 -66 -21 -74 0 -8 11 15 24 51 14 36 23 69 22
74 -2 5 -13 -18 -25 -51z"/>
<path d="M5010 3376 c0 -21 -6 -36 -15 -40 -9 -3 -15 -19 -15 -41 0 -24 -4
-35 -15 -35 -10 0 -15 11 -15 35 0 24 -5 35 -15 35 -11 0 -15 11 -15 36 0 28
-3 35 -17 32 -13 -2 -19 -14 -21 -41 -2 -24 -8 -37 -18 -37 -9 0 -14 -11 -14
-35 0 -24 5 -35 15 -35 10 0 15 11 15 35 0 28 4 35 20 35 16 0 20 -7 20 -31 0
-22 -5 -32 -20 -36 -15 -4 -20 -14 -20 -39 0 -50 28 -45 36 6 4 26 12 40 22
40 11 0 13 -8 9 -35 -5 -30 -3 -35 14 -35 15 0 19 7 19 34 0 21 6 36 15 40 9
3 15 18 15 36 0 18 6 33 15 36 9 4 15 19 15 40 0 24 -5 34 -15 34 -10 0 -15
-10 -15 -34z"/>
<path d="M5070 3375 c0 -24 -5 -35 -15 -35 -10 0 -15 -11 -15 -35 0 -24 -5
-35 -15 -35 -10 0 -15 -11 -15 -35 0 -24 5 -35 15 -35 10 0 15 11 15 35 0 24
5 35 15 35 10 0 15 -10 15 -30 0 -20 5 -30 15 -30 10 0 15 11 15 35 0 24 -5
35 -15 35 -10 0 -15 10 -15 30 0 20 5 30 15 30 10 0 15 11 15 35 0 24 -5 35
-15 35 -10 0 -15 -11 -15 -35z"/>
<path d="M4950 3365 c0 -24 5 -35 15 -35 10 0 15 11 15 35 0 24 -5 35 -15 35
-10 0 -15 -11 -15 -35z"/>
<path d="M4753 3383 c-7 -2 -13 -20 -13 -39 0 -27 4 -34 20 -34 17 0 20 7 20
40 0 40 -3 43 -27 33z"/>
<path d="M4810 3356 c0 -21 -6 -36 -15 -40 -9 -3 -15 -19 -15 -41 0 -24 4 -35
15 -35 11 0 15 -11 15 -36 0 -29 3 -35 16 -30 9 3 18 6 20 6 2 0 4 16 4 35 0
29 -4 35 -20 35 -17 0 -20 5 -16 28 2 15 5 30 5 35 1 4 8 7 16 7 10 0 15 11
15 35 0 28 -4 35 -20 35 -16 0 -20 -7 -20 -34z"/>
<path d="M4664 3349 c3 -17 6 -35 6 -40 0 -5 7 -9 15 -9 11 0 15 -11 15 -36 0
-28 3 -35 18 -32 12 2 18 14 20 39 2 30 -1 37 -17 42 -16 4 -21 13 -21 36 0
25 -4 31 -21 31 -19 0 -21 -4 -15 -31z"/>
<path d="M4590 3334 c0 -27 -5 -37 -20 -41 -15 -4 -20 -14 -20 -39 0 -27 4
-34 20 -34 17 0 20 7 20 40 0 33 3 40 20 40 16 0 20 -7 20 -36 0 -27 -5 -37
-20 -41 -15 -4 -20 -14 -20 -39 0 -27 4 -34 20 -34 16 0 20 7 20 36 0 27 5 37
20 41 15 4 20 14 20 39 0 27 -4 34 -20 34 -16 0 -20 7 -20 35 0 28 -4 35 -20
35 -16 0 -20 -7 -20 -36z"/>
<path d="M2513 3353 c75 -2 137 -7 137 -11 0 -5 -12 -20 -28 -35 -25 -24 -38
-27 -147 -36 l-120 -10 108 3 c59 2 107 0 107 -4 0 -3 -6 -12 -12 -20 -7 -7
17 13 55 45 37 32 67 62 67 67 0 4 -69 7 -152 6 l-153 -2 138 -3z"/>
<path d="M4527 3328 c5 -25 3 -30 -8 -23 -11 6 -11 5 -2 -5 17 -18 33 -3 33
31 0 19 -5 29 -15 29 -11 0 -13 -8 -8 -32z"/>
<path d="M2044 3322 c-43 -56 -45 -67 -19 -92 14 -13 25 -29 25 -37 0 -19 13
-16 28 7 15 24 37 27 28 3 -6 -15 -5 -16 11 -1 10 8 25 18 33 21 12 4 12 6 -2
6 -9 1 -19 7 -21 14 -4 10 -6 10 -6 0 -1 -18 -31 -16 -31 2 0 8 14 30 31 50
17 19 27 35 22 35 -15 0 -73 -61 -73 -76 0 -8 -4 -14 -10 -14 -18 0 -10 20 23
56 26 29 42 37 76 40 43 4 44 3 26 -16 -10 -11 -13 -20 -8 -20 6 0 16 7 23 15
16 19 71 19 96 0 16 -13 16 -14 1 -9 -12 5 -16 2 -11 -9 3 -9 13 -13 25 -10
10 3 19 0 19 -6 0 -6 -4 -11 -8 -11 -4 0 -8 -16 -8 -35 0 -44 18 -40 27 5 10
45 -7 90 -34 92 -12 0 -2 4 23 8 29 4 -11 7 -110 8 l-155 1 -21 -27z m29 -14
c-17 -18 -35 -42 -41 -53 -10 -17 -11 -17 -12 -3 0 20 56 88 73 88 6 0 -3 -15
-20 -32z"/>
<path d="M611 3316 c-15 -16 -24 -50 -36 -143 -24 -184 -18 -213 43 -219 15
-1 116 -14 225 -28 108 -14 212 -27 230 -27 l32 -2 -35 -8 c-24 -5 -11 -7 45
-4 48 2 66 1 45 -4 -29 -5 -19 -8 53 -13 82 -7 90 -5 139 20 28 15 66 45 84
67 l32 40 -46 3 c-67 4 -65 12 4 12 l60 0 107 114 c70 75 119 119 142 127 19
7 35 15 35 19 0 3 -48 3 -106 2 -156 -6 -891 37 -991 57 -36 7 -45 5 -62 -13z
m127 -23 c-10 -2 -28 -2 -40 0 -13 2 -5 4 17 4 22 1 32 -1 23 -4z m120 -10
c-16 -2 -40 -2 -55 0 -16 2 -3 4 27 4 30 0 43 -2 28 -4z m130 -10 c-16 -2 -40
-2 -55 0 -16 2 -3 4 27 4 30 0 43 -2 28 -4z m125 -10 c-13 -2 -33 -2 -45 0
-13 2 -3 4 22 4 25 0 35 -2 23 -4z m150 -10 c-13 -2 -33 -2 -45 0 -13 2 -3 4
22 4 25 0 35 -2 23 -4z m150 -10 c-7 -2 -19 -2 -25 0 -7 3 -2 5 12 5 14 0 19
-2 13 -5z m-432 -30 c12 -16 12 -17 -1 -7 -8 6 -22 14 -30 17 -13 5 -12 6 1 6
9 1 23 -7 30 -16z m-354 1 c-3 -3 -12 -4 -19 -1 -8 3 -5 6 6 6 11 1 17 -2 13
-5z m168 -21 c42 -3 78 -10 81 -14 2 -4 -10 -6 -28 -4 -170 22 -208 28 -208
32 0 3 18 3 40 -1 22 -3 74 -9 115 -13z m190 -40 c-51 -50 -117 -158 -85 -138
6 3 10 1 10 -4 0 -18 -38 -12 -52 7 -10 14 -37 22 -108 32 -95 12 -159 29
-115 29 11 0 61 -6 110 -13 50 -7 92 -12 94 -10 2 2 12 -7 22 -19 l18 -22 1
32 c0 25 10 40 52 77 50 44 88 65 53 29z m270 2 l160 -13 -150 5 c-143 5 -290
20 -205 21 19 0 107 -6 195 -13z m-378 -32 c1 -33 0 -35 -7 -13 -4 14 -8 19
-9 11 -1 -8 -4 -12 -7 -9 -5 6 12 48 19 48 2 0 3 -17 4 -37z m719 19 c-3 -5
-29 -9 -58 -9 -44 -1 -48 0 -23 7 41 11 87 12 81 2z m-607 -66 c-7 -14 -10
-29 -7 -32 3 -3 83 -11 178 -19 163 -13 230 -25 144 -25 -84 0 -334 24 -334
32 0 5 -5 6 -11 2 -13 -8 -11 -1 16 43 23 37 31 37 14 -1z"/>
<path d="M1956 3296 c-33 -29 -46 -47 -41 -56 6 -10 4 -12 -7 -7 -10 3 -25 -5
-39 -21 l-24 -27 27 23 26 24 7 -21 c3 -12 3 -35 0 -52 -5 -24 -17 -35 -49
-50 -23 -10 -51 -16 -62 -13 -14 4 -26 -4 -42 -25 l-22 -31 24 2 c19 2 22 5
14 15 -8 10 -3 13 21 13 18 0 45 7 60 15 37 19 81 71 81 96 0 29 45 47 73 29
20 -12 21 -12 8 3 -16 20 -43 22 -73 6 -18 -10 -20 -9 -15 6 4 9 7 23 7 31 0
8 5 14 11 14 5 0 7 -4 4 -10 -3 -5 -3 -10 2 -10 4 1 20 19 35 40 15 22 32 40
37 40 6 0 -3 -15 -20 -32 -30 -34 -36 -48 -19 -48 6 0 10 4 10 10 0 5 14 25
31 45 31 35 31 35 8 35 -14 -1 -46 -20 -73 -44z"/>
<path d="M3942 3305 c0 -16 2 -22 5 -12 2 9 2 23 0 30 -3 6 -5 -1 -5 -18z"/>
<path d="M561 3254 c0 -11 3 -14 6 -6 3 7 2 16 -1 19 -3 4 -6 -2 -5 -13z"/>
<path d="M4740 3200 c0 -43 0 -43 24 -34 10 4 16 18 16 40 0 27 -4 34 -20 34
-17 0 -20 -7 -20 -40z"/>
<path d="M4667 3223 c-4 -3 -7 -19 -7 -35 0 -21 5 -28 20 -28 16 0 20 7 20 35
0 33 -16 46 -33 28z"/>
<path d="M2130 3206 c0 -2 11 -6 25 -8 13 -3 22 -1 19 3 -5 9 -44 13 -44 5z"/>
<path d="M4510 3175 c0 -28 4 -35 20 -35 16 0 20 7 20 35 0 28 -4 35 -20 35
-16 0 -20 -7 -20 -35z"/>
<path d="M2020 3179 c0 -5 5 -7 10 -4 6 3 10 8 10 11 0 2 -4 4 -10 4 -5 0 -10
-5 -10 -11z"/>
<path d="M2180 3159 c0 -5 5 -7 10 -4 6 3 10 8 10 11 0 2 -4 4 -10 4 -5 0 -10
-5 -10 -11z"/>
<path d="M2267 3163 c-4 -3 -7 -11 -7 -17 0 -6 5 -5 12 2 6 6 9 14 7 17 -3 3
-9 2 -12 -2z"/>
<path d="M2288 3146 c-7 -14 -17 -24 -23 -23 -5 1 -11 -7 -12 -18 -2 -11 0
-14 3 -7 3 6 13 12 22 11 10 0 12 -3 5 -5 -7 -3 -10 -11 -7 -17 2 -7 -2 -21
-10 -32 -11 -15 -17 -17 -28 -7 -17 14 -68 -5 -68 -25 0 -15 -21 -13 -32 2 -5
6 -8 4 -8 -5 0 -13 -1 -13 -10 0 -9 13 -12 12 -25 -4 -8 -11 -15 -17 -15 -13
0 4 -10 1 -22 -6 -33 -20 -95 -21 -123 -3 -31 20 -36 20 -28 -1 6 -16 5 -17
-12 -3 -17 14 -18 13 -12 -3 6 -15 1 -18 -41 -17 -26 0 -71 -1 -99 -3 -29 -2
-53 -2 -53 0 0 2 7 15 16 29 25 38 12 37 -15 -1 -33 -49 -23 -57 72 -50 212
16 323 32 442 67 69 21 145 54 145 64 0 2 -9 0 -19 -6 -34 -18 -41 -12 -25 25
26 62 11 106 -18 51z m-58 -106 c0 -5 -4 -10 -10 -10 -5 0 -10 5 -10 10 0 6 5
10 10 10 6 0 10 -4 10 -10z"/>
<path d="M1804 3138 l-19 -23 23 19 c21 18 27 26 19 26 -2 0 -12 -10 -23 -22z"/>
<path d="M2065 3141 c-3 -5 -1 -12 5 -16 5 -3 10 1 10 9 0 18 -6 21 -15 7z"/>
<path d="M517 3132 c-25 -5 -17 -56 9 -59 10 -2 13 0 6 3 -10 4 -10 9 -2 19
16 20 8 41 -13 37z"/>
<path d="M2470 3086 c79 -94 92 -107 117 -117 17 -6 75 -6 177 3 83 7 143 14
133 16 -11 2 -79 -1 -153 -7 -100 -9 -140 -9 -157 0 -12 6 -51 42 -87 79 -36
37 -49 48 -30 26z"/>
<path d="M2104 3089 c0 -13 3 -15 13 -7 7 6 13 12 13 13 0 2 -6 5 -13 8 -7 3
-13 -3 -13 -14z"/>
<path d="M2165 3100 l-30 -8 33 -1 c17 0 32 4 32 9 0 6 -1 9 -2 9 -2 -1 -16
-5 -33 -9z"/>
<path d="M2171 3064 c0 -11 3 -14 6 -6 3 7 2 16 -1 19 -3 4 -6 -2 -5 -13z"/>
<path d="M2060 3030 c0 -5 5 -10 11 -10 5 0 7 5 4 10 -3 6 -8 10 -11 10 -2 0
-4 -4 -4 -10z"/>
<path d="M1788 3023 c6 -2 18 -2 25 0 6 3 1 5 -13 5 -14 0 -19 -2 -12 -5z"/>
<path d="M1957 3013 c-4 -3 -7 -11 -7 -17 0 -6 5 -5 12 2 6 6 9 14 7 17 -3 3
-9 2 -12 -2z"/>
<path d="M1732 2992 c-21 -16 -21 -18 -3 -19 11 -1 21 6 24 18 3 10 4 19 4 19
-1 0 -12 -8 -25 -18z"/>
<path d="M1836 3002 c-3 -6 -1 -14 5 -17 14 -9 20 -2 10 14 -6 8 -11 9 -15 3z"/>
<path d="M5238 2793 c7 -3 16 -2 19 1 4 3 -2 6 -13 5 -11 0 -14 -3 -6 -6z"/>
<path d="M5198 2783 c7 -3 16 -2 19 1 4 3 -2 6 -13 5 -11 0 -14 -3 -6 -6z"/>
<path d="M5158 2773 c7 -3 16 -2 19 1 4 3 -2 6 -13 5 -11 0 -14 -3 -6 -6z"/>
<path d="M5108 2763 c7 -3 16 -2 19 1 4 3 -2 6 -13 5 -11 0 -14 -3 -6 -6z"/>
<path d="M5058 2753 c6 -2 18 -2 25 0 6 3 1 5 -13 5 -14 0 -19 -2 -12 -5z"/>
<path d="M5018 2743 c7 -3 16 -2 19 1 4 3 -2 6 -13 5 -11 0 -14 -3 -6 -6z"/>
<path d="M430 2729 c0 -6 5 -20 11 -31 6 -11 7 -18 1 -14 -17 10 -24 -90 -9
-126 16 -39 44 -65 56 -52 5 5 11 48 14 95 l6 86 -40 26 c-21 14 -39 21 -39
16z"/>
<path d="M4968 2733 c6 -2 18 -2 25 0 6 3 1 5 -13 5 -14 0 -19 -2 -12 -5z"/>
<path d="M1080 2701 c0 -17 2 -31 4 -31 8 0 13 51 5 56 -5 3 -9 -9 -9 -25z"/>
<path d="M4918 2723 c6 -2 18 -2 25 0 6 3 1 5 -13 5 -14 0 -19 -2 -12 -5z"/>
<path d="M4840 2710 c-20 -6 -21 -8 -5 -8 11 0 31 4 45 8 20 6 21 8 5 8 -11 0
-31 -4 -45 -8z"/>
<path d="M536 2685 c-3 -10 -9 -63 -13 -120 l-6 -101 44 -21 c113 -53 484
-126 756 -149 69 -5 84 -4 88 8 4 9 -12 72 -35 142 -47 145 -41 140 -169 155
-140 18 -141 18 -141 -29 0 -50 9 -49 -218 -10 -96 17 -178 30 -183 30 -5 0
-9 20 -9 44 0 25 -3 47 -7 49 -5 3 -29 8 -54 12 -38 6 -47 4 -53 -10z"/>
<path d="M4740 2690 c-20 -6 -21 -8 -5 -8 11 0 34 4 50 8 27 7 27 8 5 8 -14 0
-36 -4 -50 -8z"/>
<path d="M4678 2673 c6 -2 18 -2 25 0 6 3 1 5 -13 5 -14 0 -19 -2 -12 -5z"/>
<path d="M3933 2605 c0 -38 2 -53 4 -32 2 20 2 52 0 70 -2 17 -4 1 -4 -38z"/>
<path d="M4638 2663 c7 -3 16 -2 19 1 4 3 -2 6 -13 5 -11 0 -14 -3 -6 -6z"/>
<path d="M4588 2653 c6 -2 18 -2 25 0 6 3 1 5 -13 5 -14 0 -19 -2 -12 -5z"/>
<path d="M4548 2643 c7 -3 16 -2 19 1 4 3 -2 6 -13 5 -11 0 -14 -3 -6 -6z"/>
<path d="M4470 2630 c-20 -6 -21 -8 -5 -8 11 0 31 4 45 8 20 6 21 8 5 8 -11 0
-31 -4 -45 -8z"/>
<path d="M4418 2613 c7 -3 16 -2 19 1 4 3 -2 6 -13 5 -11 0 -14 -3 -6 -6z"/>
<path d="M4340 2600 c-20 -6 -21 -8 -5 -8 11 0 31 4 45 8 20 6 21 8 5 8 -11 0
-31 -4 -45 -8z"/>
<path d="M2295 2584 c-98 -10 -520 -34 -687 -40 -163 -5 -198 -9 -198 -21 0
-8 4 -11 10 -8 6 3 7 -1 4 -9 -6 -16 28 -129 53 -180 l15 -29 247 6 c218 5
257 8 342 30 159 41 269 108 310 188 35 70 27 75 -96 63z m-251 -65 c-4 -7 -1
-10 7 -7 8 3 20 -1 27 -9 7 -7 28 -14 45 -14 24 -1 26 -3 10 -6 -17 -3 -23
-11 -23 -31 -1 -34 -38 -77 -73 -84 -15 -3 -27 -2 -27 2 0 5 -10 6 -21 3 -16
-4 -20 -2 -17 8 3 9 23 15 54 17 47 3 74 20 74 46 0 6 -7 0 -16 -12 -20 -29
-80 -28 -77 1 1 16 -4 18 -38 12 -30 -5 -39 -3 -39 7 0 20 30 59 41 53 5 -4 9
-2 9 4 0 10 21 18 53 20 11 1 15 -3 11 -10z m284 -16 c-10 -2 -26 -2 -35 0
-10 3 -2 5 17 5 19 0 27 -2 18 -5z m-100 -10 c-10 -2 -28 -2 -40 0 -13 2 -5 4
17 4 22 1 32 -1 23 -4z m-350 -30 c-15 -2 -42 -2 -60 0 -18 2 -6 4 27 4 33 0
48 -2 33 -4z m320 -60 c-10 -2 -28 -2 -40 0 -13 2 -5 4 17 4 22 1 32 -1 23 -4z
m-243 -13 c4 -6 -9 -10 -32 -9 -38 1 -38 1 -8 9 17 4 31 8 32 9 1 0 5 -3 8 -9z
m-157 -17 c-16 -2 -40 -2 -55 0 -16 2 -3 4 27 4 30 0 43 -2 28 -4z"/>
<path d="M2010 2509 c0 -5 5 -7 10 -4 6 3 10 8 10 11 0 2 -4 4 -10 4 -5 0 -10
-5 -10 -11z"/>
<path d="M1956 2493 c-12 -12 -5 -23 14 -23 11 0 20 4 20 9 0 11 -26 22 -34
14z"/>
<path d="M2046 2447 c3 -10 9 -15 12 -12 3 3 0 11 -7 18 -10 9 -11 8 -5 -6z"/>
<path d="M4288 2583 c7 -3 16 -2 19 1 4 3 -2 6 -13 5 -11 0 -14 -3 -6 -6z"/>
<path d="M4238 2573 c6 -2 18 -2 25 0 6 3 1 5 -13 5 -14 0 -19 -2 -12 -5z"/>
<path d="M4198 2563 c7 -3 16 -2 19 1 4 3 -2 6 -13 5 -11 0 -14 -3 -6 -6z"/>
<path d="M4158 2553 c7 -3 16 -2 19 1 4 3 -2 6 -13 5 -11 0 -14 -3 -6 -6z"/>
<path d="M4118 2543 c7 -3 16 -2 19 1 4 3 -2 6 -13 5 -11 0 -14 -3 -6 -6z"/>
<path d="M4078 2533 c7 -3 16 -2 19 1 4 3 -2 6 -13 5 -11 0 -14 -3 -6 -6z"/>
<path d="M4028 2523 c7 -3 16 -2 19 1 4 3 -2 6 -13 5 -11 0 -14 -3 -6 -6z"/>
<path d="M3988 2513 c7 -3 16 -2 19 1 4 3 -2 6 -13 5 -11 0 -14 -3 -6 -6z"/>
<path d="M3938 2503 c6 -2 18 -2 25 0 6 3 1 5 -13 5 -14 0 -19 -2 -12 -5z"/>
</g>
</svg>
